<svg xmlns="http://www.w3.org/2000/svg" xmlns:xlink="http://www.w3.org/1999/xlink" width="500" zoomAndPan="magnify" viewBox="0 0 375 374.999991" height="500" preserveAspectRatio="xMidYMid meet" version="1.2"><defs><clipPath id="ea2202d7e0"><path d="M 24 121 L 128 121 L 128 145 L 24 145 Z M 24 121 "/></clipPath><clipPath id="9d576bb83b"><path d="M 22.6875 131.460938 L 127.949219 121.328125 L 130.035156 142.976562 L 24.769531 153.113281 Z M 22.6875 131.460938 "/></clipPath><clipPath id="c6188181f5"><path d="M 22.6875 131.460938 L 127.949219 121.328125 L 130.035156 142.976562 L 24.769531 153.113281 Z M 22.6875 131.460938 "/></clipPath><clipPath id="59a3b3acdf"><path d="M 249 201 L 350 201 L 350 219 L 249 219 Z M 249 201 "/></clipPath><clipPath id="e41615cc37"><path d="M 248.714844 205.976562 L 349.835938 200.898438 L 350.890625 221.871094 L 249.769531 226.953125 Z M 248.714844 205.976562 "/></clipPath><clipPath id="e16337a680"><path d="M 248.714844 205.976562 L 349.835938 200.898438 L 350.890625 221.871094 L 249.769531 226.953125 Z M 248.714844 205.976562 "/></clipPath></defs><g id="ee34949a9e"><g style="fill:#ffffff;fill-opacity:1;"><g transform="translate(154.854658, 231.184189)"><path style="stroke:none" d="M 47.609375 -47.046875 C 47.671875 -46.847656 47.65625 -46.65625 47.5625 -46.46875 C 47.476562 -46.289062 47.351562 -46.160156 47.1875 -46.078125 C 45.84375 -45.578125 44.1875 -44.972656 42.21875 -44.265625 C 40.25 -43.566406 38.085938 -42.796875 35.734375 -41.953125 C 33.410156 -41.117188 30.929688 -40.226562 28.296875 -39.28125 C 25.660156 -38.332031 23.054688 -37.382812 20.484375 -36.4375 C 20.128906 -34.738281 19.742188 -32.710938 19.328125 -30.359375 C 18.921875 -28.015625 18.476562 -25.453125 18 -22.671875 C 17.53125 -19.898438 17.039062 -17.019531 16.53125 -14.03125 C 16.03125 -11.09375 15.523438 -8.144531 15.015625 -5.1875 C 14.503906 -2.226562 14.007812 0.613281 13.53125 3.34375 C 13.050781 6.082031 12.582031 8.640625 12.125 11.015625 C 11.414062 14.804688 10.832031 17.664062 10.375 19.59375 C 10.03125 21.082031 9.734375 22.085938 9.484375 22.609375 C 9.242188 23.140625 8.945312 23.410156 8.59375 23.421875 C 8.539062 23.421875 8.488281 23.425781 8.4375 23.4375 C 8.144531 23.394531 7.921875 23.226562 7.765625 22.9375 C 7.609375 22.65625 7.507812 22.101562 7.46875 21.28125 C 7.4375 20.457031 7.445312 19.210938 7.5 17.546875 C 7.519531 17.335938 7.601562 17.164062 7.75 17.03125 C 7.90625 16.894531 8.082031 16.832031 8.28125 16.84375 C 8.488281 16.863281 8.660156 16.945312 8.796875 17.09375 C 8.941406 17.238281 9.003906 17.414062 8.984375 17.625 C 8.960938 18.175781 8.953125 18.6875 8.953125 19.15625 C 9.242188 17.894531 9.582031 16.304688 9.96875 14.390625 C 10.351562 12.472656 10.753906 10.351562 11.171875 8.03125 C 11.585938 5.707031 12.019531 3.269531 12.46875 0.71875 C 12.925781 -1.820312 13.375 -4.367188 13.8125 -6.921875 C 14.257812 -9.484375 14.679688 -11.945312 15.078125 -14.3125 C 15.554688 -17.125 16.019531 -19.84375 16.46875 -22.46875 C 16.914062 -25.101562 17.34375 -27.554688 17.75 -29.828125 C 18.15625 -32.097656 18.519531 -34.09375 18.84375 -35.8125 C 17.757812 -35.425781 16.703125 -35.035156 15.671875 -34.640625 C 14.640625 -34.253906 13.644531 -33.867188 12.6875 -33.484375 C 9.820312 -32.359375 7.539062 -31.429688 5.84375 -30.703125 C 4.15625 -29.984375 2.890625 -29.40625 2.046875 -28.96875 C 1.203125 -28.53125 0.617188 -28.179688 0.296875 -27.921875 C 0.554688 -27.765625 0.671875 -27.523438 0.640625 -27.203125 C 0.585938 -26.796875 0.351562 -26.582031 -0.0625 -26.5625 C -0.101562 -26.5625 -0.148438 -26.570312 -0.203125 -26.59375 C -0.734375 -26.664062 -1.085938 -26.804688 -1.265625 -27.015625 C -1.441406 -27.222656 -1.546875 -27.429688 -1.578125 -27.640625 C -1.585938 -27.898438 -1.503906 -28.160156 -1.328125 -28.421875 C -1.148438 -28.691406 -0.78125 -29.007812 -0.21875 -29.375 C 0.34375 -29.738281 1.191406 -30.191406 2.328125 -30.734375 C 4.367188 -31.742188 7.363281 -33.015625 11.3125 -34.546875 C 13.71875 -35.492188 16.296875 -36.472656 19.046875 -37.484375 C 21.804688 -38.503906 24.570312 -39.515625 27.34375 -40.515625 C 30.125 -41.515625 32.753906 -42.460938 35.234375 -43.359375 C 37.585938 -44.191406 39.742188 -44.957031 41.703125 -45.65625 C 43.660156 -46.363281 45.304688 -46.96875 46.640625 -47.46875 C 46.828125 -47.53125 47.019531 -47.519531 47.21875 -47.4375 C 47.414062 -47.363281 47.546875 -47.234375 47.609375 -47.046875 Z M 47.609375 -47.046875 "/></g></g><g style="fill:#ffffff;fill-opacity:1;"><g transform="translate(175.724319, 230.13556)"><path style="stroke:none" d="M 10.84375 -9.34375 C 11.019531 -9.25 11.132812 -9.097656 11.1875 -8.890625 C 11.238281 -8.691406 11.21875 -8.5 11.125 -8.3125 C 10.675781 -7.519531 10.101562 -6.628906 9.40625 -5.640625 C 8.707031 -4.648438 7.941406 -3.703125 7.109375 -2.796875 C 6.285156 -1.898438 5.457031 -1.144531 4.625 -0.53125 C 3.800781 0.0703125 3.03125 0.394531 2.3125 0.4375 C 2 0.445312 1.722656 0.40625 1.484375 0.3125 C 0.585938 -0.03125 0.0625 -0.9375 -0.09375 -2.40625 C -0.257812 -3.882812 -0.0664062 -5.984375 0.484375 -8.703125 C 0.523438 -8.910156 0.632812 -9.070312 0.8125 -9.1875 C 0.988281 -9.300781 1.164062 -9.335938 1.34375 -9.296875 C 1.5625 -9.253906 1.722656 -9.144531 1.828125 -8.96875 C 1.929688 -8.789062 1.96875 -8.613281 1.9375 -8.4375 C 1.601562 -6.78125 1.40625 -5.46875 1.34375 -4.5 C 1.289062 -3.53125 1.3125 -2.800781 1.40625 -2.3125 C 1.5 -1.820312 1.613281 -1.492188 1.75 -1.328125 C 1.882812 -1.171875 1.96875 -1.097656 2 -1.109375 C 2.34375 -0.960938 2.820312 -1.09375 3.4375 -1.5 C 4.0625 -1.90625 4.75 -2.492188 5.5 -3.265625 C 6.257812 -4.046875 7.019531 -4.9375 7.78125 -5.9375 C 8.550781 -6.9375 9.226562 -7.976562 9.8125 -9.0625 C 9.9375 -9.25 10.09375 -9.363281 10.28125 -9.40625 C 10.46875 -9.457031 10.65625 -9.4375 10.84375 -9.34375 Z M 1.609375 -11.96875 C 1.085938 -11.976562 0.8125 -12.113281 0.78125 -12.375 C 0.757812 -12.632812 0.863281 -12.914062 1.09375 -13.21875 C 1.320312 -13.519531 1.5625 -13.726562 1.8125 -13.84375 C 2.21875 -13.988281 2.519531 -13.972656 2.71875 -13.796875 C 2.925781 -13.628906 3.03125 -13.40625 3.03125 -13.125 C 3.03125 -12.84375 2.914062 -12.578125 2.6875 -12.328125 C 2.457031 -12.085938 2.097656 -11.96875 1.609375 -11.96875 Z M 1.609375 -11.96875 "/></g></g><g style="fill:#ffffff;fill-opacity:1;"><g transform="translate(185.466061, 229.646071)"><path style="stroke:none" d="M 15.71875 -9.359375 C 15.894531 -9.285156 16.019531 -9.148438 16.09375 -8.953125 C 16.175781 -8.765625 16.179688 -8.582031 16.109375 -8.40625 C 15.660156 -7.394531 15.171875 -6.367188 14.640625 -5.328125 C 14.117188 -4.296875 13.5625 -3.347656 12.96875 -2.484375 C 12.382812 -1.617188 11.769531 -0.921875 11.125 -0.390625 C 10.488281 0.140625 9.835938 0.425781 9.171875 0.46875 C 9.046875 0.46875 8.90625 0.460938 8.75 0.453125 C 7.007812 0.203125 5.832031 -2.054688 5.21875 -6.328125 C 4.800781 -5.722656 4.320312 -5.035156 3.78125 -4.265625 C 3.238281 -3.503906 2.664062 -2.75 2.0625 -2 C 1.957031 -1.882812 1.796875 -1.710938 1.578125 -1.484375 C 1.367188 -1.253906 1.113281 -1.066406 0.8125 -0.921875 C 0.507812 -0.773438 0.195312 -0.773438 -0.125 -0.921875 C -0.75 -1.117188 -1.078125 -1.773438 -1.109375 -2.890625 C -1.140625 -3.523438 -1.054688 -4.320312 -0.859375 -5.28125 C -0.671875 -6.238281 -0.375 -7.210938 0.03125 -8.203125 C 0.4375 -9.191406 0.921875 -10.070312 1.484375 -10.84375 C 2.054688 -11.613281 2.707031 -12.148438 3.4375 -12.453125 C 3.894531 -12.648438 4.457031 -12.707031 5.125 -12.625 C 5.789062 -12.550781 6.503906 -12.101562 7.265625 -11.28125 C 7.398438 -11.144531 7.46875 -10.972656 7.46875 -10.765625 C 7.46875 -10.554688 7.390625 -10.382812 7.234375 -10.25 C 7.085938 -10.101562 6.910156 -10.03125 6.703125 -10.03125 C 6.503906 -10.039062 6.332031 -10.125 6.1875 -10.28125 C 5.550781 -10.96875 5.007812 -11.273438 4.5625 -11.203125 C 4.113281 -11.140625 3.738281 -10.988281 3.4375 -10.75 C 2.894531 -10.3125 2.410156 -9.695312 1.984375 -8.90625 C 1.554688 -8.113281 1.210938 -7.285156 0.953125 -6.421875 C 0.691406 -5.566406 0.515625 -4.765625 0.421875 -4.015625 C 0.328125 -3.273438 0.3125 -2.742188 0.375 -2.421875 C 0.445312 -2.472656 0.523438 -2.539062 0.609375 -2.625 C 0.703125 -2.707031 0.800781 -2.8125 0.90625 -2.9375 C 1.632812 -3.832031 2.296875 -4.707031 2.890625 -5.5625 C 3.492188 -6.425781 4.007812 -7.195312 4.4375 -7.875 C 4.5625 -8.050781 4.675781 -8.222656 4.78125 -8.390625 C 4.882812 -8.566406 4.984375 -8.722656 5.078125 -8.859375 C 5.273438 -9.128906 5.539062 -9.21875 5.875 -9.125 C 6.207031 -9.070312 6.394531 -8.863281 6.4375 -8.5 C 6.601562 -6.84375 6.804688 -5.507812 7.046875 -4.5 C 7.296875 -3.5 7.546875 -2.753906 7.796875 -2.265625 C 8.046875 -1.773438 8.28125 -1.441406 8.5 -1.265625 C 8.71875 -1.097656 8.878906 -1.019531 8.984375 -1.03125 C 9.472656 -0.945312 10.226562 -1.484375 11.25 -2.640625 C 12.28125 -3.804688 13.441406 -5.914062 14.734375 -8.96875 C 14.828125 -9.164062 14.96875 -9.300781 15.15625 -9.375 C 15.34375 -9.457031 15.53125 -9.453125 15.71875 -9.359375 Z M 15.71875 -9.359375 "/></g></g><g style="fill:#ffffff;fill-opacity:1;"><g transform="translate(199.789886, 228.926349)"><path style="stroke:none" d="M 15.09375 -9.359375 C 15.28125 -9.265625 15.40625 -9.117188 15.46875 -8.921875 C 15.53125 -8.734375 15.515625 -8.550781 15.421875 -8.375 C 14.316406 -6.1875 13.3125 -4.5 12.40625 -3.3125 C 11.5 -2.125 10.539062 -1.566406 9.53125 -1.640625 C 8.238281 -1.734375 7.15625 -3.070312 6.28125 -5.65625 C 5.976562 -6.476562 5.722656 -7.070312 5.515625 -7.4375 C 5.304688 -7.800781 5.140625 -8.023438 5.015625 -8.109375 C 4.898438 -8.191406 4.816406 -8.234375 4.765625 -8.234375 C 4.679688 -8.242188 4.53125 -8.15625 4.3125 -7.96875 C 4.09375 -7.78125 3.78125 -7.367188 3.375 -6.734375 C 2.96875 -6.097656 2.472656 -5.113281 1.890625 -3.78125 C 1.316406 -2.457031 0.625 -0.640625 -0.1875 1.671875 C -0.300781 1.992188 -0.507812 2.160156 -0.8125 2.171875 C -0.894531 2.171875 -0.960938 2.160156 -1.015625 2.140625 C -1.460938 2.054688 -1.671875 1.789062 -1.640625 1.34375 C -1.554688 0.289062 -1.378906 -0.929688 -1.109375 -2.328125 C -0.847656 -3.734375 -0.554688 -5.164062 -0.234375 -6.625 C 0.0859375 -8.082031 0.390625 -9.382812 0.671875 -10.53125 C 0.734375 -10.789062 0.789062 -11.03125 0.84375 -11.25 C 0.894531 -11.476562 0.941406 -11.695312 0.984375 -11.90625 C 1.054688 -12.101562 1.175781 -12.253906 1.34375 -12.359375 C 1.519531 -12.460938 1.695312 -12.492188 1.875 -12.453125 C 2.09375 -12.410156 2.253906 -12.300781 2.359375 -12.125 C 2.472656 -11.945312 2.5 -11.757812 2.4375 -11.5625 C 2.394531 -11.34375 2.34375 -11.125 2.28125 -10.90625 C 2.226562 -10.6875 2.175781 -10.441406 2.125 -10.171875 C 1.976562 -9.503906 1.804688 -8.765625 1.609375 -7.953125 C 1.421875 -7.140625 1.234375 -6.320312 1.046875 -5.5 C 1.835938 -7.175781 2.523438 -8.300781 3.109375 -8.875 C 3.691406 -9.445312 4.25 -9.734375 4.78125 -9.734375 C 5.488281 -9.710938 6.066406 -9.335938 6.515625 -8.609375 C 6.960938 -7.890625 7.351562 -7.054688 7.6875 -6.109375 C 8.132812 -4.785156 8.535156 -3.953125 8.890625 -3.609375 C 9.242188 -3.273438 9.5 -3.109375 9.65625 -3.109375 C 9.988281 -3.078125 10.367188 -3.28125 10.796875 -3.71875 C 11.222656 -4.164062 11.644531 -4.726562 12.0625 -5.40625 C 12.476562 -6.09375 12.867188 -6.765625 13.234375 -7.421875 C 13.597656 -8.085938 13.875 -8.628906 14.0625 -9.046875 C 14.15625 -9.222656 14.300781 -9.34375 14.5 -9.40625 C 14.707031 -9.46875 14.90625 -9.453125 15.09375 -9.359375 Z M 15.09375 -9.359375 "/></g></g><g style="fill:#ffffff;fill-opacity:1;"><g transform="translate(213.536143, 228.235647)"><path style="stroke:none" d="M 23.171875 -9.84375 C 23.304688 -9.726562 23.382812 -9.566406 23.40625 -9.359375 C 23.4375 -9.148438 23.375 -8.96875 23.21875 -8.8125 C 22.070312 -7.519531 20.890625 -6.597656 19.671875 -6.046875 C 18.453125 -5.492188 17.3125 -5.347656 16.25 -5.609375 C 15.78125 -5.742188 15.273438 -5.976562 14.734375 -6.3125 C 14.203125 -6.644531 13.726562 -7.179688 13.3125 -7.921875 C 13 -6.472656 12.628906 -5.082031 12.203125 -3.75 C 11.734375 -2.300781 11.300781 -1.222656 10.90625 -0.515625 C 10.519531 0.179688 10.164062 0.644531 9.84375 0.875 C 9.519531 1.113281 9.226562 1.238281 8.96875 1.25 C 8.507812 1.28125 8.140625 1.125 7.859375 0.78125 C 7.585938 0.445312 7.378906 0.078125 7.234375 -0.328125 C 7.085938 -0.734375 6.984375 -1.046875 6.921875 -1.265625 C 6.816406 -1.703125 6.722656 -2.21875 6.640625 -2.8125 C 5.847656 -1.40625 5.203125 -0.347656 4.703125 0.359375 C 4.210938 1.078125 3.773438 1.632812 3.390625 2.03125 C 3.078125 2.382812 2.78125 2.625 2.5 2.75 C 2.21875 2.882812 1.960938 2.957031 1.734375 2.96875 C 1.554688 2.976562 1.382812 2.957031 1.21875 2.90625 C 1.0625 2.863281 0.945312 2.8125 0.875 2.75 C 0.207031 2.363281 -0.21875 1.492188 -0.40625 0.140625 C -0.601562 -1.210938 -0.570312 -2.882812 -0.3125 -4.875 C -0.0507812 -6.875 0.429688 -9.050781 1.140625 -11.40625 C 1.203125 -11.59375 1.320312 -11.734375 1.5 -11.828125 C 1.675781 -11.929688 1.863281 -11.953125 2.0625 -11.890625 C 2.25 -11.835938 2.390625 -11.71875 2.484375 -11.53125 C 2.585938 -11.34375 2.601562 -11.160156 2.53125 -10.984375 C 1.75 -8.359375 1.265625 -6.148438 1.078125 -4.359375 C 0.898438 -2.566406 0.882812 -1.179688 1.03125 -0.203125 C 1.1875 0.765625 1.382812 1.320312 1.625 1.46875 C 1.726562 1.539062 1.96875 1.390625 2.34375 1.015625 C 2.625 0.703125 2.941406 0.300781 3.296875 -0.1875 C 3.648438 -0.675781 4.082031 -1.347656 4.59375 -2.203125 C 5.101562 -3.054688 5.738281 -4.171875 6.5 -5.546875 C 6.675781 -5.867188 6.941406 -5.984375 7.296875 -5.890625 C 7.671875 -5.804688 7.867188 -5.570312 7.890625 -5.1875 C 7.910156 -4.726562 7.960938 -4.164062 8.046875 -3.5 C 8.128906 -2.832031 8.234375 -2.207031 8.359375 -1.625 C 8.484375 -1.195312 8.585938 -0.878906 8.671875 -0.671875 C 8.765625 -0.460938 8.84375 -0.328125 8.90625 -0.265625 C 9.15625 -0.421875 9.445312 -0.867188 9.78125 -1.609375 C 10.113281 -2.347656 10.453125 -3.238281 10.796875 -4.28125 C 11.148438 -5.332031 11.457031 -6.425781 11.71875 -7.5625 C 11.988281 -8.707031 12.160156 -9.773438 12.234375 -10.765625 C 12.285156 -11.179688 12.519531 -11.398438 12.9375 -11.421875 C 13.34375 -11.460938 13.597656 -11.285156 13.703125 -10.890625 C 14.253906 -8.671875 15.21875 -7.382812 16.59375 -7.03125 C 17.375 -6.851562 18.253906 -7.003906 19.234375 -7.484375 C 20.210938 -7.972656 21.175781 -8.742188 22.125 -9.796875 C 22.25 -9.953125 22.410156 -10.035156 22.609375 -10.046875 C 22.816406 -10.054688 23.003906 -9.988281 23.171875 -9.84375 Z M 23.171875 -9.84375 "/></g></g><g style="fill:#ffffff;fill-opacity:1;"><g transform="translate(235.445444, 227.13478)"><path style="stroke:none" d="M 14.953125 -9.078125 C 15.117188 -8.984375 15.226562 -8.835938 15.28125 -8.640625 C 15.34375 -8.441406 15.328125 -8.257812 15.234375 -8.09375 C 15.046875 -7.75 14.742188 -7.222656 14.328125 -6.515625 C 13.910156 -5.804688 13.40625 -5.015625 12.8125 -4.140625 C 12.226562 -3.273438 11.601562 -2.429688 10.9375 -1.609375 C 10.269531 -0.796875 9.597656 -0.113281 8.921875 0.4375 C 8.253906 0.988281 7.628906 1.28125 7.046875 1.3125 C 6.835938 1.320312 6.65625 1.289062 6.5 1.21875 C 5.851562 1.019531 5.421875 0.453125 5.203125 -0.484375 C 4.992188 -1.429688 4.988281 -2.8125 5.1875 -4.625 C 4.863281 -4.175781 4.519531 -3.707031 4.15625 -3.21875 C 3.800781 -2.738281 3.410156 -2.296875 2.984375 -1.890625 C 2.347656 -1.296875 1.796875 -1.035156 1.328125 -1.109375 C 0.859375 -1.191406 0.546875 -1.304688 0.390625 -1.453125 C -0.0859375 -1.804688 -0.40625 -2.375 -0.5625 -3.15625 C -0.71875 -3.9375 -0.722656 -4.8125 -0.578125 -5.78125 C -0.429688 -6.75 -0.128906 -7.691406 0.328125 -8.609375 C 0.429688 -8.804688 0.582031 -8.9375 0.78125 -9 C 0.988281 -9.0625 1.1875 -9.046875 1.375 -8.953125 C 1.550781 -8.859375 1.671875 -8.710938 1.734375 -8.515625 C 1.796875 -8.328125 1.78125 -8.140625 1.6875 -7.953125 C 1.257812 -7.148438 0.988281 -6.367188 0.875 -5.609375 C 0.757812 -4.859375 0.75 -4.210938 0.84375 -3.671875 C 0.9375 -3.140625 1.078125 -2.796875 1.265625 -2.640625 C 1.367188 -2.578125 1.5 -2.609375 1.65625 -2.734375 C 1.820312 -2.859375 1.929688 -2.9375 1.984375 -2.96875 C 2.453125 -3.425781 2.890625 -3.945312 3.296875 -4.53125 C 3.703125 -5.113281 4.046875 -5.648438 4.328125 -6.140625 C 4.710938 -6.710938 5.03125 -7.140625 5.28125 -7.421875 C 5.539062 -7.703125 5.847656 -7.773438 6.203125 -7.640625 C 6.578125 -7.535156 6.773438 -7.265625 6.796875 -6.828125 C 6.816406 -6.398438 6.78125 -5.804688 6.6875 -5.046875 C 6.507812 -3.546875 6.445312 -2.453125 6.5 -1.765625 C 6.5625 -1.085938 6.648438 -0.65625 6.765625 -0.46875 C 6.878906 -0.28125 6.953125 -0.1875 6.984375 -0.1875 C 7.285156 -0.0820312 8.097656 -0.738281 9.421875 -2.15625 C 10.742188 -3.570312 12.242188 -5.785156 13.921875 -8.796875 C 14.015625 -8.992188 14.160156 -9.113281 14.359375 -9.15625 C 14.566406 -9.207031 14.765625 -9.179688 14.953125 -9.078125 Z M 14.953125 -9.078125 "/></g></g><g style="fill:#ffffff;fill-opacity:1;"><g transform="translate(111.701982, 152.257465)"><path style="stroke:none" d="M 39.3125 7.359375 C 39.476562 7.472656 39.570312 7.632812 39.59375 7.84375 C 39.613281 8.050781 39.5625 8.25 39.4375 8.4375 C 38.15625 10.164062 36.757812 11.070312 35.25 11.15625 C 35.195312 11.15625 35.144531 11.15625 35.09375 11.15625 C 33.988281 11.195312 32.890625 10.816406 31.796875 10.015625 C 30.710938 9.222656 29.601562 8.171875 28.46875 6.859375 C 27.332031 5.554688 26.15625 4.125 24.9375 2.5625 C 23.675781 0.976562 22.347656 -0.628906 20.953125 -2.265625 C 19.554688 -3.910156 18.101562 -5.335938 16.59375 -6.546875 C 15.039062 -6.085938 13.503906 -5.832031 11.984375 -5.78125 C 11.515625 -3.34375 11.050781 -0.894531 10.59375 1.5625 C 10.132812 4.03125 9.710938 6.367188 9.328125 8.578125 C 8.941406 10.796875 8.609375 12.789062 8.328125 14.5625 C 8.054688 16.34375 7.875 17.785156 7.78125 18.890625 C 7.84375 18.710938 7.921875 18.503906 8.015625 18.265625 C 8.078125 18.097656 8.203125 17.96875 8.390625 17.875 C 8.578125 17.789062 8.769531 17.78125 8.96875 17.84375 C 9.164062 17.9375 9.300781 18.078125 9.375 18.265625 C 9.457031 18.453125 9.460938 18.632812 9.390625 18.8125 C 8.953125 19.914062 8.578125 20.738281 8.265625 21.28125 C 7.960938 21.820312 7.632812 22.101562 7.28125 22.125 C 7.1875 22.132812 7.085938 22.113281 6.984375 22.0625 C 6.773438 22 6.601562 21.859375 6.46875 21.640625 C 6.34375 21.429688 6.273438 21.023438 6.265625 20.421875 C 6.253906 19.816406 6.3125 18.914062 6.4375 17.71875 C 6.570312 16.519531 6.796875 14.90625 7.109375 12.875 C 7.429688 10.851562 7.863281 8.316406 8.40625 5.265625 C 8.945312 2.222656 9.632812 -1.472656 10.46875 -5.828125 C 9.050781 -5.910156 7.960938 -6.207031 7.203125 -6.71875 C 6.441406 -7.226562 5.957031 -7.773438 5.75 -8.359375 C 5.40625 -9.234375 5.597656 -9.988281 6.328125 -10.625 C 6.847656 -11.09375 7.550781 -11.347656 8.4375 -11.390625 C 9.320312 -11.429688 10.328125 -11.285156 11.453125 -10.953125 C 11.578125 -11.597656 11.703125 -12.253906 11.828125 -12.921875 C 11.960938 -13.585938 12.09375 -14.273438 12.21875 -14.984375 C 12.695312 -17.316406 13.144531 -19.570312 13.5625 -21.75 C 13.976562 -23.9375 14.359375 -25.957031 14.703125 -27.8125 C 15.046875 -29.675781 15.328125 -31.265625 15.546875 -32.578125 C 15.585938 -32.785156 15.6875 -32.953125 15.84375 -33.078125 C 16.007812 -33.203125 16.195312 -33.242188 16.40625 -33.203125 C 16.601562 -33.160156 16.753906 -33.054688 16.859375 -32.890625 C 16.972656 -32.734375 17.023438 -32.550781 17.015625 -32.34375 C 16.773438 -31.019531 16.484375 -29.425781 16.140625 -27.5625 C 15.796875 -25.707031 15.414062 -23.6875 15 -21.5 C 14.582031 -19.3125 14.148438 -17.046875 13.703125 -14.703125 C 13.546875 -14.015625 13.398438 -13.316406 13.265625 -12.609375 C 13.140625 -11.898438 13.007812 -11.164062 12.875 -10.40625 C 13.53125 -10.132812 14.203125 -9.820312 14.890625 -9.46875 C 15.523438 -9.113281 16.175781 -8.691406 16.84375 -8.203125 C 18.53125 -8.785156 20.253906 -9.640625 22.015625 -10.765625 C 23.773438 -11.898438 25.476562 -13.359375 27.125 -15.140625 C 28.78125 -16.929688 30.273438 -19.101562 31.609375 -21.65625 C 32.617188 -23.550781 33.347656 -25.398438 33.796875 -27.203125 C 34.242188 -29.003906 34.398438 -30.65625 34.265625 -32.15625 C 34.140625 -33.65625 33.734375 -34.914062 33.046875 -35.9375 C 31.460938 -38.175781 28.625 -39.050781 24.53125 -38.5625 C 22.46875 -38.300781 20.367188 -37.757812 18.234375 -36.9375 C 16.109375 -36.125 14.070312 -35.097656 12.125 -33.859375 C 10.175781 -32.617188 8.445312 -31.257812 6.9375 -29.78125 C 5.425781 -28.300781 4.289062 -26.78125 3.53125 -25.21875 C 2.03125 -22.257812 2 -19.523438 3.4375 -17.015625 C 3.519531 -16.828125 3.535156 -16.632812 3.484375 -16.4375 C 3.429688 -16.238281 3.316406 -16.085938 3.140625 -15.984375 C 2.960938 -15.898438 2.773438 -15.882812 2.578125 -15.9375 C 2.378906 -15.988281 2.222656 -16.101562 2.109375 -16.28125 C 0.410156 -19.28125 0.429688 -22.484375 2.171875 -25.890625 C 3.015625 -27.585938 4.222656 -29.21875 5.796875 -30.78125 C 7.378906 -32.351562 9.1875 -33.785156 11.21875 -35.078125 C 13.257812 -36.378906 15.40625 -37.460938 17.65625 -38.328125 C 19.914062 -39.191406 22.15625 -39.769531 24.375 -40.0625 C 26.300781 -40.28125 27.921875 -40.234375 29.234375 -39.921875 C 30.546875 -39.617188 31.601562 -39.171875 32.40625 -38.578125 C 33.21875 -37.992188 33.832031 -37.390625 34.25 -36.765625 C 35.070312 -35.585938 35.5625 -34.160156 35.71875 -32.484375 C 35.882812 -30.816406 35.734375 -29 35.265625 -27.03125 C 34.796875 -25.0625 34.007812 -23.03125 32.90625 -20.9375 C 31.851562 -18.914062 30.566406 -16.992188 29.046875 -15.171875 C 27.535156 -13.359375 25.894531 -11.789062 24.125 -10.46875 C 22.25 -9.007812 20.285156 -7.882812 18.234375 -7.09375 C 19.691406 -5.851562 21.070312 -4.460938 22.375 -2.921875 C 23.675781 -1.378906 24.921875 0.148438 26.109375 1.671875 C 27.191406 3.054688 28.253906 4.363281 29.296875 5.59375 C 30.347656 6.820312 31.351562 7.816406 32.3125 8.578125 C 33.28125 9.335938 34.195312 9.710938 35.0625 9.703125 C 36.144531 9.671875 37.21875 8.941406 38.28125 7.515625 C 38.40625 7.367188 38.5625 7.273438 38.75 7.234375 C 38.9375 7.203125 39.125 7.242188 39.3125 7.359375 Z M 7.125 -8.84375 C 7.269531 -8.488281 7.644531 -8.15625 8.25 -7.84375 C 8.851562 -7.53125 9.679688 -7.332031 10.734375 -7.25 C 10.890625 -7.957031 11.039062 -8.679688 11.1875 -9.421875 C 10.71875 -9.585938 10.253906 -9.71875 9.796875 -9.8125 C 9.335938 -9.90625 8.914062 -9.941406 8.53125 -9.921875 C 7.988281 -9.890625 7.570312 -9.753906 7.28125 -9.515625 C 7.082031 -9.316406 7.03125 -9.09375 7.125 -8.84375 Z M 12.265625 -7.28125 C 13.160156 -7.332031 14.066406 -7.46875 14.984375 -7.6875 C 14.710938 -7.851562 14.445312 -8.007812 14.1875 -8.15625 C 13.945312 -8.269531 13.691406 -8.390625 13.421875 -8.515625 C 13.160156 -8.648438 12.867188 -8.785156 12.546875 -8.921875 C 12.515625 -8.628906 12.472656 -8.347656 12.421875 -8.078125 C 12.367188 -7.804688 12.316406 -7.539062 12.265625 -7.28125 Z M 12.265625 -7.28125 "/></g></g><g style="fill:#ffffff;fill-opacity:1;"><g transform="translate(147.164762, 150.475583)"><path style="stroke:none" d="M 14.9375 -9.078125 C 15.101562 -8.984375 15.21875 -8.835938 15.28125 -8.640625 C 15.34375 -8.441406 15.320312 -8.257812 15.21875 -8.09375 C 15.03125 -7.75 14.726562 -7.21875 14.3125 -6.5 C 13.90625 -5.789062 13.40625 -5.003906 12.8125 -4.140625 C 12.226562 -3.273438 11.597656 -2.429688 10.921875 -1.609375 C 10.253906 -0.796875 9.585938 -0.113281 8.921875 0.4375 C 8.253906 0.988281 7.628906 1.28125 7.046875 1.3125 C 6.835938 1.320312 6.65625 1.289062 6.5 1.21875 C 5.851562 1.007812 5.421875 0.4375 5.203125 -0.5 C 4.992188 -1.4375 4.984375 -2.8125 5.171875 -4.625 C 4.859375 -4.175781 4.519531 -3.707031 4.15625 -3.21875 C 3.800781 -2.738281 3.410156 -2.296875 2.984375 -1.890625 C 2.347656 -1.296875 1.796875 -1.035156 1.328125 -1.109375 C 0.859375 -1.179688 0.546875 -1.296875 0.390625 -1.453125 C -0.0859375 -1.804688 -0.40625 -2.375 -0.5625 -3.15625 C -0.71875 -3.9375 -0.722656 -4.8125 -0.578125 -5.78125 C -0.429688 -6.75 -0.128906 -7.691406 0.328125 -8.609375 C 0.429688 -8.796875 0.582031 -8.921875 0.78125 -8.984375 C 0.988281 -9.046875 1.1875 -9.03125 1.375 -8.9375 C 1.550781 -8.851562 1.671875 -8.710938 1.734375 -8.515625 C 1.796875 -8.328125 1.78125 -8.140625 1.6875 -7.953125 C 1.257812 -7.148438 0.988281 -6.367188 0.875 -5.609375 C 0.757812 -4.859375 0.75 -4.210938 0.84375 -3.671875 C 0.9375 -3.140625 1.078125 -2.796875 1.265625 -2.640625 C 1.367188 -2.578125 1.5 -2.609375 1.65625 -2.734375 C 1.820312 -2.859375 1.929688 -2.9375 1.984375 -2.96875 C 2.453125 -3.414062 2.882812 -3.929688 3.28125 -4.515625 C 3.6875 -5.109375 4.035156 -5.644531 4.328125 -6.125 C 4.710938 -6.707031 5.03125 -7.140625 5.28125 -7.421875 C 5.539062 -7.703125 5.847656 -7.773438 6.203125 -7.640625 C 6.566406 -7.523438 6.757812 -7.253906 6.78125 -6.828125 C 6.800781 -6.398438 6.769531 -5.804688 6.6875 -5.046875 C 6.5 -3.546875 6.4375 -2.453125 6.5 -1.765625 C 6.5625 -1.085938 6.648438 -0.65625 6.765625 -0.46875 C 6.878906 -0.28125 6.953125 -0.1875 6.984375 -0.1875 C 7.285156 -0.0820312 8.097656 -0.738281 9.421875 -2.15625 C 10.742188 -3.570312 12.242188 -5.785156 13.921875 -8.796875 C 14.015625 -8.984375 14.160156 -9.101562 14.359375 -9.15625 C 14.566406 -9.207031 14.757812 -9.179688 14.9375 -9.078125 Z M 14.9375 -9.078125 "/></g></g><g style="fill:#ffffff;fill-opacity:1;"><g transform="translate(160.949418, 149.782952)"><path style="stroke:none" d="M 15.078125 -9.359375 C 15.265625 -9.265625 15.390625 -9.117188 15.453125 -8.921875 C 15.515625 -8.734375 15.5 -8.550781 15.40625 -8.375 C 14.3125 -6.1875 13.304688 -4.5 12.390625 -3.3125 C 11.484375 -2.125 10.523438 -1.566406 9.515625 -1.640625 C 8.234375 -1.734375 7.148438 -3.066406 6.265625 -5.640625 C 5.972656 -6.472656 5.722656 -7.066406 5.515625 -7.421875 C 5.304688 -7.785156 5.140625 -8.007812 5.015625 -8.09375 C 4.898438 -8.1875 4.816406 -8.234375 4.765625 -8.234375 C 4.679688 -8.242188 4.53125 -8.15625 4.3125 -7.96875 C 4.09375 -7.78125 3.78125 -7.367188 3.375 -6.734375 C 2.96875 -6.097656 2.472656 -5.113281 1.890625 -3.78125 C 1.316406 -2.457031 0.625 -0.640625 -0.1875 1.671875 C -0.300781 1.992188 -0.507812 2.160156 -0.8125 2.171875 C -0.894531 2.171875 -0.960938 2.160156 -1.015625 2.140625 C -1.453125 2.054688 -1.660156 1.789062 -1.640625 1.34375 C -1.554688 0.289062 -1.378906 -0.929688 -1.109375 -2.328125 C -0.847656 -3.734375 -0.554688 -5.160156 -0.234375 -6.609375 C 0.0859375 -8.066406 0.382812 -9.375 0.65625 -10.53125 C 0.726562 -10.789062 0.789062 -11.03125 0.84375 -11.25 C 0.894531 -11.476562 0.941406 -11.691406 0.984375 -11.890625 C 1.054688 -12.097656 1.175781 -12.25 1.34375 -12.34375 C 1.519531 -12.445312 1.695312 -12.476562 1.875 -12.4375 C 2.09375 -12.40625 2.253906 -12.300781 2.359375 -12.125 C 2.472656 -11.945312 2.492188 -11.753906 2.421875 -11.546875 C 2.378906 -11.328125 2.332031 -11.109375 2.28125 -10.890625 C 2.226562 -10.679688 2.175781 -10.441406 2.125 -10.171875 C 1.96875 -9.503906 1.796875 -8.765625 1.609375 -7.953125 C 1.421875 -7.140625 1.234375 -6.320312 1.046875 -5.5 C 1.835938 -7.175781 2.523438 -8.296875 3.109375 -8.859375 C 3.691406 -9.429688 4.25 -9.722656 4.78125 -9.734375 C 5.488281 -9.710938 6.066406 -9.335938 6.515625 -8.609375 C 6.960938 -7.890625 7.351562 -7.054688 7.6875 -6.109375 C 8.132812 -4.785156 8.535156 -3.953125 8.890625 -3.609375 C 9.242188 -3.273438 9.5 -3.109375 9.65625 -3.109375 C 9.988281 -3.078125 10.367188 -3.28125 10.796875 -3.71875 C 11.222656 -4.164062 11.640625 -4.726562 12.046875 -5.40625 C 12.460938 -6.09375 12.851562 -6.765625 13.21875 -7.421875 C 13.59375 -8.078125 13.875 -8.617188 14.0625 -9.046875 C 14.144531 -9.222656 14.289062 -9.34375 14.5 -9.40625 C 14.707031 -9.46875 14.898438 -9.453125 15.078125 -9.359375 Z M 15.078125 -9.359375 "/></g></g><g style="fill:#ffffff;fill-opacity:1;"><g transform="translate(174.695571, 149.092255)"><path style="stroke:none" d="M 18.390625 -9.421875 C 18.535156 -9.265625 18.585938 -9.082031 18.546875 -8.875 C 18.503906 -8.664062 18.40625 -8.507812 18.25 -8.40625 C 16.445312 -7.082031 14.632812 -5.660156 12.8125 -4.140625 C 11 -2.617188 9.238281 -0.914062 7.53125 0.96875 C 6.476562 10.101562 5.191406 17.539062 3.671875 23.28125 C 3.347656 24.457031 2.988281 25.648438 2.59375 26.859375 C 2.207031 28.078125 1.773438 29.21875 1.296875 30.28125 C 0.828125 31.34375 0.316406 32.242188 -0.234375 32.984375 C -0.796875 33.722656 -1.378906 34.195312 -1.984375 34.40625 C -2.160156 34.46875 -2.351562 34.503906 -2.5625 34.515625 C -3.15625 34.546875 -3.679688 34.316406 -4.140625 33.828125 C -4.703125 33.148438 -5.097656 32.113281 -5.328125 30.71875 C -5.566406 29.320312 -5.617188 27.664062 -5.484375 25.75 C -5.347656 23.84375 -5.007812 21.804688 -4.46875 19.640625 C -3.925781 17.472656 -3.15625 15.3125 -2.15625 13.15625 C -0.945312 10.550781 0.351562 8.195312 1.75 6.09375 C 3.15625 3.988281 4.625 2.054688 6.15625 0.296875 C 6.40625 -2.128906 6.660156 -4.671875 6.921875 -7.328125 C 6.609375 -6.796875 6.273438 -6.257812 5.921875 -5.71875 C 5.566406 -5.175781 5.207031 -4.664062 4.84375 -4.1875 C 4.363281 -3.539062 3.910156 -3.117188 3.484375 -2.921875 C 3.054688 -2.722656 2.6875 -2.640625 2.375 -2.671875 C 2.070312 -2.710938 1.835938 -2.78125 1.671875 -2.875 C 1.085938 -3.175781 0.671875 -3.75 0.421875 -4.59375 C 0.171875 -5.445312 0.09375 -6.46875 0.1875 -7.65625 C 0.289062 -8.84375 0.566406 -10.085938 1.015625 -11.390625 C 1.085938 -11.578125 1.21875 -11.710938 1.40625 -11.796875 C 1.59375 -11.878906 1.773438 -11.890625 1.953125 -11.828125 C 2.140625 -11.765625 2.28125 -11.644531 2.375 -11.46875 C 2.46875 -11.289062 2.484375 -11.097656 2.421875 -10.890625 C 1.972656 -9.648438 1.710938 -8.546875 1.640625 -7.578125 C 1.578125 -6.617188 1.625 -5.835938 1.78125 -5.234375 C 1.9375 -4.640625 2.132812 -4.285156 2.375 -4.171875 C 2.664062 -4.015625 3.085938 -4.304688 3.640625 -5.046875 C 4.128906 -5.691406 4.609375 -6.394531 5.078125 -7.15625 C 5.546875 -7.925781 5.976562 -8.660156 6.375 -9.359375 C 6.769531 -10.066406 7.082031 -10.644531 7.3125 -11.09375 C 7.5 -11.457031 7.785156 -11.585938 8.171875 -11.484375 C 8.566406 -11.347656 8.75 -11.085938 8.71875 -10.703125 C 8.445312 -7.484375 8.148438 -4.421875 7.828125 -1.515625 C 9.367188 -3.109375 10.941406 -4.5625 12.546875 -5.875 C 14.160156 -7.1875 15.773438 -8.425781 17.390625 -9.59375 C 17.546875 -9.695312 17.722656 -9.734375 17.921875 -9.703125 C 18.117188 -9.679688 18.273438 -9.585938 18.390625 -9.421875 Z M 2.234375 22.9375 C 3.617188 17.71875 4.820312 11.082031 5.84375 3.03125 C 4.625 4.53125 3.453125 6.160156 2.328125 7.921875 C 1.203125 9.691406 0.15625 11.644531 -0.8125 13.78125 C -1.851562 16.070312 -2.628906 18.269531 -3.140625 20.375 C -3.660156 22.488281 -3.960938 24.410156 -4.046875 26.140625 C -4.128906 27.867188 -4.066406 29.3125 -3.859375 30.46875 C -3.660156 31.632812 -3.382812 32.410156 -3.03125 32.796875 C -2.894531 32.941406 -2.78125 33.015625 -2.6875 33.015625 C -2.59375 33.023438 -2.523438 33.019531 -2.484375 33 C -2.378906 32.96875 -2.191406 32.832031 -1.921875 32.59375 C -1.648438 32.363281 -1.296875 31.914062 -0.859375 31.25 C -0.429688 30.582031 0.0390625 29.582031 0.5625 28.25 C 1.082031 26.914062 1.640625 25.144531 2.234375 22.9375 Z M 2.234375 22.9375 "/></g></g><g style="fill:#ffffff;fill-opacity:1;"><g transform="translate(191.753131, 148.235172)"><path style="stroke:none" d="M 14.9375 -9.078125 C 15.101562 -8.984375 15.21875 -8.835938 15.28125 -8.640625 C 15.34375 -8.441406 15.320312 -8.257812 15.21875 -8.09375 C 15.03125 -7.75 14.726562 -7.21875 14.3125 -6.5 C 13.90625 -5.789062 13.40625 -5.003906 12.8125 -4.140625 C 12.226562 -3.273438 11.597656 -2.429688 10.921875 -1.609375 C 10.253906 -0.796875 9.585938 -0.113281 8.921875 0.4375 C 8.253906 0.988281 7.628906 1.28125 7.046875 1.3125 C 6.835938 1.320312 6.65625 1.289062 6.5 1.21875 C 5.851562 1.007812 5.421875 0.4375 5.203125 -0.5 C 4.992188 -1.4375 4.984375 -2.8125 5.171875 -4.625 C 4.859375 -4.175781 4.519531 -3.707031 4.15625 -3.21875 C 3.800781 -2.738281 3.410156 -2.296875 2.984375 -1.890625 C 2.347656 -1.296875 1.796875 -1.035156 1.328125 -1.109375 C 0.859375 -1.179688 0.546875 -1.296875 0.390625 -1.453125 C -0.0859375 -1.804688 -0.40625 -2.375 -0.5625 -3.15625 C -0.71875 -3.9375 -0.722656 -4.8125 -0.578125 -5.78125 C -0.429688 -6.75 -0.128906 -7.691406 0.328125 -8.609375 C 0.429688 -8.796875 0.582031 -8.921875 0.78125 -8.984375 C 0.988281 -9.046875 1.1875 -9.03125 1.375 -8.9375 C 1.550781 -8.851562 1.671875 -8.710938 1.734375 -8.515625 C 1.796875 -8.328125 1.78125 -8.140625 1.6875 -7.953125 C 1.257812 -7.148438 0.988281 -6.367188 0.875 -5.609375 C 0.757812 -4.859375 0.75 -4.210938 0.84375 -3.671875 C 0.9375 -3.140625 1.078125 -2.796875 1.265625 -2.640625 C 1.367188 -2.578125 1.5 -2.609375 1.65625 -2.734375 C 1.820312 -2.859375 1.929688 -2.9375 1.984375 -2.96875 C 2.453125 -3.414062 2.882812 -3.929688 3.28125 -4.515625 C 3.6875 -5.109375 4.035156 -5.644531 4.328125 -6.125 C 4.710938 -6.707031 5.03125 -7.140625 5.28125 -7.421875 C 5.539062 -7.703125 5.847656 -7.773438 6.203125 -7.640625 C 6.566406 -7.523438 6.757812 -7.253906 6.78125 -6.828125 C 6.800781 -6.398438 6.769531 -5.804688 6.6875 -5.046875 C 6.5 -3.546875 6.4375 -2.453125 6.5 -1.765625 C 6.5625 -1.085938 6.648438 -0.65625 6.765625 -0.46875 C 6.878906 -0.28125 6.953125 -0.1875 6.984375 -0.1875 C 7.285156 -0.0820312 8.097656 -0.738281 9.421875 -2.15625 C 10.742188 -3.570312 12.242188 -5.785156 13.921875 -8.796875 C 14.015625 -8.984375 14.160156 -9.101562 14.359375 -9.15625 C 14.566406 -9.207031 14.757812 -9.179688 14.9375 -9.078125 Z M 14.9375 -9.078125 "/></g></g><g clip-rule="nonzero" clip-path="url(#ea2202d7e0)"><g clip-rule="nonzero" clip-path="url(#9d576bb83b)"><g clip-rule="nonzero" clip-path="url(#c6188181f5)"><path style=" stroke:none;fill-rule:evenodd;fill:#ffffff;fill-opacity:1;" d="M 25.519531 144.546875 C 25.3125 144.855469 24.898438 144.941406 24.589844 144.730469 C 24.277344 144.523438 24.195312 144.109375 24.402344 143.796875 C 25.691406 141.875 26.859375 140.371094 28.160156 139.109375 L 28.199219 139.078125 C 29.496094 137.824219 30.910156 136.828125 32.6875 135.914062 C 44.066406 130.058594 60.785156 132.671875 77.085938 135.21875 C 99.746094 138.757812 121.578125 142.167969 126.058594 122.066406 C 126.136719 121.703125 126.496094 121.472656 126.863281 121.554688 C 127.226562 121.632812 127.453125 121.992188 127.371094 122.355469 C 122.617188 143.691406 100.175781 140.183594 76.882812 136.542969 C 60.792969 134.03125 44.289062 131.449219 33.296875 137.109375 C 31.640625 137.960938 30.324219 138.882812 29.128906 140.039062 L 29.09375 140.074219 C 27.878906 141.253906 26.761719 142.691406 25.523438 144.546875 Z M 25.519531 144.546875 "/></g></g></g><g clip-rule="nonzero" clip-path="url(#59a3b3acdf)"><g clip-rule="nonzero" clip-path="url(#e41615cc37)"><g clip-rule="nonzero" clip-path="url(#e16337a680)"><path style=" stroke:none;fill-rule:evenodd;fill:#ffffff;fill-opacity:1;" d="M 250.851562 218.652344 C 250.640625 218.9375 250.234375 219 249.949219 218.789062 C 249.660156 218.574219 249.601562 218.171875 249.8125 217.882812 C 251.132812 216.09375 252.320312 214.703125 253.621094 213.554688 L 253.660156 213.523438 C 254.957031 212.378906 256.359375 211.484375 258.101562 210.6875 C 269.273438 205.574219 285.191406 208.8125 300.710938 211.96875 C 322.285156 216.359375 343.074219 220.589844 348.253906 201.507812 C 348.34375 201.164062 348.699219 200.957031 349.046875 201.050781 C 349.390625 201.144531 349.59375 201.5 349.5 201.84375 C 344.003906 222.09375 322.636719 217.746094 300.457031 213.234375 C 285.136719 210.113281 269.425781 206.917969 258.632812 211.859375 C 257.011719 212.601562 255.707031 213.433594 254.507812 214.488281 L 254.476562 214.519531 C 253.257812 215.597656 252.125 216.925781 250.855469 218.648438 Z M 250.851562 218.652344 "/></g></g></g><g style="fill:#ffffff;fill-opacity:1;"><g transform="translate(112.79795, 277.126182)"><path style="stroke:none" d="M 3.921875 0.046875 C 3.285156 0.046875 2.722656 -0.125 2.234375 -0.46875 C 1.742188 -0.820312 1.363281 -1.316406 1.09375 -1.953125 C 0.820312 -2.597656 0.6875 -3.347656 0.6875 -4.203125 C 0.6875 -5.046875 0.820312 -5.789062 1.09375 -6.4375 C 1.363281 -7.082031 1.742188 -7.578125 2.234375 -7.921875 C 2.722656 -8.273438 3.285156 -8.453125 3.921875 -8.453125 C 4.566406 -8.453125 5.128906 -8.273438 5.609375 -7.921875 C 6.097656 -7.578125 6.476562 -7.082031 6.75 -6.4375 C 7.019531 -5.789062 7.15625 -5.046875 7.15625 -4.203125 C 7.15625 -3.347656 7.019531 -2.597656 6.75 -1.953125 C 6.476562 -1.316406 6.097656 -0.820312 5.609375 -0.46875 C 5.128906 -0.125 4.566406 0.046875 3.921875 0.046875 Z M 3.921875 -0.328125 C 4.484375 -0.328125 4.976562 -0.484375 5.40625 -0.796875 C 5.84375 -1.109375 6.175781 -1.554688 6.40625 -2.140625 C 6.644531 -2.722656 6.765625 -3.410156 6.765625 -4.203125 C 6.765625 -4.992188 6.644531 -5.679688 6.40625 -6.265625 C 6.175781 -6.847656 5.84375 -7.296875 5.40625 -7.609375 C 4.976562 -7.921875 4.484375 -8.078125 3.921875 -8.078125 C 3.359375 -8.078125 2.863281 -7.921875 2.4375 -7.609375 C 2.007812 -7.296875 1.675781 -6.847656 1.4375 -6.265625 C 1.207031 -5.679688 1.09375 -4.992188 1.09375 -4.203125 C 1.09375 -3.410156 1.207031 -2.722656 1.4375 -2.140625 C 1.675781 -1.554688 2.007812 -1.109375 2.4375 -0.796875 C 2.863281 -0.484375 3.359375 -0.328125 3.921875 -0.328125 Z M 3.921875 -0.328125 "/></g></g><g style="fill:#ffffff;fill-opacity:1;"><g transform="translate(130.250166, 277.126182)"><path style="stroke:none" d="M 4.890625 -4.390625 C 5.523438 -4.253906 6.015625 -4 6.359375 -3.625 C 6.710938 -3.257812 6.890625 -2.8125 6.890625 -2.28125 C 6.890625 -1.5625 6.609375 -0.992188 6.046875 -0.578125 C 5.492188 -0.160156 4.726562 0.046875 3.75 0.046875 C 2.78125 0.046875 2.019531 -0.160156 1.46875 -0.578125 C 0.914062 -0.992188 0.640625 -1.5625 0.640625 -2.28125 C 0.640625 -2.820312 0.804688 -3.273438 1.140625 -3.640625 C 1.484375 -4.003906 1.972656 -4.253906 2.609375 -4.390625 C 2.078125 -4.515625 1.664062 -4.742188 1.375 -5.078125 C 1.082031 -5.421875 0.9375 -5.832031 0.9375 -6.3125 C 0.9375 -6.96875 1.1875 -7.488281 1.6875 -7.875 C 2.195312 -8.257812 2.882812 -8.453125 3.75 -8.453125 C 4.613281 -8.453125 5.300781 -8.257812 5.8125 -7.875 C 6.332031 -7.488281 6.59375 -6.96875 6.59375 -6.3125 C 6.59375 -5.832031 6.445312 -5.421875 6.15625 -5.078125 C 5.863281 -4.742188 5.441406 -4.515625 4.890625 -4.390625 Z M 1.34375 -6.3125 C 1.34375 -5.78125 1.550781 -5.351562 1.96875 -5.03125 C 2.394531 -4.71875 2.988281 -4.5625 3.75 -4.5625 C 4.507812 -4.5625 5.101562 -4.71875 5.53125 -5.03125 C 5.96875 -5.351562 6.1875 -5.78125 6.1875 -6.3125 C 6.1875 -6.851562 5.96875 -7.285156 5.53125 -7.609375 C 5.09375 -7.929688 4.5 -8.09375 3.75 -8.09375 C 3.007812 -8.09375 2.421875 -7.929688 1.984375 -7.609375 C 1.554688 -7.285156 1.34375 -6.851562 1.34375 -6.3125 Z M 3.75 -0.3125 C 4.613281 -0.3125 5.285156 -0.488281 5.765625 -0.84375 C 6.242188 -1.195312 6.484375 -1.671875 6.484375 -2.265625 C 6.484375 -2.867188 6.242188 -3.34375 5.765625 -3.6875 C 5.285156 -4.039062 4.613281 -4.21875 3.75 -4.21875 C 2.894531 -4.21875 2.226562 -4.039062 1.75 -3.6875 C 1.28125 -3.34375 1.046875 -2.867188 1.046875 -2.265625 C 1.046875 -1.660156 1.28125 -1.179688 1.75 -0.828125 C 2.226562 -0.484375 2.894531 -0.3125 3.75 -0.3125 Z M 3.75 -0.3125 "/></g></g><g style="fill:#ffffff;fill-opacity:1;"><g transform="translate(147.366715, 277.126182)"><path style="stroke:none" d="M 3.703125 -10.109375 L 4.078125 -10.109375 L 0.125 1.203125 L -0.25 1.203125 Z M 3.703125 -10.109375 "/></g></g><g style="fill:#ffffff;fill-opacity:1;"><g transform="translate(160.671008, 277.126182)"><path style="stroke:none" d="M 2.625 -8.40625 L 2.625 0 L 2.234375 0 L 2.234375 -8.03125 L 0.125 -8.03125 L 0.125 -8.40625 Z M 2.625 -8.40625 "/></g></g><g style="fill:#ffffff;fill-opacity:1;"><g transform="translate(174.430857, 277.126182)"><path style="stroke:none" d="M 6.34375 -8.40625 L 6.34375 -8.109375 L 2.640625 0 L 2.203125 0 L 5.875 -8.03125 L 0.8125 -8.03125 L 0.8125 -6.375 L 0.421875 -6.375 L 0.421875 -8.40625 Z M 6.34375 -8.40625 "/></g></g><g style="fill:#ffffff;fill-opacity:1;"><g transform="translate(190.924012, 277.126182)"><path style="stroke:none" d="M 3.703125 -10.109375 L 4.078125 -10.109375 L 0.125 1.203125 L -0.25 1.203125 Z M 3.703125 -10.109375 "/></g></g><g style="fill:#ffffff;fill-opacity:1;"><g transform="translate(204.228306, 277.126182)"><path style="stroke:none" d="M 6.1875 -0.375 L 6.1875 0 L 0.5 0 L 0.5 -0.28125 L 4.109375 -3.90625 C 4.597656 -4.394531 4.925781 -4.8125 5.09375 -5.15625 C 5.269531 -5.507812 5.359375 -5.867188 5.359375 -6.234375 C 5.359375 -6.804688 5.160156 -7.253906 4.765625 -7.578125 C 4.378906 -7.910156 3.828125 -8.078125 3.109375 -8.078125 C 2.546875 -8.078125 2.054688 -7.992188 1.640625 -7.828125 C 1.234375 -7.660156 0.882812 -7.40625 0.59375 -7.0625 L 0.3125 -7.328125 C 0.957031 -8.078125 1.894531 -8.453125 3.125 -8.453125 C 3.925781 -8.453125 4.5625 -8.253906 5.03125 -7.859375 C 5.507812 -7.460938 5.75 -6.929688 5.75 -6.265625 C 5.75 -5.835938 5.648438 -5.425781 5.453125 -5.03125 C 5.265625 -4.644531 4.910156 -4.191406 4.390625 -3.671875 L 1.109375 -0.375 Z M 6.1875 -0.375 "/></g></g><g style="fill:#ffffff;fill-opacity:1;"><g transform="translate(220.517665, 277.126182)"><path style="stroke:none" d="M 3.921875 0.046875 C 3.285156 0.046875 2.722656 -0.125 2.234375 -0.46875 C 1.742188 -0.820312 1.363281 -1.316406 1.09375 -1.953125 C 0.820312 -2.597656 0.6875 -3.347656 0.6875 -4.203125 C 0.6875 -5.046875 0.820312 -5.789062 1.09375 -6.4375 C 1.363281 -7.082031 1.742188 -7.578125 2.234375 -7.921875 C 2.722656 -8.273438 3.285156 -8.453125 3.921875 -8.453125 C 4.566406 -8.453125 5.128906 -8.273438 5.609375 -7.921875 C 6.097656 -7.578125 6.476562 -7.082031 6.75 -6.4375 C 7.019531 -5.789062 7.15625 -5.046875 7.15625 -4.203125 C 7.15625 -3.347656 7.019531 -2.597656 6.75 -1.953125 C 6.476562 -1.316406 6.097656 -0.820312 5.609375 -0.46875 C 5.128906 -0.125 4.566406 0.046875 3.921875 0.046875 Z M 3.921875 -0.328125 C 4.484375 -0.328125 4.976562 -0.484375 5.40625 -0.796875 C 5.84375 -1.109375 6.175781 -1.554688 6.40625 -2.140625 C 6.644531 -2.722656 6.765625 -3.410156 6.765625 -4.203125 C 6.765625 -4.992188 6.644531 -5.679688 6.40625 -6.265625 C 6.175781 -6.847656 5.84375 -7.296875 5.40625 -7.609375 C 4.976562 -7.921875 4.484375 -8.078125 3.921875 -8.078125 C 3.359375 -8.078125 2.863281 -7.921875 2.4375 -7.609375 C 2.007812 -7.296875 1.675781 -6.847656 1.4375 -6.265625 C 1.207031 -5.679688 1.09375 -4.992188 1.09375 -4.203125 C 1.09375 -3.410156 1.207031 -2.722656 1.4375 -2.140625 C 1.675781 -1.554688 2.007812 -1.109375 2.4375 -0.796875 C 2.863281 -0.484375 3.359375 -0.328125 3.921875 -0.328125 Z M 3.921875 -0.328125 "/></g></g><g style="fill:#ffffff;fill-opacity:1;"><g transform="translate(237.969881, 277.126182)"><path style="stroke:none" d="M 6.1875 -0.375 L 6.1875 0 L 0.5 0 L 0.5 -0.28125 L 4.109375 -3.90625 C 4.597656 -4.394531 4.925781 -4.8125 5.09375 -5.15625 C 5.269531 -5.507812 5.359375 -5.867188 5.359375 -6.234375 C 5.359375 -6.804688 5.160156 -7.253906 4.765625 -7.578125 C 4.378906 -7.910156 3.828125 -8.078125 3.109375 -8.078125 C 2.546875 -8.078125 2.054688 -7.992188 1.640625 -7.828125 C 1.234375 -7.660156 0.882812 -7.40625 0.59375 -7.0625 L 0.3125 -7.328125 C 0.957031 -8.078125 1.894531 -8.453125 3.125 -8.453125 C 3.925781 -8.453125 4.5625 -8.253906 5.03125 -7.859375 C 5.507812 -7.460938 5.75 -6.929688 5.75 -6.265625 C 5.75 -5.835938 5.648438 -5.425781 5.453125 -5.03125 C 5.265625 -4.644531 4.910156 -4.191406 4.390625 -3.671875 L 1.109375 -0.375 Z M 6.1875 -0.375 "/></g></g><g style="fill:#ffffff;fill-opacity:1;"><g transform="translate(254.25924, 277.126182)"><path style="stroke:none" d="M 2.609375 -4.8125 C 3.847656 -4.8125 4.738281 -4.597656 5.28125 -4.171875 C 5.832031 -3.753906 6.109375 -3.15625 6.109375 -2.375 C 6.109375 -1.914062 6 -1.5 5.78125 -1.125 C 5.5625 -0.757812 5.238281 -0.472656 4.8125 -0.265625 C 4.382812 -0.0546875 3.863281 0.046875 3.25 0.046875 C 2.644531 0.046875 2.078125 -0.0546875 1.546875 -0.265625 C 1.015625 -0.484375 0.613281 -0.765625 0.34375 -1.109375 L 0.578125 -1.40625 C 0.828125 -1.082031 1.191406 -0.820312 1.671875 -0.625 C 2.148438 -0.425781 2.675781 -0.328125 3.25 -0.328125 C 4.039062 -0.328125 4.644531 -0.515625 5.0625 -0.890625 C 5.488281 -1.265625 5.703125 -1.757812 5.703125 -2.375 C 5.703125 -3.050781 5.460938 -3.5625 4.984375 -3.90625 C 4.503906 -4.257812 3.6875 -4.4375 2.53125 -4.4375 L 0.90625 -4.4375 L 1.34375 -8.40625 L 5.671875 -8.40625 L 5.671875 -8.03125 L 1.6875 -8.03125 L 1.3125 -4.8125 Z M 2.609375 -4.8125 "/></g></g><g style="fill:#ffffff;fill-opacity:1;"><g transform="translate(208.266494, 169.524152)"><path style="stroke:none" d="M 14.625 -6.453125 C 14.894531 -6.023438 14.851562 -5.445312 14.5 -4.71875 C 14.144531 -4 13.503906 -3.207031 12.578125 -2.34375 C 11.992188 -1.800781 11.273438 -1.253906 10.421875 -0.703125 C 10.679688 -0.203125 10.957031 0.273438 11.25 0.734375 C 11.550781 1.191406 11.882812 1.617188 12.25 2.015625 C 12.382812 2.171875 12.445312 2.34375 12.4375 2.53125 C 12.4375 2.71875 12.363281 2.867188 12.21875 2.984375 C 12.101562 3.085938 11.960938 3.144531 11.796875 3.15625 C 11.585938 3.164062 11.410156 3.09375 11.265625 2.9375 C 10.535156 2.070312 9.875 1.078125 9.28125 -0.046875 C 8.25 0.503906 7.175781 0.960938 6.0625 1.328125 C 4.957031 1.703125 3.941406 1.898438 3.015625 1.921875 C 2.085938 1.953125 1.390625 1.742188 0.921875 1.296875 C -0.316406 0.0664062 0.6875 -2.296875 3.9375 -5.796875 C 4.53125 -6.410156 5.070312 -7.015625 5.5625 -7.609375 C 6.050781 -8.203125 6.5 -8.757812 6.90625 -9.28125 C 6.800781 -10.925781 6.835938 -12.503906 7.015625 -14.015625 C 7.191406 -15.453125 7.578125 -16.5625 8.171875 -17.34375 C 8.773438 -18.125 9.378906 -18.578125 9.984375 -18.703125 C 10.734375 -18.859375 11.296875 -18.59375 11.671875 -17.90625 C 12.054688 -17.238281 12.023438 -16.144531 11.578125 -14.625 C 11.140625 -13.113281 10.039062 -11.191406 8.28125 -8.859375 C 8.351562 -7.753906 8.519531 -6.601562 8.78125 -5.40625 C 9.039062 -4.21875 9.40625 -3.054688 9.875 -1.921875 C 10.539062 -2.367188 11.128906 -2.828125 11.640625 -3.296875 C 12.242188 -3.878906 12.671875 -4.363281 12.921875 -4.75 C 13.179688 -5.132812 13.34375 -5.421875 13.40625 -5.609375 C 13.382812 -5.578125 13.335938 -5.554688 13.265625 -5.546875 C 13.117188 -5.484375 12.960938 -5.484375 12.796875 -5.546875 C 12.628906 -5.617188 12.503906 -5.75 12.421875 -5.9375 C 12.335938 -6.082031 12.332031 -6.238281 12.40625 -6.40625 C 12.488281 -6.570312 12.613281 -6.695312 12.78125 -6.78125 C 13.375 -7.007812 13.804688 -7.046875 14.078125 -6.890625 C 14.359375 -6.742188 14.539062 -6.597656 14.625 -6.453125 Z M 8.34375 -13.828125 C 8.289062 -13.441406 8.253906 -13.015625 8.234375 -12.546875 C 8.210938 -12.078125 8.203125 -11.578125 8.203125 -11.046875 C 9.046875 -12.285156 9.640625 -13.332031 9.984375 -14.1875 C 10.335938 -15.039062 10.535156 -15.722656 10.578125 -16.234375 C 10.617188 -16.742188 10.59375 -17.085938 10.5 -17.265625 C 10.445312 -17.359375 10.382812 -17.40625 10.3125 -17.40625 C 10.289062 -17.40625 10.269531 -17.40625 10.25 -17.40625 C 9.925781 -17.332031 9.5625 -17 9.15625 -16.40625 C 8.75 -15.8125 8.476562 -14.953125 8.34375 -13.828125 Z M 1.890625 0.359375 C 2.140625 0.597656 2.625 0.679688 3.34375 0.609375 C 4.0625 0.546875 4.90625 0.347656 5.875 0.015625 C 6.84375 -0.316406 7.796875 -0.734375 8.734375 -1.234375 C 8.316406 -2.203125 7.972656 -3.207031 7.703125 -4.25 C 7.429688 -5.289062 7.226562 -6.335938 7.09375 -7.390625 C 6.425781 -6.578125 5.703125 -5.738281 4.921875 -4.875 C 3.867188 -3.75 3.101562 -2.820312 2.625 -2.09375 C 2.15625 -1.363281 1.882812 -0.796875 1.8125 -0.390625 C 1.75 0.00390625 1.773438 0.253906 1.890625 0.359375 Z M 1.890625 0.359375 "/></g></g></g></svg>