<svg xmlns="http://www.w3.org/2000/svg" xmlns:xlink="http://www.w3.org/1999/xlink" width="100" zoomAndPan="magnify" viewBox="0 0 75 44.999999" height="60" preserveAspectRatio="xMidYMid meet" version="1.2"><defs><clipPath id="71adb1b40e"><path d="M 2 5 L 25 5 L 25 11 L 2 11 Z M 2 5 "/></clipPath><clipPath id="9137ad0c4e"><path d="M 1.832031 8.0625 L 24.40625 5.890625 L 24.871094 10.726562 L 2.296875 12.902344 Z M 1.832031 8.0625 "/></clipPath><clipPath id="b60aea526b"><path d="M 1.832031 8.0625 L 24.40625 5.890625 L 24.871094 10.726562 L 2.296875 12.902344 Z M 1.832031 8.0625 "/></clipPath><clipPath id="3a885cf07a"><path d="M 51 23 L 73 23 L 73 28 L 51 28 Z M 51 23 "/></clipPath><clipPath id="e61e8b8585"><path d="M 50.941406 24.253906 L 72.777344 23.15625 L 73.023438 28.007812 L 51.183594 29.105469 Z M 50.941406 24.253906 "/></clipPath><clipPath id="68bf1d24ab"><path d="M 50.941406 24.253906 L 72.777344 23.15625 L 73.023438 28.007812 L 51.183594 29.105469 Z M 50.941406 24.253906 "/></clipPath></defs><g id="3040dc233d"><g style="fill:#ffffff;fill-opacity:1;"><g transform="translate(30.547863, 29.729477)"><path style="stroke:none" d="M 10.34375 -10.21875 C 10.351562 -10.175781 10.347656 -10.132812 10.328125 -10.09375 C 10.304688 -10.050781 10.28125 -10.019531 10.25 -10 C 9.957031 -9.894531 9.59375 -9.765625 9.15625 -9.609375 C 8.726562 -9.453125 8.257812 -9.28125 7.75 -9.09375 C 7.25 -8.914062 6.710938 -8.722656 6.140625 -8.515625 C 5.566406 -8.316406 5.003906 -8.117188 4.453125 -7.921875 C 4.378906 -7.546875 4.296875 -7.101562 4.203125 -6.59375 C 4.117188 -6.09375 4.023438 -5.539062 3.921875 -4.9375 C 3.816406 -4.332031 3.707031 -3.703125 3.59375 -3.046875 C 3.488281 -2.410156 3.378906 -1.769531 3.265625 -1.125 C 3.148438 -0.488281 3.039062 0.125 2.9375 0.71875 C 2.84375 1.320312 2.742188 1.878906 2.640625 2.390625 C 2.484375 3.222656 2.351562 3.84375 2.25 4.25 C 2.1875 4.582031 2.125 4.800781 2.0625 4.90625 C 2.007812 5.019531 1.945312 5.082031 1.875 5.09375 C 1.863281 5.09375 1.851562 5.09375 1.84375 5.09375 C 1.78125 5.082031 1.726562 5.046875 1.6875 4.984375 C 1.65625 4.929688 1.632812 4.816406 1.625 4.640625 C 1.613281 4.460938 1.613281 4.1875 1.625 3.8125 C 1.632812 3.757812 1.65625 3.71875 1.6875 3.6875 C 1.71875 3.664062 1.753906 3.660156 1.796875 3.671875 C 1.847656 3.671875 1.882812 3.6875 1.90625 3.71875 C 1.9375 3.75 1.957031 3.785156 1.96875 3.828125 C 1.945312 3.953125 1.941406 4.0625 1.953125 4.15625 C 2.003906 3.882812 2.070312 3.539062 2.15625 3.125 C 2.238281 2.707031 2.328125 2.242188 2.421875 1.734375 C 2.523438 1.234375 2.625 0.707031 2.71875 0.15625 C 2.8125 -0.394531 2.90625 -0.945312 3 -1.5 C 3.101562 -2.050781 3.195312 -2.585938 3.28125 -3.109375 C 3.382812 -3.722656 3.484375 -4.316406 3.578125 -4.890625 C 3.671875 -5.460938 3.757812 -5.992188 3.84375 -6.484375 C 3.9375 -6.972656 4.023438 -7.398438 4.109375 -7.765625 C 3.867188 -7.679688 3.632812 -7.597656 3.40625 -7.515625 C 3.1875 -7.429688 2.96875 -7.347656 2.75 -7.265625 C 2.132812 -7.023438 1.640625 -6.820312 1.265625 -6.65625 C 0.890625 -6.5 0.613281 -6.375 0.4375 -6.28125 C 0.257812 -6.195312 0.140625 -6.128906 0.078125 -6.078125 C 0.128906 -6.035156 0.148438 -5.976562 0.140625 -5.90625 C 0.117188 -5.820312 0.0664062 -5.78125 -0.015625 -5.78125 C -0.0234375 -5.78125 -0.0351562 -5.78125 -0.046875 -5.78125 C -0.160156 -5.789062 -0.234375 -5.820312 -0.265625 -5.875 C -0.304688 -5.925781 -0.332031 -5.972656 -0.34375 -6.015625 C -0.351562 -6.066406 -0.335938 -6.117188 -0.296875 -6.171875 C -0.253906 -6.222656 -0.171875 -6.285156 -0.046875 -6.359375 C 0.0664062 -6.441406 0.253906 -6.546875 0.515625 -6.671875 C 0.960938 -6.890625 1.609375 -7.164062 2.453125 -7.5 C 2.972656 -7.707031 3.535156 -7.921875 4.140625 -8.140625 C 4.742188 -8.359375 5.34375 -8.570312 5.9375 -8.78125 C 6.539062 -9 7.109375 -9.207031 7.640625 -9.40625 C 8.148438 -9.59375 8.617188 -9.757812 9.046875 -9.90625 C 9.472656 -10.0625 9.835938 -10.195312 10.140625 -10.3125 C 10.160156 -10.320312 10.195312 -10.316406 10.25 -10.296875 C 10.300781 -10.285156 10.332031 -10.257812 10.34375 -10.21875 Z M 10.34375 -10.21875 "/></g></g><g style="fill:#ffffff;fill-opacity:1;"><g transform="translate(35.082089, 29.501647)"><path style="stroke:none" d="M 2.359375 -2.03125 C 2.398438 -2.007812 2.421875 -1.972656 2.421875 -1.921875 C 2.429688 -1.878906 2.429688 -1.84375 2.421875 -1.8125 C 2.316406 -1.644531 2.1875 -1.453125 2.03125 -1.234375 C 1.882812 -1.015625 1.722656 -0.804688 1.546875 -0.609375 C 1.367188 -0.410156 1.1875 -0.242188 1 -0.109375 C 0.820312 0.0234375 0.65625 0.09375 0.5 0.09375 C 0.425781 0.101562 0.363281 0.09375 0.3125 0.0625 C 0.125 -0.0078125 0.015625 -0.203125 -0.015625 -0.515625 C -0.0546875 -0.835938 -0.015625 -1.300781 0.109375 -1.90625 C 0.117188 -1.945312 0.140625 -1.976562 0.171875 -2 C 0.210938 -2.019531 0.253906 -2.023438 0.296875 -2.015625 C 0.335938 -2.003906 0.367188 -1.984375 0.390625 -1.953125 C 0.421875 -1.921875 0.429688 -1.882812 0.421875 -1.84375 C 0.347656 -1.46875 0.304688 -1.175781 0.296875 -0.96875 C 0.285156 -0.757812 0.289062 -0.601562 0.3125 -0.5 C 0.332031 -0.394531 0.351562 -0.320312 0.375 -0.28125 C 0.40625 -0.25 0.421875 -0.234375 0.421875 -0.234375 C 0.492188 -0.210938 0.597656 -0.242188 0.734375 -0.328125 C 0.878906 -0.410156 1.03125 -0.535156 1.1875 -0.703125 C 1.351562 -0.878906 1.519531 -1.070312 1.6875 -1.28125 C 1.851562 -1.5 2.003906 -1.726562 2.140625 -1.96875 C 2.160156 -2.007812 2.191406 -2.035156 2.234375 -2.046875 C 2.273438 -2.054688 2.316406 -2.050781 2.359375 -2.03125 Z M 0.359375 -2.609375 C 0.242188 -2.609375 0.179688 -2.632812 0.171875 -2.6875 C 0.160156 -2.75 0.179688 -2.8125 0.234375 -2.875 C 0.285156 -2.9375 0.335938 -2.984375 0.390625 -3.015625 C 0.472656 -3.035156 0.535156 -3.03125 0.578125 -3 C 0.628906 -2.96875 0.65625 -2.921875 0.65625 -2.859375 C 0.65625 -2.796875 0.628906 -2.738281 0.578125 -2.6875 C 0.535156 -2.632812 0.460938 -2.609375 0.359375 -2.609375 Z M 0.359375 -2.609375 "/></g></g><g style="fill:#ffffff;fill-opacity:1;"><g transform="translate(37.198619, 29.395299)"><path style="stroke:none" d="M 3.421875 -2.03125 C 3.453125 -2.007812 3.476562 -1.976562 3.5 -1.9375 C 3.519531 -1.90625 3.519531 -1.867188 3.5 -1.828125 C 3.40625 -1.609375 3.300781 -1.382812 3.1875 -1.15625 C 3.070312 -0.9375 2.953125 -0.726562 2.828125 -0.53125 C 2.703125 -0.34375 2.566406 -0.191406 2.421875 -0.078125 C 2.285156 0.0351562 2.144531 0.0976562 2 0.109375 C 1.96875 0.109375 1.9375 0.101562 1.90625 0.09375 C 1.519531 0.0390625 1.265625 -0.445312 1.140625 -1.375 C 1.046875 -1.238281 0.9375 -1.085938 0.8125 -0.921875 C 0.695312 -0.753906 0.578125 -0.59375 0.453125 -0.4375 C 0.429688 -0.40625 0.394531 -0.363281 0.34375 -0.3125 C 0.289062 -0.269531 0.226562 -0.234375 0.15625 -0.203125 C 0.09375 -0.171875 0.03125 -0.171875 -0.03125 -0.203125 C -0.164062 -0.242188 -0.234375 -0.382812 -0.234375 -0.625 C -0.242188 -0.757812 -0.226562 -0.929688 -0.1875 -1.140625 C -0.144531 -1.359375 -0.0820312 -1.570312 0 -1.78125 C 0.09375 -2 0.203125 -2.191406 0.328125 -2.359375 C 0.453125 -2.523438 0.585938 -2.640625 0.734375 -2.703125 C 0.835938 -2.742188 0.960938 -2.753906 1.109375 -2.734375 C 1.265625 -2.722656 1.421875 -2.628906 1.578125 -2.453125 C 1.609375 -2.421875 1.625 -2.382812 1.625 -2.34375 C 1.625 -2.300781 1.609375 -2.257812 1.578125 -2.21875 C 1.546875 -2.195312 1.503906 -2.1875 1.453125 -2.1875 C 1.410156 -2.1875 1.375 -2.203125 1.34375 -2.234375 C 1.195312 -2.378906 1.078125 -2.445312 0.984375 -2.4375 C 0.890625 -2.425781 0.8125 -2.394531 0.75 -2.34375 C 0.625 -2.238281 0.515625 -2.097656 0.421875 -1.921875 C 0.335938 -1.753906 0.265625 -1.578125 0.203125 -1.390625 C 0.140625 -1.210938 0.0976562 -1.039062 0.078125 -0.875 C 0.0664062 -0.707031 0.0664062 -0.585938 0.078125 -0.515625 C 0.0976562 -0.523438 0.113281 -0.539062 0.125 -0.5625 C 0.144531 -0.59375 0.164062 -0.617188 0.1875 -0.640625 C 0.351562 -0.835938 0.5 -1.03125 0.625 -1.21875 C 0.75 -1.40625 0.863281 -1.566406 0.96875 -1.703125 C 0.988281 -1.753906 1.007812 -1.796875 1.03125 -1.828125 C 1.0625 -1.867188 1.085938 -1.90625 1.109375 -1.9375 C 1.148438 -1.988281 1.207031 -2.003906 1.28125 -1.984375 C 1.351562 -1.972656 1.390625 -1.929688 1.390625 -1.859375 C 1.429688 -1.492188 1.476562 -1.195312 1.53125 -0.96875 C 1.582031 -0.75 1.632812 -0.585938 1.6875 -0.484375 C 1.75 -0.390625 1.800781 -0.320312 1.84375 -0.28125 C 1.894531 -0.238281 1.929688 -0.21875 1.953125 -0.21875 C 2.066406 -0.207031 2.234375 -0.328125 2.453125 -0.578125 C 2.671875 -0.828125 2.921875 -1.285156 3.203125 -1.953125 C 3.222656 -1.992188 3.253906 -2.019531 3.296875 -2.03125 C 3.335938 -2.050781 3.378906 -2.050781 3.421875 -2.03125 Z M 3.421875 -2.03125 "/></g></g><g style="fill:#ffffff;fill-opacity:1;"><g transform="translate(40.31067, 29.238929)"><path style="stroke:none" d="M 3.28125 -2.046875 C 3.320312 -2.015625 3.347656 -1.976562 3.359375 -1.9375 C 3.378906 -1.894531 3.378906 -1.859375 3.359375 -1.828125 C 3.117188 -1.347656 2.894531 -0.976562 2.6875 -0.71875 C 2.488281 -0.457031 2.28125 -0.335938 2.0625 -0.359375 C 1.789062 -0.367188 1.554688 -0.660156 1.359375 -1.234375 C 1.296875 -1.410156 1.242188 -1.535156 1.203125 -1.609375 C 1.160156 -1.691406 1.125 -1.742188 1.09375 -1.765625 C 1.0625 -1.785156 1.039062 -1.796875 1.03125 -1.796875 C 1.007812 -1.796875 0.976562 -1.773438 0.9375 -1.734375 C 0.894531 -1.691406 0.828125 -1.597656 0.734375 -1.453125 C 0.640625 -1.316406 0.53125 -1.101562 0.40625 -0.8125 C 0.289062 -0.53125 0.140625 -0.140625 -0.046875 0.359375 C -0.0664062 0.421875 -0.113281 0.457031 -0.1875 0.46875 C -0.195312 0.46875 -0.210938 0.46875 -0.234375 0.46875 C -0.328125 0.445312 -0.367188 0.390625 -0.359375 0.296875 C -0.335938 0.0664062 -0.296875 -0.195312 -0.234375 -0.5 C -0.179688 -0.8125 -0.117188 -1.125 -0.046875 -1.4375 C 0.0234375 -1.757812 0.09375 -2.046875 0.15625 -2.296875 C 0.15625 -2.347656 0.160156 -2.394531 0.171875 -2.4375 C 0.191406 -2.488281 0.207031 -2.539062 0.21875 -2.59375 C 0.238281 -2.632812 0.265625 -2.664062 0.296875 -2.6875 C 0.328125 -2.71875 0.363281 -2.726562 0.40625 -2.71875 C 0.445312 -2.695312 0.476562 -2.664062 0.5 -2.625 C 0.53125 -2.59375 0.539062 -2.554688 0.53125 -2.515625 C 0.519531 -2.460938 0.507812 -2.410156 0.5 -2.359375 C 0.488281 -2.316406 0.472656 -2.269531 0.453125 -2.21875 C 0.429688 -2.070312 0.394531 -1.910156 0.34375 -1.734375 C 0.300781 -1.554688 0.257812 -1.378906 0.21875 -1.203125 C 0.382812 -1.566406 0.53125 -1.804688 0.65625 -1.921875 C 0.789062 -2.046875 0.914062 -2.113281 1.03125 -2.125 C 1.1875 -2.113281 1.3125 -2.03125 1.40625 -1.875 C 1.507812 -1.71875 1.597656 -1.535156 1.671875 -1.328125 C 1.765625 -1.035156 1.847656 -0.851562 1.921875 -0.78125 C 2.003906 -0.707031 2.0625 -0.671875 2.09375 -0.671875 C 2.164062 -0.660156 2.25 -0.703125 2.34375 -0.796875 C 2.4375 -0.898438 2.53125 -1.023438 2.625 -1.171875 C 2.71875 -1.316406 2.800781 -1.460938 2.875 -1.609375 C 2.957031 -1.753906 3.019531 -1.875 3.0625 -1.96875 C 3.082031 -2.007812 3.113281 -2.035156 3.15625 -2.046875 C 3.195312 -2.066406 3.238281 -2.066406 3.28125 -2.046875 Z M 3.28125 -2.046875 "/></g></g><g style="fill:#ffffff;fill-opacity:1;"><g transform="translate(43.297236, 29.088865)"><path style="stroke:none" d="M 5.046875 -2.15625 C 5.066406 -2.125 5.082031 -2.082031 5.09375 -2.03125 C 5.101562 -1.988281 5.09375 -1.953125 5.0625 -1.921875 C 4.800781 -1.628906 4.535156 -1.425781 4.265625 -1.3125 C 4.003906 -1.195312 3.757812 -1.160156 3.53125 -1.203125 C 3.425781 -1.242188 3.316406 -1.300781 3.203125 -1.375 C 3.085938 -1.445312 2.984375 -1.566406 2.890625 -1.734375 C 2.816406 -1.410156 2.738281 -1.101562 2.65625 -0.8125 C 2.550781 -0.5 2.457031 -0.265625 2.375 -0.109375 C 2.289062 0.0351562 2.210938 0.132812 2.140625 0.1875 C 2.066406 0.25 2.003906 0.28125 1.953125 0.28125 C 1.847656 0.28125 1.765625 0.242188 1.703125 0.171875 C 1.640625 0.0976562 1.59375 0.0195312 1.5625 -0.0625 C 1.539062 -0.15625 1.519531 -0.226562 1.5 -0.28125 C 1.476562 -0.375 1.457031 -0.484375 1.4375 -0.609375 C 1.269531 -0.304688 1.128906 -0.078125 1.015625 0.078125 C 0.910156 0.234375 0.820312 0.359375 0.75 0.453125 C 0.675781 0.523438 0.609375 0.570312 0.546875 0.59375 C 0.484375 0.625 0.425781 0.640625 0.375 0.640625 C 0.332031 0.640625 0.296875 0.632812 0.265625 0.625 C 0.234375 0.613281 0.207031 0.601562 0.1875 0.59375 C 0.0507812 0.507812 -0.0351562 0.316406 -0.078125 0.015625 C -0.128906 -0.273438 -0.125 -0.632812 -0.0625 -1.0625 C -0.0078125 -1.488281 0.09375 -1.960938 0.25 -2.484375 C 0.257812 -2.515625 0.285156 -2.539062 0.328125 -2.5625 C 0.367188 -2.59375 0.410156 -2.597656 0.453125 -2.578125 C 0.492188 -2.566406 0.519531 -2.539062 0.53125 -2.5 C 0.550781 -2.457031 0.554688 -2.421875 0.546875 -2.390625 C 0.378906 -1.816406 0.273438 -1.335938 0.234375 -0.953125 C 0.191406 -0.566406 0.1875 -0.265625 0.21875 -0.046875 C 0.257812 0.160156 0.300781 0.28125 0.34375 0.3125 C 0.375 0.332031 0.429688 0.300781 0.515625 0.21875 C 0.578125 0.15625 0.644531 0.0703125 0.71875 -0.03125 C 0.789062 -0.144531 0.882812 -0.289062 1 -0.46875 C 1.113281 -0.65625 1.25 -0.898438 1.40625 -1.203125 C 1.445312 -1.273438 1.507812 -1.300781 1.59375 -1.28125 C 1.664062 -1.269531 1.707031 -1.21875 1.71875 -1.125 C 1.71875 -1.03125 1.726562 -0.910156 1.75 -0.765625 C 1.769531 -0.617188 1.789062 -0.484375 1.8125 -0.359375 C 1.851562 -0.265625 1.878906 -0.191406 1.890625 -0.140625 C 1.910156 -0.0976562 1.925781 -0.0664062 1.9375 -0.046875 C 1.988281 -0.0859375 2.050781 -0.1875 2.125 -0.34375 C 2.195312 -0.507812 2.269531 -0.703125 2.34375 -0.921875 C 2.414062 -1.148438 2.484375 -1.390625 2.546875 -1.640625 C 2.609375 -1.898438 2.644531 -2.132812 2.65625 -2.34375 C 2.664062 -2.4375 2.71875 -2.484375 2.8125 -2.484375 C 2.894531 -2.492188 2.953125 -2.457031 2.984375 -2.375 C 3.097656 -1.882812 3.304688 -1.601562 3.609375 -1.53125 C 3.773438 -1.488281 3.960938 -1.519531 4.171875 -1.625 C 4.390625 -1.738281 4.601562 -1.910156 4.8125 -2.140625 C 4.84375 -2.171875 4.878906 -2.1875 4.921875 -2.1875 C 4.960938 -2.1875 5.003906 -2.175781 5.046875 -2.15625 Z M 5.046875 -2.15625 "/></g></g><g style="fill:#ffffff;fill-opacity:1;"><g transform="translate(48.057338, 28.849686)"><path style="stroke:none" d="M 3.25 -1.984375 C 3.28125 -1.960938 3.300781 -1.925781 3.3125 -1.875 C 3.332031 -1.832031 3.332031 -1.796875 3.3125 -1.765625 C 3.269531 -1.691406 3.203125 -1.578125 3.109375 -1.421875 C 3.023438 -1.265625 2.914062 -1.085938 2.78125 -0.890625 C 2.65625 -0.703125 2.519531 -0.519531 2.375 -0.34375 C 2.226562 -0.164062 2.082031 -0.0195312 1.9375 0.09375 C 1.789062 0.21875 1.65625 0.28125 1.53125 0.28125 C 1.488281 0.28125 1.453125 0.269531 1.421875 0.25 C 1.273438 0.21875 1.175781 0.101562 1.125 -0.09375 C 1.082031 -0.300781 1.082031 -0.609375 1.125 -1.015625 C 1.050781 -0.898438 0.972656 -0.789062 0.890625 -0.6875 C 0.816406 -0.59375 0.738281 -0.5 0.65625 -0.40625 C 0.507812 -0.269531 0.382812 -0.210938 0.28125 -0.234375 C 0.1875 -0.265625 0.117188 -0.289062 0.078125 -0.3125 C -0.015625 -0.394531 -0.078125 -0.519531 -0.109375 -0.6875 C -0.148438 -0.863281 -0.15625 -1.054688 -0.125 -1.265625 C -0.09375 -1.472656 -0.0234375 -1.679688 0.078125 -1.890625 C 0.0976562 -1.921875 0.128906 -1.941406 0.171875 -1.953125 C 0.210938 -1.960938 0.253906 -1.957031 0.296875 -1.9375 C 0.335938 -1.914062 0.363281 -1.882812 0.375 -1.84375 C 0.382812 -1.8125 0.382812 -1.769531 0.375 -1.71875 C 0.269531 -1.550781 0.207031 -1.382812 0.1875 -1.21875 C 0.164062 -1.0625 0.164062 -0.921875 0.1875 -0.796875 C 0.207031 -0.679688 0.234375 -0.609375 0.265625 -0.578125 C 0.285156 -0.554688 0.3125 -0.554688 0.34375 -0.578125 C 0.382812 -0.609375 0.410156 -0.628906 0.421875 -0.640625 C 0.535156 -0.742188 0.632812 -0.859375 0.71875 -0.984375 C 0.800781 -1.109375 0.875 -1.222656 0.9375 -1.328125 C 1.019531 -1.460938 1.085938 -1.554688 1.140625 -1.609375 C 1.203125 -1.671875 1.273438 -1.691406 1.359375 -1.671875 C 1.429688 -1.640625 1.46875 -1.578125 1.46875 -1.484375 C 1.476562 -1.390625 1.472656 -1.257812 1.453125 -1.09375 C 1.410156 -0.769531 1.394531 -0.535156 1.40625 -0.390625 C 1.425781 -0.242188 1.445312 -0.148438 1.46875 -0.109375 C 1.488281 -0.0664062 1.503906 -0.046875 1.515625 -0.046875 C 1.578125 -0.015625 1.75 -0.148438 2.03125 -0.453125 C 2.320312 -0.765625 2.648438 -1.253906 3.015625 -1.921875 C 3.046875 -1.953125 3.082031 -1.972656 3.125 -1.984375 C 3.164062 -2.003906 3.207031 -2.003906 3.25 -1.984375 Z M 3.25 -1.984375 "/></g></g><g style="fill:#ffffff;fill-opacity:1;"><g transform="translate(21.172544, 12.581537)"><path style="stroke:none" d="M 8.546875 1.609375 C 8.578125 1.628906 8.59375 1.660156 8.59375 1.703125 C 8.601562 1.753906 8.59375 1.800781 8.5625 1.84375 C 8.28125 2.21875 7.976562 2.414062 7.65625 2.4375 C 7.644531 2.4375 7.632812 2.4375 7.625 2.4375 C 7.382812 2.4375 7.144531 2.347656 6.90625 2.171875 C 6.664062 2.003906 6.421875 1.78125 6.171875 1.5 C 5.929688 1.21875 5.6875 0.90625 5.4375 0.5625 C 5.15625 0.21875 4.859375 -0.128906 4.546875 -0.484375 C 4.242188 -0.847656 3.929688 -1.160156 3.609375 -1.421875 C 3.265625 -1.316406 2.925781 -1.265625 2.59375 -1.265625 C 2.5 -0.722656 2.398438 -0.1875 2.296875 0.34375 C 2.203125 0.875 2.113281 1.378906 2.03125 1.859375 C 1.945312 2.347656 1.875 2.785156 1.8125 3.171875 C 1.75 3.554688 1.707031 3.867188 1.6875 4.109375 C 1.695312 4.066406 1.71875 4.019531 1.75 3.96875 C 1.757812 3.9375 1.785156 3.910156 1.828125 3.890625 C 1.867188 3.867188 1.910156 3.863281 1.953125 3.875 C 1.992188 3.894531 2.019531 3.925781 2.03125 3.96875 C 2.050781 4.007812 2.050781 4.050781 2.03125 4.09375 C 1.945312 4.34375 1.867188 4.519531 1.796875 4.625 C 1.734375 4.738281 1.664062 4.800781 1.59375 4.8125 C 1.570312 4.8125 1.546875 4.804688 1.515625 4.796875 C 1.472656 4.785156 1.4375 4.753906 1.40625 4.703125 C 1.375 4.660156 1.359375 4.570312 1.359375 4.4375 C 1.359375 4.3125 1.367188 4.117188 1.390625 3.859375 C 1.421875 3.597656 1.472656 3.242188 1.546875 2.796875 C 1.617188 2.359375 1.710938 1.804688 1.828125 1.140625 C 1.953125 0.484375 2.101562 -0.316406 2.28125 -1.265625 C 1.96875 -1.285156 1.726562 -1.351562 1.5625 -1.46875 C 1.40625 -1.582031 1.300781 -1.695312 1.25 -1.8125 C 1.164062 -2.007812 1.207031 -2.175781 1.375 -2.3125 C 1.488281 -2.40625 1.640625 -2.457031 1.828125 -2.46875 C 2.023438 -2.476562 2.25 -2.445312 2.5 -2.375 C 2.519531 -2.53125 2.546875 -2.675781 2.578125 -2.8125 C 2.609375 -2.957031 2.632812 -3.101562 2.65625 -3.25 C 2.757812 -3.769531 2.851562 -4.265625 2.9375 -4.734375 C 3.03125 -5.210938 3.113281 -5.648438 3.1875 -6.046875 C 3.269531 -6.441406 3.335938 -6.785156 3.390625 -7.078125 C 3.398438 -7.117188 3.421875 -7.148438 3.453125 -7.171875 C 3.484375 -7.203125 3.519531 -7.21875 3.5625 -7.21875 C 3.601562 -7.207031 3.632812 -7.179688 3.65625 -7.140625 C 3.6875 -7.109375 3.703125 -7.066406 3.703125 -7.015625 C 3.640625 -6.734375 3.570312 -6.390625 3.5 -5.984375 C 3.425781 -5.585938 3.34375 -5.148438 3.25 -4.671875 C 3.164062 -4.203125 3.070312 -3.710938 2.96875 -3.203125 C 2.945312 -3.054688 2.921875 -2.90625 2.890625 -2.75 C 2.859375 -2.59375 2.828125 -2.429688 2.796875 -2.265625 C 2.941406 -2.203125 3.085938 -2.132812 3.234375 -2.0625 C 3.367188 -1.976562 3.515625 -1.882812 3.671875 -1.78125 C 4.035156 -1.914062 4.40625 -2.101562 4.78125 -2.34375 C 5.164062 -2.59375 5.535156 -2.910156 5.890625 -3.296875 C 6.242188 -3.679688 6.566406 -4.15625 6.859375 -4.71875 C 7.078125 -5.125 7.234375 -5.519531 7.328125 -5.90625 C 7.429688 -6.300781 7.46875 -6.660156 7.4375 -6.984375 C 7.40625 -7.304688 7.316406 -7.578125 7.171875 -7.796875 C 6.828125 -8.285156 6.21875 -8.472656 5.34375 -8.359375 C 4.882812 -8.304688 4.425781 -8.191406 3.96875 -8.015625 C 3.507812 -7.847656 3.066406 -7.628906 2.640625 -7.359375 C 2.210938 -7.085938 1.832031 -6.789062 1.5 -6.46875 C 1.175781 -6.144531 0.929688 -5.816406 0.765625 -5.484375 C 0.441406 -4.847656 0.429688 -4.253906 0.734375 -3.703125 C 0.753906 -3.660156 0.757812 -3.617188 0.75 -3.578125 C 0.738281 -3.535156 0.71875 -3.503906 0.6875 -3.484375 C 0.644531 -3.460938 0.601562 -3.457031 0.5625 -3.46875 C 0.519531 -3.476562 0.488281 -3.503906 0.46875 -3.546875 C 0.101562 -4.191406 0.101562 -4.882812 0.46875 -5.625 C 0.65625 -5.988281 0.921875 -6.34375 1.265625 -6.6875 C 1.609375 -7.03125 2 -7.335938 2.4375 -7.609375 C 2.882812 -7.890625 3.351562 -8.125 3.84375 -8.3125 C 4.332031 -8.5 4.820312 -8.625 5.3125 -8.6875 C 5.71875 -8.738281 6.0625 -8.726562 6.34375 -8.65625 C 6.632812 -8.59375 6.863281 -8.5 7.03125 -8.375 C 7.207031 -8.25 7.34375 -8.117188 7.4375 -7.984375 C 7.613281 -7.722656 7.71875 -7.410156 7.75 -7.046875 C 7.78125 -6.691406 7.742188 -6.300781 7.640625 -5.875 C 7.546875 -5.445312 7.382812 -5.007812 7.15625 -4.5625 C 6.925781 -4.113281 6.644531 -3.691406 6.3125 -3.296875 C 5.988281 -2.898438 5.640625 -2.5625 5.265625 -2.28125 C 4.847656 -1.957031 4.414062 -1.710938 3.96875 -1.546875 C 4.28125 -1.265625 4.578125 -0.957031 4.859375 -0.625 C 5.140625 -0.289062 5.410156 0.0351562 5.671875 0.359375 C 5.921875 0.660156 6.148438 0.945312 6.359375 1.21875 C 6.578125 1.488281 6.789062 1.707031 7 1.875 C 7.21875 2.039062 7.421875 2.117188 7.609375 2.109375 C 7.847656 2.109375 8.082031 1.953125 8.3125 1.640625 C 8.332031 1.597656 8.363281 1.570312 8.40625 1.5625 C 8.445312 1.5625 8.492188 1.578125 8.546875 1.609375 Z M 1.546875 -1.921875 C 1.578125 -1.835938 1.65625 -1.765625 1.78125 -1.703125 C 1.914062 -1.640625 2.097656 -1.597656 2.328125 -1.578125 C 2.367188 -1.734375 2.40625 -1.890625 2.4375 -2.046875 C 2.332031 -2.085938 2.226562 -2.117188 2.125 -2.140625 C 2.019531 -2.160156 1.925781 -2.164062 1.84375 -2.15625 C 1.726562 -2.15625 1.644531 -2.125 1.59375 -2.0625 C 1.539062 -2.019531 1.523438 -1.972656 1.546875 -1.921875 Z M 2.65625 -1.59375 C 2.851562 -1.601562 3.050781 -1.628906 3.25 -1.671875 C 3.195312 -1.703125 3.144531 -1.734375 3.09375 -1.765625 C 3.039062 -1.796875 2.984375 -1.820312 2.921875 -1.84375 C 2.859375 -1.875 2.796875 -1.90625 2.734375 -1.9375 C 2.734375 -1.875 2.722656 -1.8125 2.703125 -1.75 C 2.691406 -1.695312 2.675781 -1.644531 2.65625 -1.59375 Z M 2.65625 -1.59375 "/></g></g><g style="fill:#ffffff;fill-opacity:1;"><g transform="translate(28.877329, 12.194398)"><path style="stroke:none" d="M 3.25 -1.984375 C 3.28125 -1.960938 3.300781 -1.925781 3.3125 -1.875 C 3.332031 -1.832031 3.332031 -1.796875 3.3125 -1.765625 C 3.269531 -1.691406 3.203125 -1.578125 3.109375 -1.421875 C 3.023438 -1.265625 2.914062 -1.085938 2.78125 -0.890625 C 2.65625 -0.703125 2.519531 -0.519531 2.375 -0.34375 C 2.226562 -0.164062 2.082031 -0.0195312 1.9375 0.09375 C 1.789062 0.21875 1.65625 0.28125 1.53125 0.28125 C 1.488281 0.28125 1.453125 0.269531 1.421875 0.25 C 1.273438 0.21875 1.175781 0.101562 1.125 -0.09375 C 1.082031 -0.300781 1.082031 -0.609375 1.125 -1.015625 C 1.050781 -0.898438 0.972656 -0.789062 0.890625 -0.6875 C 0.816406 -0.59375 0.738281 -0.5 0.65625 -0.40625 C 0.507812 -0.269531 0.382812 -0.210938 0.28125 -0.234375 C 0.1875 -0.265625 0.117188 -0.289062 0.078125 -0.3125 C -0.015625 -0.394531 -0.078125 -0.519531 -0.109375 -0.6875 C -0.148438 -0.863281 -0.15625 -1.054688 -0.125 -1.265625 C -0.09375 -1.472656 -0.0234375 -1.679688 0.078125 -1.890625 C 0.0976562 -1.921875 0.128906 -1.941406 0.171875 -1.953125 C 0.210938 -1.960938 0.253906 -1.957031 0.296875 -1.9375 C 0.335938 -1.914062 0.363281 -1.882812 0.375 -1.84375 C 0.382812 -1.8125 0.382812 -1.769531 0.375 -1.71875 C 0.269531 -1.550781 0.207031 -1.382812 0.1875 -1.21875 C 0.164062 -1.0625 0.164062 -0.921875 0.1875 -0.796875 C 0.207031 -0.679688 0.234375 -0.609375 0.265625 -0.578125 C 0.285156 -0.554688 0.3125 -0.554688 0.34375 -0.578125 C 0.382812 -0.609375 0.410156 -0.628906 0.421875 -0.640625 C 0.535156 -0.742188 0.632812 -0.859375 0.71875 -0.984375 C 0.800781 -1.109375 0.875 -1.222656 0.9375 -1.328125 C 1.019531 -1.460938 1.085938 -1.554688 1.140625 -1.609375 C 1.203125 -1.671875 1.273438 -1.691406 1.359375 -1.671875 C 1.429688 -1.640625 1.46875 -1.578125 1.46875 -1.484375 C 1.476562 -1.390625 1.472656 -1.257812 1.453125 -1.09375 C 1.410156 -0.769531 1.394531 -0.535156 1.40625 -0.390625 C 1.425781 -0.242188 1.445312 -0.148438 1.46875 -0.109375 C 1.488281 -0.0664062 1.503906 -0.046875 1.515625 -0.046875 C 1.578125 -0.015625 1.75 -0.148438 2.03125 -0.453125 C 2.320312 -0.765625 2.648438 -1.253906 3.015625 -1.921875 C 3.046875 -1.953125 3.082031 -1.972656 3.125 -1.984375 C 3.164062 -2.003906 3.207031 -2.003906 3.25 -1.984375 Z M 3.25 -1.984375 "/></g></g><g style="fill:#ffffff;fill-opacity:1;"><g transform="translate(31.872238, 12.043914)"><path style="stroke:none" d="M 3.28125 -2.046875 C 3.320312 -2.015625 3.347656 -1.976562 3.359375 -1.9375 C 3.378906 -1.894531 3.378906 -1.859375 3.359375 -1.828125 C 3.117188 -1.347656 2.894531 -0.976562 2.6875 -0.71875 C 2.488281 -0.457031 2.28125 -0.335938 2.0625 -0.359375 C 1.789062 -0.367188 1.554688 -0.660156 1.359375 -1.234375 C 1.296875 -1.410156 1.242188 -1.535156 1.203125 -1.609375 C 1.160156 -1.691406 1.125 -1.742188 1.09375 -1.765625 C 1.0625 -1.785156 1.039062 -1.796875 1.03125 -1.796875 C 1.007812 -1.796875 0.976562 -1.773438 0.9375 -1.734375 C 0.894531 -1.691406 0.828125 -1.597656 0.734375 -1.453125 C 0.640625 -1.316406 0.53125 -1.101562 0.40625 -0.8125 C 0.289062 -0.53125 0.140625 -0.140625 -0.046875 0.359375 C -0.0664062 0.421875 -0.113281 0.457031 -0.1875 0.46875 C -0.195312 0.46875 -0.210938 0.46875 -0.234375 0.46875 C -0.328125 0.445312 -0.367188 0.390625 -0.359375 0.296875 C -0.335938 0.0664062 -0.296875 -0.195312 -0.234375 -0.5 C -0.179688 -0.8125 -0.117188 -1.125 -0.046875 -1.4375 C 0.0234375 -1.757812 0.09375 -2.046875 0.15625 -2.296875 C 0.15625 -2.347656 0.160156 -2.394531 0.171875 -2.4375 C 0.191406 -2.488281 0.207031 -2.539062 0.21875 -2.59375 C 0.238281 -2.632812 0.265625 -2.664062 0.296875 -2.6875 C 0.328125 -2.71875 0.363281 -2.726562 0.40625 -2.71875 C 0.445312 -2.695312 0.476562 -2.664062 0.5 -2.625 C 0.53125 -2.59375 0.539062 -2.554688 0.53125 -2.515625 C 0.519531 -2.460938 0.507812 -2.410156 0.5 -2.359375 C 0.488281 -2.316406 0.472656 -2.269531 0.453125 -2.21875 C 0.429688 -2.070312 0.394531 -1.910156 0.34375 -1.734375 C 0.300781 -1.554688 0.257812 -1.378906 0.21875 -1.203125 C 0.382812 -1.566406 0.53125 -1.804688 0.65625 -1.921875 C 0.789062 -2.046875 0.914062 -2.113281 1.03125 -2.125 C 1.1875 -2.113281 1.3125 -2.03125 1.40625 -1.875 C 1.507812 -1.71875 1.597656 -1.535156 1.671875 -1.328125 C 1.765625 -1.035156 1.847656 -0.851562 1.921875 -0.78125 C 2.003906 -0.707031 2.0625 -0.671875 2.09375 -0.671875 C 2.164062 -0.660156 2.25 -0.703125 2.34375 -0.796875 C 2.4375 -0.898438 2.53125 -1.023438 2.625 -1.171875 C 2.71875 -1.316406 2.800781 -1.460938 2.875 -1.609375 C 2.957031 -1.753906 3.019531 -1.875 3.0625 -1.96875 C 3.082031 -2.007812 3.113281 -2.035156 3.15625 -2.046875 C 3.195312 -2.066406 3.238281 -2.066406 3.28125 -2.046875 Z M 3.28125 -2.046875 "/></g></g><g style="fill:#ffffff;fill-opacity:1;"><g transform="translate(34.858782, 11.89385)"><path style="stroke:none" d="M 4 -2.046875 C 4.03125 -2.015625 4.039062 -1.972656 4.03125 -1.921875 C 4.03125 -1.878906 4.007812 -1.847656 3.96875 -1.828125 C 3.570312 -1.535156 3.175781 -1.222656 2.78125 -0.890625 C 2.394531 -0.566406 2.015625 -0.195312 1.640625 0.21875 C 1.398438 2.195312 1.117188 3.8125 0.796875 5.0625 C 0.734375 5.320312 0.65625 5.582031 0.5625 5.84375 C 0.476562 6.101562 0.382812 6.347656 0.28125 6.578125 C 0.175781 6.804688 0.0664062 7 -0.046875 7.15625 C -0.171875 7.320312 -0.296875 7.425781 -0.421875 7.46875 C -0.460938 7.488281 -0.503906 7.5 -0.546875 7.5 C -0.679688 7.507812 -0.800781 7.457031 -0.90625 7.34375 C -1.019531 7.195312 -1.101562 6.972656 -1.15625 6.671875 C -1.207031 6.367188 -1.21875 6.007812 -1.1875 5.59375 C -1.164062 5.1875 -1.09375 4.742188 -0.96875 4.265625 C -0.851562 3.796875 -0.6875 3.328125 -0.46875 2.859375 C -0.207031 2.296875 0.0703125 1.78125 0.375 1.3125 C 0.675781 0.851562 0.992188 0.441406 1.328125 0.078125 C 1.390625 -0.460938 1.445312 -1.019531 1.5 -1.59375 C 1.4375 -1.476562 1.363281 -1.359375 1.28125 -1.234375 C 1.207031 -1.117188 1.128906 -1.015625 1.046875 -0.921875 C 0.941406 -0.773438 0.84375 -0.675781 0.75 -0.625 C 0.65625 -0.582031 0.570312 -0.5625 0.5 -0.5625 C 0.4375 -0.570312 0.390625 -0.59375 0.359375 -0.625 C 0.234375 -0.695312 0.144531 -0.820312 0.09375 -1 C 0.0390625 -1.175781 0.0195312 -1.394531 0.03125 -1.65625 C 0.0507812 -1.925781 0.113281 -2.203125 0.21875 -2.484375 C 0.238281 -2.515625 0.269531 -2.539062 0.3125 -2.5625 C 0.351562 -2.59375 0.390625 -2.597656 0.421875 -2.578125 C 0.460938 -2.554688 0.492188 -2.523438 0.515625 -2.484375 C 0.535156 -2.453125 0.535156 -2.414062 0.515625 -2.375 C 0.429688 -2.101562 0.378906 -1.859375 0.359375 -1.640625 C 0.347656 -1.429688 0.359375 -1.265625 0.390625 -1.140625 C 0.421875 -1.015625 0.460938 -0.9375 0.515625 -0.90625 C 0.578125 -0.875 0.671875 -0.941406 0.796875 -1.109375 C 0.898438 -1.234375 1 -1.378906 1.09375 -1.546875 C 1.195312 -1.710938 1.289062 -1.875 1.375 -2.03125 C 1.46875 -2.1875 1.539062 -2.3125 1.59375 -2.40625 C 1.632812 -2.5 1.695312 -2.53125 1.78125 -2.5 C 1.863281 -2.476562 1.90625 -2.421875 1.90625 -2.328125 C 1.84375 -1.628906 1.773438 -0.96875 1.703125 -0.34375 C 2.046875 -0.675781 2.390625 -0.988281 2.734375 -1.28125 C 3.078125 -1.570312 3.425781 -1.835938 3.78125 -2.078125 C 3.8125 -2.109375 3.847656 -2.117188 3.890625 -2.109375 C 3.941406 -2.109375 3.976562 -2.085938 4 -2.046875 Z M 0.484375 4.984375 C 0.785156 3.859375 1.046875 2.414062 1.265625 0.65625 C 1.003906 0.976562 0.75 1.332031 0.5 1.71875 C 0.257812 2.101562 0.0351562 2.53125 -0.171875 3 C -0.398438 3.488281 -0.570312 3.960938 -0.6875 4.421875 C -0.800781 4.890625 -0.863281 5.304688 -0.875 5.671875 C -0.894531 6.046875 -0.882812 6.359375 -0.84375 6.609375 C -0.800781 6.867188 -0.738281 7.035156 -0.65625 7.109375 C -0.625 7.148438 -0.597656 7.171875 -0.578125 7.171875 C -0.554688 7.171875 -0.539062 7.171875 -0.53125 7.171875 C -0.507812 7.160156 -0.46875 7.128906 -0.40625 7.078125 C -0.351562 7.023438 -0.28125 6.925781 -0.1875 6.78125 C -0.09375 6.632812 0.0078125 6.421875 0.125 6.140625 C 0.238281 5.859375 0.359375 5.472656 0.484375 4.984375 Z M 0.484375 4.984375 "/></g></g><g style="fill:#ffffff;fill-opacity:1;"><g transform="translate(38.564775, 11.707637)"><path style="stroke:none" d="M 3.25 -1.984375 C 3.28125 -1.960938 3.300781 -1.925781 3.3125 -1.875 C 3.332031 -1.832031 3.332031 -1.796875 3.3125 -1.765625 C 3.269531 -1.691406 3.203125 -1.578125 3.109375 -1.421875 C 3.023438 -1.265625 2.914062 -1.085938 2.78125 -0.890625 C 2.65625 -0.703125 2.519531 -0.519531 2.375 -0.34375 C 2.226562 -0.164062 2.082031 -0.0195312 1.9375 0.09375 C 1.789062 0.21875 1.65625 0.28125 1.53125 0.28125 C 1.488281 0.28125 1.453125 0.269531 1.421875 0.25 C 1.273438 0.21875 1.175781 0.101562 1.125 -0.09375 C 1.082031 -0.300781 1.082031 -0.609375 1.125 -1.015625 C 1.050781 -0.898438 0.972656 -0.789062 0.890625 -0.6875 C 0.816406 -0.59375 0.738281 -0.5 0.65625 -0.40625 C 0.507812 -0.269531 0.382812 -0.210938 0.28125 -0.234375 C 0.1875 -0.265625 0.117188 -0.289062 0.078125 -0.3125 C -0.015625 -0.394531 -0.078125 -0.519531 -0.109375 -0.6875 C -0.148438 -0.863281 -0.15625 -1.054688 -0.125 -1.265625 C -0.09375 -1.472656 -0.0234375 -1.679688 0.078125 -1.890625 C 0.0976562 -1.921875 0.128906 -1.941406 0.171875 -1.953125 C 0.210938 -1.960938 0.253906 -1.957031 0.296875 -1.9375 C 0.335938 -1.914062 0.363281 -1.882812 0.375 -1.84375 C 0.382812 -1.8125 0.382812 -1.769531 0.375 -1.71875 C 0.269531 -1.550781 0.207031 -1.382812 0.1875 -1.21875 C 0.164062 -1.0625 0.164062 -0.921875 0.1875 -0.796875 C 0.207031 -0.679688 0.234375 -0.609375 0.265625 -0.578125 C 0.285156 -0.554688 0.3125 -0.554688 0.34375 -0.578125 C 0.382812 -0.609375 0.410156 -0.628906 0.421875 -0.640625 C 0.535156 -0.742188 0.632812 -0.859375 0.71875 -0.984375 C 0.800781 -1.109375 0.875 -1.222656 0.9375 -1.328125 C 1.019531 -1.460938 1.085938 -1.554688 1.140625 -1.609375 C 1.203125 -1.671875 1.273438 -1.691406 1.359375 -1.671875 C 1.429688 -1.640625 1.46875 -1.578125 1.46875 -1.484375 C 1.476562 -1.390625 1.472656 -1.257812 1.453125 -1.09375 C 1.410156 -0.769531 1.394531 -0.535156 1.40625 -0.390625 C 1.425781 -0.242188 1.445312 -0.148438 1.46875 -0.109375 C 1.488281 -0.0664062 1.503906 -0.046875 1.515625 -0.046875 C 1.578125 -0.015625 1.75 -0.148438 2.03125 -0.453125 C 2.320312 -0.765625 2.648438 -1.253906 3.015625 -1.921875 C 3.046875 -1.953125 3.082031 -1.972656 3.125 -1.984375 C 3.164062 -2.003906 3.207031 -2.003906 3.25 -1.984375 Z M 3.25 -1.984375 "/></g></g><g clip-rule="nonzero" clip-path="url(#71adb1b40e)"><g clip-rule="nonzero" clip-path="url(#9137ad0c4e)"><g clip-rule="nonzero" clip-path="url(#b60aea526b)"><path style=" stroke:none;fill-rule:evenodd;fill:#ffffff;fill-opacity:1;" d="M 2.449219 10.875 C 2.40625 10.941406 2.316406 10.957031 2.25 10.914062 C 2.183594 10.867188 2.164062 10.78125 2.210938 10.714844 C 2.484375 10.300781 2.738281 9.976562 3.015625 9.707031 L 3.023438 9.699219 C 3.304688 9.429688 3.609375 9.214844 3.988281 9.019531 C 6.433594 7.761719 10.023438 8.324219 13.527344 8.871094 C 18.394531 9.628906 23.085938 10.363281 24.046875 6.042969 C 24.0625 5.964844 24.140625 5.917969 24.21875 5.933594 C 24.296875 5.953125 24.347656 6.027344 24.328125 6.105469 C 23.308594 10.691406 18.488281 9.9375 13.484375 9.15625 C 10.027344 8.613281 6.480469 8.0625 4.121094 9.277344 C 3.765625 9.457031 3.480469 9.65625 3.222656 9.90625 L 3.21875 9.914062 C 2.957031 10.167969 2.714844 10.476562 2.449219 10.875 Z M 2.449219 10.875 "/></g></g></g><g clip-rule="nonzero" clip-path="url(#3a885cf07a)"><g clip-rule="nonzero" clip-path="url(#e61e8b8585)"><g clip-rule="nonzero" clip-path="url(#68bf1d24ab)"><path style=" stroke:none;fill-rule:evenodd;fill:#ffffff;fill-opacity:1;" d="M 51.398438 26.992188 C 51.351562 27.054688 51.261719 27.066406 51.203125 27.019531 C 51.140625 26.976562 51.125 26.886719 51.171875 26.828125 C 51.457031 26.441406 51.714844 26.140625 51.996094 25.890625 L 52.003906 25.882812 C 52.285156 25.636719 52.585938 25.445312 52.964844 25.269531 C 55.375 24.164062 58.816406 24.867188 62.167969 25.546875 C 66.832031 26.496094 71.324219 27.410156 72.441406 23.289062 C 72.460938 23.214844 72.539062 23.167969 72.613281 23.1875 C 72.6875 23.210938 72.730469 23.285156 72.710938 23.359375 C 71.523438 27.734375 66.90625 26.796875 62.113281 25.820312 C 58.804688 25.148438 55.410156 24.457031 53.078125 25.523438 C 52.726562 25.683594 52.445312 25.863281 52.1875 26.09375 L 52.179688 26.097656 C 51.917969 26.332031 51.671875 26.621094 51.398438 26.992188 Z M 51.398438 26.992188 "/></g></g></g><g style="fill:#ffffff;fill-opacity:1;"><g transform="translate(21.410497, 39.711324)"><path style="stroke:none" d="M 0.859375 0.015625 C 0.710938 0.015625 0.585938 -0.0195312 0.484375 -0.09375 C 0.378906 -0.175781 0.296875 -0.285156 0.234375 -0.421875 C 0.179688 -0.566406 0.15625 -0.726562 0.15625 -0.90625 C 0.15625 -1.09375 0.179688 -1.253906 0.234375 -1.390625 C 0.296875 -1.535156 0.378906 -1.644531 0.484375 -1.71875 C 0.585938 -1.800781 0.710938 -1.84375 0.859375 -1.84375 C 0.992188 -1.84375 1.113281 -1.800781 1.21875 -1.71875 C 1.320312 -1.644531 1.40625 -1.535156 1.46875 -1.390625 C 1.53125 -1.253906 1.5625 -1.09375 1.5625 -0.90625 C 1.5625 -0.726562 1.53125 -0.566406 1.46875 -0.421875 C 1.40625 -0.285156 1.320312 -0.175781 1.21875 -0.09375 C 1.113281 -0.0195312 0.992188 0.015625 0.859375 0.015625 Z M 0.859375 -0.078125 C 0.972656 -0.078125 1.078125 -0.109375 1.171875 -0.171875 C 1.265625 -0.242188 1.335938 -0.34375 1.390625 -0.46875 C 1.441406 -0.59375 1.46875 -0.738281 1.46875 -0.90625 C 1.46875 -1.082031 1.441406 -1.234375 1.390625 -1.359375 C 1.335938 -1.484375 1.265625 -1.578125 1.171875 -1.640625 C 1.078125 -1.710938 0.972656 -1.75 0.859375 -1.75 C 0.734375 -1.75 0.625 -1.710938 0.53125 -1.640625 C 0.4375 -1.578125 0.363281 -1.484375 0.3125 -1.359375 C 0.257812 -1.234375 0.234375 -1.082031 0.234375 -0.90625 C 0.234375 -0.738281 0.257812 -0.59375 0.3125 -0.46875 C 0.363281 -0.34375 0.4375 -0.242188 0.53125 -0.171875 C 0.625 -0.109375 0.734375 -0.078125 0.859375 -0.078125 Z M 0.859375 -0.078125 "/></g></g><g style="fill:#ffffff;fill-opacity:1;"><g transform="translate(25.202235, 39.711324)"><path style="stroke:none" d="M 1.0625 -0.953125 C 1.195312 -0.921875 1.300781 -0.863281 1.375 -0.78125 C 1.457031 -0.707031 1.5 -0.613281 1.5 -0.5 C 1.5 -0.34375 1.4375 -0.21875 1.3125 -0.125 C 1.195312 -0.03125 1.03125 0.015625 0.8125 0.015625 C 0.601562 0.015625 0.4375 -0.03125 0.3125 -0.125 C 0.195312 -0.21875 0.140625 -0.34375 0.140625 -0.5 C 0.140625 -0.613281 0.175781 -0.707031 0.25 -0.78125 C 0.320312 -0.863281 0.425781 -0.921875 0.5625 -0.953125 C 0.445312 -0.984375 0.359375 -1.035156 0.296875 -1.109375 C 0.234375 -1.179688 0.203125 -1.269531 0.203125 -1.375 C 0.203125 -1.519531 0.253906 -1.632812 0.359375 -1.71875 C 0.472656 -1.800781 0.625 -1.84375 0.8125 -1.84375 C 1 -1.84375 1.148438 -1.800781 1.265625 -1.71875 C 1.378906 -1.632812 1.4375 -1.519531 1.4375 -1.375 C 1.4375 -1.269531 1.398438 -1.179688 1.328125 -1.109375 C 1.265625 -1.035156 1.175781 -0.984375 1.0625 -0.953125 Z M 0.296875 -1.375 C 0.296875 -1.257812 0.335938 -1.164062 0.421875 -1.09375 C 0.515625 -1.019531 0.644531 -0.984375 0.8125 -0.984375 C 0.976562 -0.984375 1.109375 -1.019531 1.203125 -1.09375 C 1.296875 -1.164062 1.34375 -1.257812 1.34375 -1.375 C 1.34375 -1.488281 1.296875 -1.582031 1.203125 -1.65625 C 1.109375 -1.726562 0.976562 -1.765625 0.8125 -1.765625 C 0.65625 -1.765625 0.53125 -1.726562 0.4375 -1.65625 C 0.34375 -1.582031 0.296875 -1.488281 0.296875 -1.375 Z M 0.8125 -0.0625 C 1 -0.0625 1.144531 -0.0976562 1.25 -0.171875 C 1.351562 -0.253906 1.40625 -0.363281 1.40625 -0.5 C 1.40625 -0.625 1.351562 -0.722656 1.25 -0.796875 C 1.144531 -0.878906 1 -0.921875 0.8125 -0.921875 C 0.625 -0.921875 0.476562 -0.878906 0.375 -0.796875 C 0.28125 -0.722656 0.234375 -0.625 0.234375 -0.5 C 0.234375 -0.363281 0.28125 -0.253906 0.375 -0.171875 C 0.476562 -0.0976562 0.625 -0.0625 0.8125 -0.0625 Z M 0.8125 -0.0625 "/></g></g><g style="fill:#ffffff;fill-opacity:1;"><g transform="translate(28.921044, 39.711324)"><path style="stroke:none" d="M 0.8125 -2.203125 L 0.890625 -2.203125 L 0.03125 0.265625 L -0.0625 0.265625 Z M 0.8125 -2.203125 "/></g></g><g style="fill:#ffffff;fill-opacity:1;"><g transform="translate(31.811588, 39.711324)"><path style="stroke:none" d="M 0.578125 -1.828125 L 0.578125 0 L 0.484375 0 L 0.484375 -1.75 L 0.03125 -1.75 L 0.03125 -1.828125 Z M 0.578125 -1.828125 "/></g></g><g style="fill:#ffffff;fill-opacity:1;"><g transform="translate(34.801108, 39.711324)"><path style="stroke:none" d="M 1.375 -1.828125 L 1.375 -1.765625 L 0.578125 0 L 0.484375 0 L 1.28125 -1.75 L 0.171875 -1.75 L 0.171875 -1.390625 L 0.09375 -1.390625 L 0.09375 -1.828125 Z M 1.375 -1.828125 "/></g></g><g style="fill:#ffffff;fill-opacity:1;"><g transform="translate(38.384476, 39.711324)"><path style="stroke:none" d="M 0.8125 -2.203125 L 0.890625 -2.203125 L 0.03125 0.265625 L -0.0625 0.265625 Z M 0.8125 -2.203125 "/></g></g><g style="fill:#ffffff;fill-opacity:1;"><g transform="translate(41.27502, 39.711324)"><path style="stroke:none" d="M 1.34375 -0.078125 L 1.34375 0 L 0.109375 0 L 0.109375 -0.0625 L 0.890625 -0.84375 C 0.992188 -0.957031 1.0625 -1.050781 1.09375 -1.125 C 1.132812 -1.195312 1.15625 -1.273438 1.15625 -1.359375 C 1.15625 -1.484375 1.113281 -1.578125 1.03125 -1.640625 C 0.945312 -1.710938 0.828125 -1.75 0.671875 -1.75 C 0.554688 -1.75 0.453125 -1.734375 0.359375 -1.703125 C 0.265625 -1.671875 0.1875 -1.613281 0.125 -1.53125 L 0.0625 -1.59375 C 0.207031 -1.757812 0.410156 -1.84375 0.671875 -1.84375 C 0.847656 -1.84375 0.988281 -1.796875 1.09375 -1.703125 C 1.195312 -1.617188 1.25 -1.503906 1.25 -1.359375 C 1.25 -1.265625 1.226562 -1.175781 1.1875 -1.09375 C 1.144531 -1.007812 1.066406 -0.910156 0.953125 -0.796875 L 0.25 -0.078125 Z M 1.34375 -0.078125 "/></g></g><g style="fill:#ffffff;fill-opacity:1;"><g transform="translate(44.814111, 39.711324)"><path style="stroke:none" d="M 0.859375 0.015625 C 0.710938 0.015625 0.585938 -0.0195312 0.484375 -0.09375 C 0.378906 -0.175781 0.296875 -0.285156 0.234375 -0.421875 C 0.179688 -0.566406 0.15625 -0.726562 0.15625 -0.90625 C 0.15625 -1.09375 0.179688 -1.253906 0.234375 -1.390625 C 0.296875 -1.535156 0.378906 -1.644531 0.484375 -1.71875 C 0.585938 -1.800781 0.710938 -1.84375 0.859375 -1.84375 C 0.992188 -1.84375 1.113281 -1.800781 1.21875 -1.71875 C 1.320312 -1.644531 1.40625 -1.535156 1.46875 -1.390625 C 1.53125 -1.253906 1.5625 -1.09375 1.5625 -0.90625 C 1.5625 -0.726562 1.53125 -0.566406 1.46875 -0.421875 C 1.40625 -0.285156 1.320312 -0.175781 1.21875 -0.09375 C 1.113281 -0.0195312 0.992188 0.015625 0.859375 0.015625 Z M 0.859375 -0.078125 C 0.972656 -0.078125 1.078125 -0.109375 1.171875 -0.171875 C 1.265625 -0.242188 1.335938 -0.34375 1.390625 -0.46875 C 1.441406 -0.59375 1.46875 -0.738281 1.46875 -0.90625 C 1.46875 -1.082031 1.441406 -1.234375 1.390625 -1.359375 C 1.335938 -1.484375 1.265625 -1.578125 1.171875 -1.640625 C 1.078125 -1.710938 0.972656 -1.75 0.859375 -1.75 C 0.734375 -1.75 0.625 -1.710938 0.53125 -1.640625 C 0.4375 -1.578125 0.363281 -1.484375 0.3125 -1.359375 C 0.257812 -1.234375 0.234375 -1.082031 0.234375 -0.90625 C 0.234375 -0.738281 0.257812 -0.59375 0.3125 -0.46875 C 0.363281 -0.34375 0.4375 -0.242188 0.53125 -0.171875 C 0.625 -0.109375 0.734375 -0.078125 0.859375 -0.078125 Z M 0.859375 -0.078125 "/></g></g><g style="fill:#ffffff;fill-opacity:1;"><g transform="translate(48.605849, 39.711324)"><path style="stroke:none" d="M 1.34375 -0.078125 L 1.34375 0 L 0.109375 0 L 0.109375 -0.0625 L 0.890625 -0.84375 C 0.992188 -0.957031 1.0625 -1.050781 1.09375 -1.125 C 1.132812 -1.195312 1.15625 -1.273438 1.15625 -1.359375 C 1.15625 -1.484375 1.113281 -1.578125 1.03125 -1.640625 C 0.945312 -1.710938 0.828125 -1.75 0.671875 -1.75 C 0.554688 -1.75 0.453125 -1.734375 0.359375 -1.703125 C 0.265625 -1.671875 0.1875 -1.613281 0.125 -1.53125 L 0.0625 -1.59375 C 0.207031 -1.757812 0.410156 -1.84375 0.671875 -1.84375 C 0.847656 -1.84375 0.988281 -1.796875 1.09375 -1.703125 C 1.195312 -1.617188 1.25 -1.503906 1.25 -1.359375 C 1.25 -1.265625 1.226562 -1.175781 1.1875 -1.09375 C 1.144531 -1.007812 1.066406 -0.910156 0.953125 -0.796875 L 0.25 -0.078125 Z M 1.34375 -0.078125 "/></g></g><g style="fill:#ffffff;fill-opacity:1;"><g transform="translate(52.14494, 39.711324)"><path style="stroke:none" d="M 0.5625 -1.046875 C 0.832031 -1.046875 1.023438 -1 1.140625 -0.90625 C 1.265625 -0.8125 1.328125 -0.679688 1.328125 -0.515625 C 1.328125 -0.410156 1.300781 -0.316406 1.25 -0.234375 C 1.207031 -0.160156 1.140625 -0.0976562 1.046875 -0.046875 C 0.953125 -0.00390625 0.835938 0.015625 0.703125 0.015625 C 0.578125 0.015625 0.457031 -0.00390625 0.34375 -0.046875 C 0.226562 -0.0976562 0.140625 -0.164062 0.078125 -0.25 L 0.125 -0.3125 C 0.175781 -0.238281 0.253906 -0.179688 0.359375 -0.140625 C 0.460938 -0.0976562 0.578125 -0.078125 0.703125 -0.078125 C 0.878906 -0.078125 1.007812 -0.113281 1.09375 -0.1875 C 1.1875 -0.269531 1.234375 -0.378906 1.234375 -0.515625 C 1.234375 -0.660156 1.179688 -0.769531 1.078125 -0.84375 C 0.972656 -0.925781 0.796875 -0.96875 0.546875 -0.96875 L 0.203125 -0.96875 L 0.296875 -1.828125 L 1.234375 -1.828125 L 1.234375 -1.75 L 0.359375 -1.75 L 0.28125 -1.046875 Z M 0.5625 -1.046875 "/></g></g><g style="fill:#ffffff;fill-opacity:1;"><g transform="translate(42.152571, 16.333267)"><path style="stroke:none" d="M 3.171875 -1.390625 C 3.234375 -1.304688 3.222656 -1.1875 3.140625 -1.03125 C 3.066406 -0.875 2.929688 -0.703125 2.734375 -0.515625 C 2.609375 -0.390625 2.453125 -0.265625 2.265625 -0.140625 C 2.316406 -0.046875 2.375 0.0507812 2.4375 0.15625 C 2.507812 0.257812 2.585938 0.359375 2.671875 0.453125 C 2.691406 0.472656 2.703125 0.503906 2.703125 0.546875 C 2.703125 0.585938 2.6875 0.625 2.65625 0.65625 C 2.632812 0.675781 2.609375 0.6875 2.578125 0.6875 C 2.523438 0.6875 2.476562 0.671875 2.4375 0.640625 C 2.289062 0.453125 2.148438 0.238281 2.015625 0 C 1.796875 0.113281 1.5625 0.207031 1.3125 0.28125 C 1.070312 0.363281 0.847656 0.40625 0.640625 0.40625 C 0.441406 0.414062 0.296875 0.375 0.203125 0.28125 C -0.0664062 0.0195312 0.148438 -0.488281 0.859375 -1.25 C 0.984375 -1.394531 1.097656 -1.53125 1.203125 -1.65625 C 1.304688 -1.789062 1.40625 -1.910156 1.5 -2.015625 C 1.476562 -2.367188 1.484375 -2.710938 1.515625 -3.046875 C 1.566406 -3.359375 1.65625 -3.597656 1.78125 -3.765625 C 1.90625 -3.941406 2.035156 -4.046875 2.171875 -4.078125 C 2.328125 -4.097656 2.453125 -4.039062 2.546875 -3.90625 C 2.628906 -3.75 2.617188 -3.503906 2.515625 -3.171875 C 2.421875 -2.847656 2.179688 -2.429688 1.796875 -1.921875 C 1.816406 -1.679688 1.851562 -1.429688 1.90625 -1.171875 C 1.96875 -0.921875 2.050781 -0.671875 2.15625 -0.421875 C 2.300781 -0.515625 2.425781 -0.613281 2.53125 -0.71875 C 2.664062 -0.84375 2.757812 -0.941406 2.8125 -1.015625 C 2.875 -1.097656 2.910156 -1.164062 2.921875 -1.21875 C 2.921875 -1.21875 2.910156 -1.210938 2.890625 -1.203125 C 2.859375 -1.179688 2.820312 -1.179688 2.78125 -1.203125 C 2.738281 -1.222656 2.710938 -1.253906 2.703125 -1.296875 C 2.679688 -1.328125 2.675781 -1.359375 2.6875 -1.390625 C 2.707031 -1.429688 2.738281 -1.457031 2.78125 -1.46875 C 2.914062 -1.519531 3.007812 -1.523438 3.0625 -1.484375 C 3.125 -1.453125 3.160156 -1.421875 3.171875 -1.390625 Z M 1.828125 -3 C 1.804688 -2.914062 1.789062 -2.820312 1.78125 -2.71875 C 1.78125 -2.625 1.785156 -2.519531 1.796875 -2.40625 C 1.960938 -2.675781 2.085938 -2.898438 2.171875 -3.078125 C 2.253906 -3.265625 2.300781 -3.410156 2.3125 -3.515625 C 2.320312 -3.628906 2.3125 -3.707031 2.28125 -3.75 C 2.269531 -3.769531 2.253906 -3.78125 2.234375 -3.78125 C 2.234375 -3.78125 2.226562 -3.78125 2.21875 -3.78125 C 2.15625 -3.757812 2.078125 -3.679688 1.984375 -3.546875 C 1.898438 -3.421875 1.847656 -3.238281 1.828125 -3 Z M 0.40625 0.078125 C 0.46875 0.128906 0.578125 0.144531 0.734375 0.125 C 0.890625 0.113281 1.070312 0.0703125 1.28125 0 C 1.488281 -0.0625 1.691406 -0.148438 1.890625 -0.265625 C 1.796875 -0.484375 1.71875 -0.703125 1.65625 -0.921875 C 1.601562 -1.148438 1.566406 -1.378906 1.546875 -1.609375 C 1.398438 -1.421875 1.242188 -1.238281 1.078125 -1.0625 C 0.847656 -0.8125 0.675781 -0.609375 0.5625 -0.453125 C 0.457031 -0.296875 0.398438 -0.171875 0.390625 -0.078125 C 0.378906 0.00390625 0.382812 0.0546875 0.40625 0.078125 Z M 0.40625 0.078125 "/></g></g></g></svg>