<svg xmlns="http://www.w3.org/2000/svg" xmlns:xlink="http://www.w3.org/1999/xlink" width="300" zoomAndPan="magnify" viewBox="0 0 224.87999 74.999997" height="100" preserveAspectRatio="xMidYMid meet" version="1.2"><defs/><g id="d5fe26dad4"><g style="fill:#6e4c27;fill-opacity:1;"><g transform="translate(18.168938, 48.028476)"><path style="stroke:none" d="M 32.296875 -15.03125 C 32.421875 -15.03125 32.53125 -14.984375 32.625 -14.890625 C 32.726562 -14.796875 32.773438 -14.679688 32.765625 -14.546875 L 32.75 -14.453125 C 32.675781 -14.085938 32.476562 -13.597656 32.15625 -12.984375 C 31.832031 -12.367188 31.414062 -11.671875 30.90625 -10.890625 C 30.394531 -10.109375 29.8125 -9.289062 29.15625 -8.4375 C 28.5 -7.582031 27.789062 -6.726562 27.03125 -5.875 C 26.28125 -5.03125 25.5 -4.222656 24.6875 -3.453125 C 23.882812 -2.679688 23.078125 -2 22.265625 -1.40625 C 21.453125 -0.8125 20.664062 -0.34375 19.90625 0 C 19.144531 0.34375 18.429688 0.515625 17.765625 0.515625 C 17.179688 0.515625 16.71875 0.34375 16.375 0 C 16.03125 -0.34375 15.859375 -0.804688 15.859375 -1.390625 C 15.859375 -2.046875 15.960938 -2.800781 16.171875 -3.65625 C 16.390625 -4.507812 16.691406 -5.382812 17.078125 -6.28125 C 17.097656 -6.320312 17.113281 -6.351562 17.125 -6.375 C 17.144531 -6.40625 17.15625 -6.425781 17.15625 -6.4375 C 17.15625 -6.414062 17.097656 -6.363281 16.984375 -6.28125 C 15.929688 -5.40625 14.851562 -4.5625 13.75 -3.75 C 12.65625 -2.9375 11.582031 -2.179688 10.53125 -1.484375 C 9.488281 -0.785156 8.484375 -0.171875 7.515625 0.359375 C 6.554688 0.890625 5.675781 1.300781 4.875 1.59375 C 4.070312 1.882812 3.378906 2.03125 2.796875 2.03125 C 2.210938 2.03125 1.742188 1.84375 1.390625 1.46875 C 1.046875 1.09375 0.875 0.59375 0.875 -0.03125 C 0.875 -0.625 1.003906 -1.320312 1.265625 -2.125 C 1.523438 -2.925781 1.894531 -3.789062 2.375 -4.71875 C 2.851562 -5.65625 3.40625 -6.625 4.03125 -7.625 C 4.664062 -8.625 5.351562 -9.617188 6.09375 -10.609375 C 6.84375 -11.609375 7.625 -12.570312 8.4375 -13.5 C 9.25 -14.4375 10.066406 -15.300781 10.890625 -16.09375 C 11.722656 -16.894531 12.535156 -17.59375 13.328125 -18.1875 C 14.128906 -18.789062 14.890625 -19.257812 15.609375 -19.59375 C 16.328125 -19.925781 16.976562 -20.09375 17.5625 -20.09375 C 17.6875 -20.09375 17.796875 -20.046875 17.890625 -19.953125 C 17.984375 -19.859375 18.03125 -19.75 18.03125 -19.625 C 18.03125 -19.5 17.984375 -19.390625 17.890625 -19.296875 C 17.796875 -19.203125 17.6875 -19.15625 17.5625 -19.15625 C 17.03125 -19.15625 16.429688 -18.992188 15.765625 -18.671875 C 15.097656 -18.347656 14.390625 -17.898438 13.640625 -17.328125 C 12.898438 -16.753906 12.140625 -16.085938 11.359375 -15.328125 C 10.578125 -14.566406 9.800781 -13.738281 9.03125 -12.84375 C 8.257812 -11.957031 7.519531 -11.035156 6.8125 -10.078125 C 6.101562 -9.128906 5.441406 -8.179688 4.828125 -7.234375 C 4.222656 -6.285156 3.695312 -5.367188 3.25 -4.484375 C 2.800781 -3.597656 2.445312 -2.773438 2.1875 -2.015625 C 1.9375 -1.253906 1.8125 -0.59375 1.8125 -0.03125 C 1.8125 0.71875 2.140625 1.09375 2.796875 1.09375 C 3.296875 1.09375 3.882812 0.96875 4.5625 0.71875 C 5.25 0.476562 6.003906 0.144531 6.828125 -0.28125 C 7.648438 -0.707031 8.515625 -1.21875 9.421875 -1.8125 C 10.335938 -2.40625 11.273438 -3.046875 12.234375 -3.734375 C 13.191406 -4.429688 14.148438 -5.160156 15.109375 -5.921875 C 16.078125 -6.691406 17.019531 -7.46875 17.9375 -8.25 C 17.957031 -8.257812 17.976562 -8.285156 18 -8.328125 C 18.488281 -9.304688 19.023438 -10.269531 19.609375 -11.21875 C 20.191406 -12.164062 20.796875 -13.054688 21.421875 -13.890625 C 22.046875 -14.734375 22.671875 -15.472656 23.296875 -16.109375 C 23.921875 -16.753906 24.515625 -17.257812 25.078125 -17.625 C 25.640625 -17.988281 26.144531 -18.171875 26.59375 -18.171875 C 26.789062 -18.171875 26.945312 -18.109375 27.0625 -17.984375 C 27.1875 -17.867188 27.25 -17.707031 27.25 -17.5 C 27.25 -17.15625 27.050781 -16.664062 26.65625 -16.03125 C 26.257812 -15.40625 25.691406 -14.664062 24.953125 -13.8125 C 24.210938 -12.96875 23.328125 -12.039062 22.296875 -11.03125 C 21.273438 -10.03125 20.132812 -8.984375 18.875 -7.890625 C 18.875 -7.878906 18.851562 -7.851562 18.8125 -7.8125 C 18.164062 -6.488281 17.664062 -5.273438 17.3125 -4.171875 C 16.96875 -3.066406 16.796875 -2.140625 16.796875 -1.390625 C 16.796875 -0.753906 17.117188 -0.4375 17.765625 -0.4375 C 18.378906 -0.4375 19.035156 -0.597656 19.734375 -0.921875 C 20.441406 -1.242188 21.171875 -1.6875 21.921875 -2.25 C 22.679688 -2.820312 23.441406 -3.472656 24.203125 -4.203125 C 24.960938 -4.929688 25.695312 -5.703125 26.40625 -6.515625 C 27.125 -7.335938 27.796875 -8.15625 28.421875 -8.96875 C 29.046875 -9.78125 29.597656 -10.550781 30.078125 -11.28125 C 30.566406 -12.019531 30.960938 -12.679688 31.265625 -13.265625 C 31.578125 -13.847656 31.765625 -14.3125 31.828125 -14.65625 C 31.859375 -14.769531 31.914062 -14.859375 32 -14.921875 C 32.082031 -14.992188 32.179688 -15.03125 32.296875 -15.03125 Z M 26.28125 -17.1875 C 26.070312 -17.1875 25.789062 -17.054688 25.4375 -16.796875 C 25.082031 -16.546875 24.679688 -16.191406 24.234375 -15.734375 C 23.796875 -15.273438 23.332031 -14.75 22.84375 -14.15625 C 22.363281 -13.5625 21.890625 -12.925781 21.421875 -12.25 C 20.953125 -11.582031 20.519531 -10.898438 20.125 -10.203125 C 20.769531 -10.796875 21.394531 -11.390625 22 -11.984375 C 22.601562 -12.585938 23.164062 -13.164062 23.6875 -13.71875 C 24.207031 -14.28125 24.660156 -14.796875 25.046875 -15.265625 C 25.441406 -15.734375 25.742188 -16.132812 25.953125 -16.46875 C 26.171875 -16.800781 26.28125 -17.039062 26.28125 -17.1875 Z M 26.28125 -17.1875 "/></g></g><g style="fill:#6e4c27;fill-opacity:1;"><g transform="translate(47.891171, 48.028476)"><path style="stroke:none" d="M 13.5 -5.3125 C 13.632812 -5.3125 13.742188 -5.265625 13.828125 -5.171875 C 13.921875 -5.078125 13.96875 -4.96875 13.96875 -4.84375 C 13.96875 -4.675781 13.90625 -4.550781 13.78125 -4.46875 C 12.9375 -3.851562 12.046875 -3.289062 11.109375 -2.78125 C 10.179688 -2.28125 9.253906 -1.835938 8.328125 -1.453125 C 7.410156 -1.066406 6.535156 -0.742188 5.703125 -0.484375 C 4.878906 -0.234375 4.144531 -0.0390625 3.5 0.09375 C 2.851562 0.226562 2.34375 0.296875 1.96875 0.296875 C 1.050781 0.296875 0.335938 0.128906 -0.171875 -0.203125 C -0.679688 -0.546875 -0.9375 -1.03125 -0.9375 -1.65625 C -0.9375 -2.0625 -0.828125 -2.492188 -0.609375 -2.953125 C -0.398438 -3.421875 -0.117188 -3.875 0.234375 -4.3125 C 0.585938 -4.75 0.984375 -5.148438 1.421875 -5.515625 C 1.867188 -5.878906 2.320312 -6.164062 2.78125 -6.375 C 3.238281 -6.59375 3.671875 -6.703125 4.078125 -6.703125 C 4.441406 -6.703125 4.734375 -6.601562 4.953125 -6.40625 C 5.179688 -6.21875 5.296875 -5.96875 5.296875 -5.65625 C 5.296875 -5.4375 5.21875 -5.21875 5.0625 -5 C 4.914062 -4.789062 4.710938 -4.59375 4.453125 -4.40625 C 4.191406 -4.226562 3.910156 -4.085938 3.609375 -3.984375 C 3.316406 -3.878906 3.015625 -3.828125 2.703125 -3.828125 C 2.109375 -3.828125 1.625 -3.90625 1.25 -4.0625 C 0.863281 -3.632812 0.554688 -3.203125 0.328125 -2.765625 C 0.109375 -2.335938 0 -1.96875 0 -1.65625 C 0 -0.976562 0.65625 -0.640625 1.96875 -0.640625 C 2.3125 -0.640625 2.785156 -0.703125 3.390625 -0.828125 C 4.003906 -0.953125 4.703125 -1.140625 5.484375 -1.390625 C 6.273438 -1.640625 7.113281 -1.945312 8 -2.3125 C 8.882812 -2.6875 9.773438 -3.113281 10.671875 -3.59375 C 11.566406 -4.082031 12.421875 -4.625 13.234375 -5.21875 C 13.296875 -5.28125 13.382812 -5.3125 13.5 -5.3125 Z M 4.359375 -5.65625 C 4.359375 -5.6875 4.34375 -5.707031 4.3125 -5.71875 C 4.28125 -5.738281 4.203125 -5.75 4.078125 -5.75 C 3.804688 -5.75 3.492188 -5.664062 3.140625 -5.5 C 2.785156 -5.34375 2.421875 -5.109375 2.046875 -4.796875 C 2.222656 -4.773438 2.441406 -4.765625 2.703125 -4.765625 C 3.035156 -4.765625 3.320312 -4.816406 3.5625 -4.921875 C 3.8125 -5.035156 4.003906 -5.160156 4.140625 -5.296875 C 4.285156 -5.441406 4.359375 -5.5625 4.359375 -5.65625 Z M 4.359375 -5.65625 "/></g></g><g style="fill:#6e4c27;fill-opacity:1;"><g transform="translate(60.057407, 48.028476)"><path style="stroke:none" d="M 17.375 -5.328125 C 17.507812 -5.328125 17.617188 -5.28125 17.703125 -5.1875 C 17.796875 -5.09375 17.84375 -4.984375 17.84375 -4.859375 C 17.84375 -4.691406 17.769531 -4.554688 17.625 -4.453125 C 16.8125 -3.898438 15.960938 -3.382812 15.078125 -2.90625 C 14.191406 -2.4375 13.304688 -2.007812 12.421875 -1.625 C 11.535156 -1.25 10.6875 -0.925781 9.875 -0.65625 C 9.0625 -0.394531 8.320312 -0.191406 7.65625 -0.046875 C 6.988281 0.0976562 6.429688 0.171875 5.984375 0.171875 C 5.242188 0.171875 4.679688 0.0078125 4.296875 -0.3125 C 3.910156 -0.632812 3.71875 -1.101562 3.71875 -1.71875 C 3.71875 -2.164062 4.019531 -2.921875 4.625 -3.984375 C 4.695312 -4.109375 4.707031 -4.1875 4.65625 -4.21875 C 4.613281 -4.25 4.546875 -4.21875 4.453125 -4.125 C 2.898438 -2.75 1.648438 -1.707031 0.703125 -1 C -0.234375 -0.289062 -0.859375 0.0625 -1.171875 0.0625 C -1.484375 0.0625 -1.726562 -0.0195312 -1.90625 -0.1875 C -2.09375 -0.351562 -2.1875 -0.578125 -2.1875 -0.859375 C -2.1875 -1.242188 -2.078125 -1.65625 -1.859375 -2.09375 C -1.648438 -2.53125 -1.359375 -2.96875 -0.984375 -3.40625 C -0.617188 -3.84375 -0.207031 -4.253906 0.25 -4.640625 C 0.71875 -5.035156 1.210938 -5.382812 1.734375 -5.6875 C 2.253906 -6 2.769531 -6.242188 3.28125 -6.421875 C 3.789062 -6.609375 4.269531 -6.703125 4.71875 -6.703125 C 5.050781 -6.703125 5.375 -6.640625 5.6875 -6.515625 C 5.9375 -6.742188 6.191406 -6.976562 6.453125 -7.21875 C 6.710938 -7.46875 6.976562 -7.71875 7.25 -7.96875 L 7.21875 -7.953125 C 7.988281 -9.023438 8.835938 -10.164062 9.765625 -11.375 C 10.691406 -12.59375 11.664062 -13.832031 12.6875 -15.09375 C 13.71875 -16.363281 14.765625 -17.617188 15.828125 -18.859375 C 16.890625 -20.109375 17.929688 -21.304688 18.953125 -22.453125 C 19.984375 -23.609375 20.96875 -24.671875 21.90625 -25.640625 C 22.851562 -26.617188 23.71875 -27.472656 24.5 -28.203125 C 25.28125 -28.941406 25.953125 -29.515625 26.515625 -29.921875 C 27.078125 -30.328125 27.5 -30.53125 27.78125 -30.53125 C 28.4375 -30.53125 28.765625 -30.226562 28.765625 -29.625 C 28.765625 -29.425781 28.582031 -29.0625 28.21875 -28.53125 C 27.863281 -28.007812 27.363281 -27.359375 26.71875 -26.578125 C 26.070312 -25.804688 25.3125 -24.929688 24.4375 -23.953125 C 23.5625 -22.984375 22.597656 -21.945312 21.546875 -20.84375 C 20.503906 -19.738281 19.40625 -18.597656 18.25 -17.421875 C 17.101562 -16.242188 15.925781 -15.0625 14.71875 -13.875 C 13.519531 -12.6875 12.328125 -11.519531 11.140625 -10.375 C 9.960938 -9.226562 8.820312 -8.144531 7.71875 -7.125 C 7.53125 -6.851562 7.347656 -6.585938 7.171875 -6.328125 C 6.992188 -6.066406 6.820312 -5.820312 6.65625 -5.59375 C 6.726562 -5.445312 6.773438 -5.296875 6.796875 -5.140625 C 6.816406 -4.992188 6.816406 -4.847656 6.796875 -4.703125 C 6.796875 -4.578125 6.75 -4.46875 6.65625 -4.375 C 6.5625 -4.289062 6.453125 -4.25 6.328125 -4.25 C 6.160156 -4.25 6.03125 -4.320312 5.9375 -4.46875 C 5.082031 -3.082031 4.65625 -2.164062 4.65625 -1.71875 C 4.65625 -1.382812 4.753906 -1.140625 4.953125 -0.984375 C 5.160156 -0.835938 5.503906 -0.765625 5.984375 -0.765625 C 6.398438 -0.765625 6.921875 -0.832031 7.546875 -0.96875 C 8.179688 -1.113281 8.882812 -1.316406 9.65625 -1.578125 C 10.4375 -1.835938 11.25 -2.148438 12.09375 -2.515625 C 12.945312 -2.878906 13.800781 -3.289062 14.65625 -3.75 C 15.507812 -4.21875 16.328125 -4.71875 17.109375 -5.25 C 17.179688 -5.300781 17.269531 -5.328125 17.375 -5.328125 Z M 27.78125 -29.578125 C 27.59375 -29.578125 27.269531 -29.40625 26.8125 -29.0625 C 26.363281 -28.71875 25.804688 -28.226562 25.140625 -27.59375 C 24.472656 -26.957031 23.722656 -26.207031 22.890625 -25.34375 C 22.054688 -24.476562 21.164062 -23.519531 20.21875 -22.46875 C 19.28125 -21.425781 18.304688 -20.320312 17.296875 -19.15625 C 16.296875 -17.988281 15.285156 -16.785156 14.265625 -15.546875 C 13.242188 -14.304688 12.242188 -13.0625 11.265625 -11.8125 C 11.828125 -12.351562 12.457031 -12.96875 13.15625 -13.65625 C 13.851562 -14.351562 14.59375 -15.097656 15.375 -15.890625 C 16.15625 -16.691406 16.957031 -17.507812 17.78125 -18.34375 C 18.601562 -19.1875 19.421875 -20.03125 20.234375 -20.875 C 21.046875 -21.71875 21.828125 -22.535156 22.578125 -23.328125 C 23.328125 -24.117188 24.019531 -24.863281 24.65625 -25.5625 C 25.300781 -26.257812 25.859375 -26.882812 26.328125 -27.4375 C 26.804688 -28 27.175781 -28.457031 27.4375 -28.8125 C 27.707031 -29.164062 27.84375 -29.398438 27.84375 -29.515625 C 27.84375 -29.554688 27.820312 -29.578125 27.78125 -29.578125 Z M -1.109375 -0.875 C -0.921875 -0.875 -0.304688 -1.296875 0.734375 -2.140625 C 1.773438 -2.992188 3.148438 -4.195312 4.859375 -5.75 L 4.71875 -5.75 C 4.363281 -5.75 3.96875 -5.671875 3.53125 -5.515625 C 3.09375 -5.359375 2.648438 -5.144531 2.203125 -4.875 C 1.765625 -4.613281 1.335938 -4.316406 0.921875 -3.984375 C 0.515625 -3.660156 0.148438 -3.316406 -0.171875 -2.953125 C -0.503906 -2.597656 -0.765625 -2.25 -0.953125 -1.90625 C -1.148438 -1.570312 -1.25 -1.269531 -1.25 -1 C -1.25 -0.914062 -1.203125 -0.875 -1.109375 -0.875 Z M -1.109375 -0.875 "/></g></g><g style="fill:#6e4c27;fill-opacity:1;"><g transform="translate(76.08282, 48.028476)"><path style="stroke:none" d="M 17.375 -5.328125 C 17.507812 -5.328125 17.617188 -5.28125 17.703125 -5.1875 C 17.796875 -5.09375 17.84375 -4.984375 17.84375 -4.859375 C 17.84375 -4.691406 17.769531 -4.554688 17.625 -4.453125 C 16.8125 -3.898438 15.960938 -3.382812 15.078125 -2.90625 C 14.191406 -2.4375 13.304688 -2.007812 12.421875 -1.625 C 11.535156 -1.25 10.6875 -0.925781 9.875 -0.65625 C 9.0625 -0.394531 8.320312 -0.191406 7.65625 -0.046875 C 6.988281 0.0976562 6.429688 0.171875 5.984375 0.171875 C 5.242188 0.171875 4.679688 0.0078125 4.296875 -0.3125 C 3.910156 -0.632812 3.71875 -1.101562 3.71875 -1.71875 C 3.71875 -2.164062 4.019531 -2.921875 4.625 -3.984375 C 4.695312 -4.109375 4.707031 -4.1875 4.65625 -4.21875 C 4.613281 -4.25 4.546875 -4.21875 4.453125 -4.125 C 2.898438 -2.75 1.648438 -1.707031 0.703125 -1 C -0.234375 -0.289062 -0.859375 0.0625 -1.171875 0.0625 C -1.484375 0.0625 -1.726562 -0.0195312 -1.90625 -0.1875 C -2.09375 -0.351562 -2.1875 -0.578125 -2.1875 -0.859375 C -2.1875 -1.242188 -2.078125 -1.65625 -1.859375 -2.09375 C -1.648438 -2.53125 -1.359375 -2.96875 -0.984375 -3.40625 C -0.617188 -3.84375 -0.207031 -4.253906 0.25 -4.640625 C 0.71875 -5.035156 1.210938 -5.382812 1.734375 -5.6875 C 2.253906 -6 2.769531 -6.242188 3.28125 -6.421875 C 3.789062 -6.609375 4.269531 -6.703125 4.71875 -6.703125 C 5.050781 -6.703125 5.375 -6.640625 5.6875 -6.515625 C 5.9375 -6.742188 6.191406 -6.976562 6.453125 -7.21875 C 6.710938 -7.46875 6.976562 -7.71875 7.25 -7.96875 L 7.21875 -7.953125 C 7.988281 -9.023438 8.835938 -10.164062 9.765625 -11.375 C 10.691406 -12.59375 11.664062 -13.832031 12.6875 -15.09375 C 13.71875 -16.363281 14.765625 -17.617188 15.828125 -18.859375 C 16.890625 -20.109375 17.929688 -21.304688 18.953125 -22.453125 C 19.984375 -23.609375 20.96875 -24.671875 21.90625 -25.640625 C 22.851562 -26.617188 23.71875 -27.472656 24.5 -28.203125 C 25.28125 -28.941406 25.953125 -29.515625 26.515625 -29.921875 C 27.078125 -30.328125 27.5 -30.53125 27.78125 -30.53125 C 28.4375 -30.53125 28.765625 -30.226562 28.765625 -29.625 C 28.765625 -29.425781 28.582031 -29.0625 28.21875 -28.53125 C 27.863281 -28.007812 27.363281 -27.359375 26.71875 -26.578125 C 26.070312 -25.804688 25.3125 -24.929688 24.4375 -23.953125 C 23.5625 -22.984375 22.597656 -21.945312 21.546875 -20.84375 C 20.503906 -19.738281 19.40625 -18.597656 18.25 -17.421875 C 17.101562 -16.242188 15.925781 -15.0625 14.71875 -13.875 C 13.519531 -12.6875 12.328125 -11.519531 11.140625 -10.375 C 9.960938 -9.226562 8.820312 -8.144531 7.71875 -7.125 C 7.53125 -6.851562 7.347656 -6.585938 7.171875 -6.328125 C 6.992188 -6.066406 6.820312 -5.820312 6.65625 -5.59375 C 6.726562 -5.445312 6.773438 -5.296875 6.796875 -5.140625 C 6.816406 -4.992188 6.816406 -4.847656 6.796875 -4.703125 C 6.796875 -4.578125 6.75 -4.46875 6.65625 -4.375 C 6.5625 -4.289062 6.453125 -4.25 6.328125 -4.25 C 6.160156 -4.25 6.03125 -4.320312 5.9375 -4.46875 C 5.082031 -3.082031 4.65625 -2.164062 4.65625 -1.71875 C 4.65625 -1.382812 4.753906 -1.140625 4.953125 -0.984375 C 5.160156 -0.835938 5.503906 -0.765625 5.984375 -0.765625 C 6.398438 -0.765625 6.921875 -0.832031 7.546875 -0.96875 C 8.179688 -1.113281 8.882812 -1.316406 9.65625 -1.578125 C 10.4375 -1.835938 11.25 -2.148438 12.09375 -2.515625 C 12.945312 -2.878906 13.800781 -3.289062 14.65625 -3.75 C 15.507812 -4.21875 16.328125 -4.71875 17.109375 -5.25 C 17.179688 -5.300781 17.269531 -5.328125 17.375 -5.328125 Z M 27.78125 -29.578125 C 27.59375 -29.578125 27.269531 -29.40625 26.8125 -29.0625 C 26.363281 -28.71875 25.804688 -28.226562 25.140625 -27.59375 C 24.472656 -26.957031 23.722656 -26.207031 22.890625 -25.34375 C 22.054688 -24.476562 21.164062 -23.519531 20.21875 -22.46875 C 19.28125 -21.425781 18.304688 -20.320312 17.296875 -19.15625 C 16.296875 -17.988281 15.285156 -16.785156 14.265625 -15.546875 C 13.242188 -14.304688 12.242188 -13.0625 11.265625 -11.8125 C 11.828125 -12.351562 12.457031 -12.96875 13.15625 -13.65625 C 13.851562 -14.351562 14.59375 -15.097656 15.375 -15.890625 C 16.15625 -16.691406 16.957031 -17.507812 17.78125 -18.34375 C 18.601562 -19.1875 19.421875 -20.03125 20.234375 -20.875 C 21.046875 -21.71875 21.828125 -22.535156 22.578125 -23.328125 C 23.328125 -24.117188 24.019531 -24.863281 24.65625 -25.5625 C 25.300781 -26.257812 25.859375 -26.882812 26.328125 -27.4375 C 26.804688 -28 27.175781 -28.457031 27.4375 -28.8125 C 27.707031 -29.164062 27.84375 -29.398438 27.84375 -29.515625 C 27.84375 -29.554688 27.820312 -29.578125 27.78125 -29.578125 Z M -1.109375 -0.875 C -0.921875 -0.875 -0.304688 -1.296875 0.734375 -2.140625 C 1.773438 -2.992188 3.148438 -4.195312 4.859375 -5.75 L 4.71875 -5.75 C 4.363281 -5.75 3.96875 -5.671875 3.53125 -5.515625 C 3.09375 -5.359375 2.648438 -5.144531 2.203125 -4.875 C 1.765625 -4.613281 1.335938 -4.316406 0.921875 -3.984375 C 0.515625 -3.660156 0.148438 -3.316406 -0.171875 -2.953125 C -0.503906 -2.597656 -0.765625 -2.25 -0.953125 -1.90625 C -1.148438 -1.570312 -1.25 -1.269531 -1.25 -1 C -1.25 -0.914062 -1.203125 -0.875 -1.109375 -0.875 Z M -1.109375 -0.875 "/></g></g><g style="fill:#6e4c27;fill-opacity:1;"><g transform="translate(92.108234, 48.028476)"><path style="stroke:none" d="M 4.296875 -7.484375 C 4.160156 -7.484375 4.046875 -7.53125 3.953125 -7.625 C 3.867188 -7.71875 3.828125 -7.828125 3.828125 -7.953125 C 3.828125 -8.054688 3.859375 -8.15625 3.921875 -8.25 L 4.6875 -9.25 C 4.78125 -9.363281 4.898438 -9.421875 5.046875 -9.421875 C 5.179688 -9.421875 5.289062 -9.375 5.375 -9.28125 C 5.46875 -9.1875 5.515625 -9.078125 5.515625 -8.953125 C 5.515625 -8.847656 5.484375 -8.75 5.421875 -8.65625 C 5.359375 -8.59375 5.273438 -8.488281 5.171875 -8.34375 C 5.066406 -8.195312 4.96875 -8.0625 4.875 -7.9375 C 4.832031 -7.875 4.789062 -7.820312 4.75 -7.78125 C 4.71875 -7.738281 4.691406 -7.703125 4.671875 -7.671875 C 4.578125 -7.546875 4.453125 -7.484375 4.296875 -7.484375 Z M 0.5 0.46875 C -0.0507812 0.46875 -0.476562 0.320312 -0.78125 0.03125 C -1.09375 -0.257812 -1.25 -0.664062 -1.25 -1.1875 C -1.25 -1.726562 -0.929688 -2.476562 -0.296875 -3.4375 C 0.335938 -4.394531 1.226562 -5.460938 2.375 -6.640625 C 2.476562 -6.742188 2.59375 -6.796875 2.71875 -6.796875 C 2.84375 -6.796875 2.953125 -6.742188 3.046875 -6.640625 C 3.140625 -6.546875 3.1875 -6.4375 3.1875 -6.3125 C 3.1875 -6.207031 3.148438 -6.101562 3.078125 -6 L 3.0625 -6 C 2.394531 -5.3125 1.804688 -4.648438 1.296875 -4.015625 C 0.785156 -3.378906 0.390625 -2.816406 0.109375 -2.328125 C -0.171875 -1.835938 -0.3125 -1.457031 -0.3125 -1.1875 C -0.3125 -0.9375 -0.25 -0.753906 -0.125 -0.640625 C -0.0078125 -0.523438 0.195312 -0.46875 0.5 -0.46875 C 0.789062 -0.46875 1.1875 -0.539062 1.6875 -0.6875 C 2.195312 -0.832031 2.773438 -1.023438 3.421875 -1.265625 C 4.066406 -1.515625 4.742188 -1.796875 5.453125 -2.109375 C 6.171875 -2.429688 6.890625 -2.769531 7.609375 -3.125 C 8.328125 -3.476562 9.015625 -3.835938 9.671875 -4.203125 C 10.328125 -4.566406 10.914062 -4.914062 11.4375 -5.25 C 11.539062 -5.289062 11.625 -5.3125 11.6875 -5.3125 C 11.8125 -5.3125 11.921875 -5.265625 12.015625 -5.171875 C 12.109375 -5.078125 12.15625 -4.96875 12.15625 -4.84375 C 12.15625 -4.65625 12.082031 -4.519531 11.9375 -4.4375 C 11.40625 -4.101562 10.800781 -3.75 10.125 -3.375 C 9.457031 -3.007812 8.75 -2.644531 8 -2.28125 C 7.257812 -1.914062 6.515625 -1.566406 5.765625 -1.234375 C 5.023438 -0.898438 4.3125 -0.601562 3.625 -0.34375 C 2.945312 -0.09375 2.335938 0.101562 1.796875 0.25 C 1.265625 0.394531 0.832031 0.46875 0.5 0.46875 Z M 0.5 0.46875 "/></g></g><g style="fill:#6e4c27;fill-opacity:1;"><g transform="translate(102.456069, 48.028476)"><path style="stroke:none" d="M -1.65625 0.109375 C -1.863281 0.109375 -2.019531 0.0351562 -2.125 -0.109375 C -2.238281 -0.265625 -2.273438 -0.445312 -2.234375 -0.65625 C -2.210938 -0.789062 -2.09375 -1.03125 -1.875 -1.375 C -1.65625 -1.71875 -1.363281 -2.132812 -1 -2.625 C -0.632812 -3.125 -0.21875 -3.660156 0.25 -4.234375 C 0.71875 -4.816406 1.222656 -5.398438 1.765625 -5.984375 C 2.316406 -6.578125 2.878906 -7.148438 3.453125 -7.703125 C 4.035156 -8.253906 4.613281 -8.75 5.1875 -9.1875 C 5.289062 -9.25 5.390625 -9.28125 5.484375 -9.28125 C 5.609375 -9.28125 5.71875 -9.234375 5.8125 -9.140625 C 5.90625 -9.046875 5.953125 -8.9375 5.953125 -8.8125 C 5.953125 -8.65625 5.890625 -8.523438 5.765625 -8.421875 C 5.171875 -7.984375 4.578125 -7.484375 3.984375 -6.921875 C 3.398438 -6.359375 2.835938 -5.785156 2.296875 -5.203125 C 1.765625 -4.617188 1.28125 -4.0625 0.84375 -3.53125 C 0.414062 -3.007812 0.0664062 -2.554688 -0.203125 -2.171875 C -0.253906 -2.097656 -0.265625 -2.046875 -0.234375 -2.015625 C -0.210938 -1.984375 -0.15625 -1.992188 -0.0625 -2.046875 C 1.476562 -3.160156 2.804688 -4.066406 3.921875 -4.765625 C 5.046875 -5.472656 6 -5.992188 6.78125 -6.328125 C 7.5625 -6.660156 8.195312 -6.828125 8.6875 -6.828125 C 9.03125 -6.828125 9.296875 -6.738281 9.484375 -6.5625 C 9.679688 -6.394531 9.78125 -6.160156 9.78125 -5.859375 C 9.78125 -5.585938 9.734375 -5.226562 9.640625 -4.78125 C 9.546875 -4.34375 9.445312 -3.90625 9.34375 -3.46875 C 9.257812 -3.09375 9.179688 -2.75 9.109375 -2.4375 C 9.035156 -2.125 9 -1.90625 9 -1.78125 C 9 -1.65625 9.035156 -1.566406 9.109375 -1.515625 C 9.179688 -1.460938 9.316406 -1.4375 9.515625 -1.4375 C 10.015625 -1.4375 10.597656 -1.523438 11.265625 -1.703125 C 11.929688 -1.878906 12.664062 -2.132812 13.46875 -2.46875 C 14.269531 -2.800781 15.101562 -3.203125 15.96875 -3.671875 C 16.832031 -4.140625 17.703125 -4.660156 18.578125 -5.234375 C 18.660156 -5.285156 18.75 -5.3125 18.84375 -5.3125 C 18.96875 -5.3125 19.078125 -5.265625 19.171875 -5.171875 C 19.265625 -5.078125 19.3125 -4.96875 19.3125 -4.84375 C 19.3125 -4.65625 19.238281 -4.523438 19.09375 -4.453125 C 18.175781 -3.847656 17.265625 -3.300781 16.359375 -2.8125 C 15.453125 -2.320312 14.578125 -1.90625 13.734375 -1.5625 C 12.898438 -1.21875 12.125 -0.953125 11.40625 -0.765625 C 10.6875 -0.585938 10.054688 -0.5 9.515625 -0.5 C 9.054688 -0.5 8.695312 -0.609375 8.4375 -0.828125 C 8.1875 -1.054688 8.0625 -1.375 8.0625 -1.78125 C 8.0625 -1.957031 8.097656 -2.222656 8.171875 -2.578125 C 8.253906 -2.929688 8.335938 -3.300781 8.421875 -3.6875 C 8.523438 -4.125 8.617188 -4.535156 8.703125 -4.921875 C 8.796875 -5.316406 8.84375 -5.566406 8.84375 -5.671875 C 8.84375 -5.816406 8.773438 -5.890625 8.640625 -5.890625 C 8.335938 -5.890625 7.96875 -5.800781 7.53125 -5.625 C 7.09375 -5.457031 6.613281 -5.234375 6.09375 -4.953125 C 5.570312 -4.671875 5.03125 -4.351562 4.46875 -4 C 3.90625 -3.644531 3.347656 -3.28125 2.796875 -2.90625 C 2.242188 -2.53125 1.71875 -2.164062 1.21875 -1.8125 C 0.71875 -1.457031 0.273438 -1.140625 -0.109375 -0.859375 C -0.171875 -0.816406 -0.226562 -0.773438 -0.28125 -0.734375 C -0.332031 -0.703125 -0.382812 -0.660156 -0.4375 -0.609375 C -0.8125 -0.335938 -1.082031 -0.148438 -1.25 -0.046875 C -1.425781 0.0546875 -1.5625 0.109375 -1.65625 0.109375 Z M -1.65625 0.109375 "/></g></g><g style="fill:#6e4c27;fill-opacity:1;"><g transform="translate(119.946664, 48.028476)"><path style="stroke:none" d="M 15.203125 -5.1875 C 15.335938 -5.1875 15.445312 -5.140625 15.53125 -5.046875 C 15.625 -4.953125 15.671875 -4.835938 15.671875 -4.703125 C 15.671875 -4.554688 15.613281 -4.4375 15.5 -4.34375 C 15.125 -4.050781 14.585938 -3.660156 13.890625 -3.171875 C 13.191406 -2.691406 12.359375 -2.132812 11.390625 -1.5 C 10.421875 -0.863281 9.34375 -0.164062 8.15625 0.59375 C 6.976562 1.351562 5.734375 2.15625 4.421875 3 C 2.972656 3.925781 1.585938 4.816406 0.265625 5.671875 C -1.046875 6.535156 -2.300781 7.359375 -3.5 8.140625 L -3.484375 8.125 C -4.546875 9.28125 -5.722656 10.53125 -7.015625 11.875 C -8.304688 13.21875 -9.726562 14.671875 -11.28125 16.234375 C -13.988281 18.972656 -16.273438 21.007812 -18.140625 22.34375 C -20.003906 23.675781 -21.5 24.34375 -22.625 24.34375 C -23.082031 24.34375 -23.457031 24.207031 -23.75 23.9375 C -24.039062 23.675781 -24.1875 23.328125 -24.1875 22.890625 C -24.1875 22.535156 -23.957031 22.078125 -23.5 21.515625 C -23.039062 20.960938 -22.320312 20.273438 -21.34375 19.453125 C -20.363281 18.628906 -19.085938 17.644531 -17.515625 16.5 C -15.953125 15.351562 -14.054688 14.023438 -11.828125 12.515625 C -9.597656 11.015625 -7.015625 9.300781 -4.078125 7.375 L -4.09375 7.40625 C -2.488281 5.664062 -1.117188 4.132812 0.015625 2.8125 C 1.148438 1.5 2.09375 0.375 2.84375 -0.5625 C 3.601562 -1.5 4.210938 -2.265625 4.671875 -2.859375 C 4.742188 -2.953125 4.753906 -3.03125 4.703125 -3.09375 C 4.660156 -3.15625 4.585938 -3.15625 4.484375 -3.09375 C 2.671875 -1.988281 1.238281 -1.179688 0.1875 -0.671875 C -0.863281 -0.160156 -1.617188 0.09375 -2.078125 0.09375 C -2.429688 0.09375 -2.707031 -0.00390625 -2.90625 -0.203125 C -3.101562 -0.410156 -3.203125 -0.691406 -3.203125 -1.046875 C -3.203125 -1.390625 -3.050781 -1.765625 -2.75 -2.171875 C -2.445312 -2.578125 -2.039062 -2.992188 -1.53125 -3.421875 C -1.019531 -3.859375 -0.445312 -4.273438 0.1875 -4.671875 C 0.820312 -5.078125 1.484375 -5.4375 2.171875 -5.75 C 2.859375 -6.070312 3.523438 -6.328125 4.171875 -6.515625 C 4.828125 -6.703125 5.421875 -6.796875 5.953125 -6.796875 C 6.453125 -6.796875 6.847656 -6.703125 7.140625 -6.515625 C 7.441406 -6.335938 7.59375 -6.09375 7.59375 -5.78125 C 7.59375 -5.644531 7.566406 -5.492188 7.515625 -5.328125 C 7.460938 -5.171875 7.367188 -4.976562 7.234375 -4.75 C 7.097656 -4.53125 6.90625 -4.253906 6.65625 -3.921875 C 6.414062 -3.585938 6.097656 -3.164062 5.703125 -2.65625 C 5.253906 -2.070312 4.71875 -1.394531 4.09375 -0.625 C 3.476562 0.144531 2.753906 1.023438 1.921875 2.015625 C 1.097656 3.003906 0.128906 4.117188 -0.984375 5.359375 C -0.203125 4.867188 0.59375 4.359375 1.40625 3.828125 C 2.21875 3.304688 3.050781 2.769531 3.90625 2.21875 C 5.226562 1.363281 6.472656 0.5625 7.640625 -0.1875 C 8.816406 -0.945312 9.882812 -1.644531 10.84375 -2.28125 C 11.8125 -2.914062 12.640625 -3.46875 13.328125 -3.9375 C 14.023438 -4.414062 14.554688 -4.796875 14.921875 -5.078125 C 15.003906 -5.148438 15.097656 -5.1875 15.203125 -5.1875 Z M 3.984375 -3.90625 C 4.578125 -4.257812 5.070312 -4.566406 5.46875 -4.828125 C 5.875 -5.097656 6.191406 -5.304688 6.421875 -5.453125 C 6.460938 -5.472656 6.492188 -5.492188 6.515625 -5.515625 C 6.546875 -5.535156 6.578125 -5.554688 6.609375 -5.578125 C 6.628906 -5.648438 6.640625 -5.71875 6.640625 -5.78125 C 6.535156 -5.820312 6.421875 -5.84375 6.296875 -5.84375 C 6.171875 -5.851562 6.054688 -5.859375 5.953125 -5.859375 C 5.535156 -5.859375 5.046875 -5.773438 4.484375 -5.609375 C 3.921875 -5.441406 3.328125 -5.21875 2.703125 -4.9375 C 2.085938 -4.65625 1.488281 -4.34375 0.90625 -4 C 0.320312 -3.65625 -0.207031 -3.300781 -0.6875 -2.9375 C -1.164062 -2.570312 -1.546875 -2.222656 -1.828125 -1.890625 C -2.117188 -1.566406 -2.265625 -1.285156 -2.265625 -1.046875 C -2.265625 -0.960938 -2.253906 -0.90625 -2.234375 -0.875 C -2.210938 -0.851562 -2.160156 -0.84375 -2.078125 -0.84375 C -1.347656 -0.84375 0.671875 -1.863281 3.984375 -3.90625 Z M -11.953125 15.578125 C -11.015625 14.628906 -10.117188 13.71875 -9.265625 12.84375 C -8.421875 11.976562 -7.625 11.15625 -6.875 10.375 C -10.613281 12.84375 -13.691406 14.9375 -16.109375 16.65625 C -18.523438 18.382812 -20.316406 19.757812 -21.484375 20.78125 C -22.648438 21.8125 -23.234375 22.515625 -23.234375 22.890625 C -23.234375 23.222656 -23.03125 23.390625 -22.625 23.390625 C -21.65625 23.390625 -20.273438 22.734375 -18.484375 21.421875 C -16.703125 20.117188 -14.523438 18.171875 -11.953125 15.578125 Z M -11.953125 15.578125 "/></g></g><g style="fill:#6e4c27;fill-opacity:1;"><g transform="translate(133.918215, 48.028476)"><path style="stroke:none" d=""/></g></g><g style="fill:#6e4c27;fill-opacity:1;"><g transform="translate(147.000184, 48.028476)"><path style="stroke:none" d="M 20.71875 -20.09375 C 21.90625 -20.09375 22.894531 -19.878906 23.6875 -19.453125 C 24.476562 -19.035156 25.039062 -18.4375 25.375 -17.65625 C 25.707031 -16.882812 25.773438 -15.96875 25.578125 -14.90625 C 25.347656 -13.613281 24.941406 -12.328125 24.359375 -11.046875 C 23.785156 -9.765625 23.066406 -8.515625 22.203125 -7.296875 C 21.335938 -6.078125 20.363281 -4.921875 19.28125 -3.828125 C 18.207031 -2.742188 17.050781 -1.75 15.8125 -0.84375 C 14.582031 0.0625 13.3125 0.847656 12 1.515625 C 10.6875 2.179688 9.367188 2.691406 8.046875 3.046875 C 6.722656 3.410156 5.425781 3.59375 4.15625 3.59375 C 3.257812 3.59375 2.5 3.46875 1.875 3.21875 C 1.257812 2.976562 0.8125 2.628906 0.53125 2.171875 C 0.257812 1.722656 0.175781 1.195312 0.28125 0.59375 C 0.382812 0.0507812 0.625 -0.503906 1 -1.078125 C 1.382812 -1.648438 1.890625 -2.207031 2.515625 -2.75 C 3.140625 -3.300781 3.851562 -3.816406 4.65625 -4.296875 C 5.46875 -4.785156 6.34375 -5.210938 7.28125 -5.578125 C 7.3125 -5.585938 7.335938 -5.609375 7.359375 -5.640625 C 8.066406 -6.566406 8.820312 -7.523438 9.625 -8.515625 C 10.425781 -9.515625 11.238281 -10.503906 12.0625 -11.484375 C 12.894531 -12.460938 13.710938 -13.390625 14.515625 -14.265625 C 15.328125 -15.140625 16.09375 -15.90625 16.8125 -16.5625 C 16.894531 -16.65625 17.003906 -16.703125 17.140625 -16.703125 C 17.273438 -16.703125 17.382812 -16.65625 17.46875 -16.5625 C 17.5625 -16.46875 17.609375 -16.351562 17.609375 -16.21875 C 17.609375 -16.070312 17.5625 -15.960938 17.46875 -15.890625 C 16.832031 -15.296875 16.15625 -14.613281 15.4375 -13.84375 C 14.71875 -13.082031 13.984375 -12.269531 13.234375 -11.40625 C 12.492188 -10.550781 11.757812 -9.675781 11.03125 -8.78125 C 10.3125 -7.882812 9.617188 -7.007812 8.953125 -6.15625 C 9.921875 -6.445312 10.921875 -6.664062 11.953125 -6.8125 C 12.984375 -6.957031 14.03125 -7.03125 15.09375 -7.03125 C 15.738281 -7.03125 16.394531 -7 17.0625 -6.9375 C 17.726562 -6.882812 18.382812 -6.804688 19.03125 -6.703125 C 19.15625 -6.679688 19.253906 -6.625 19.328125 -6.53125 C 19.398438 -6.445312 19.4375 -6.347656 19.4375 -6.234375 C 19.4375 -6.097656 19.390625 -5.984375 19.296875 -5.890625 C 19.210938 -5.796875 19.101562 -5.75 18.96875 -5.75 L 18.890625 -5.765625 C 17.597656 -5.972656 16.332031 -6.078125 15.09375 -6.078125 C 12.570312 -6.078125 10.207031 -5.679688 8 -4.890625 C 7.96875 -4.878906 7.941406 -4.859375 7.921875 -4.828125 C 7.335938 -4.054688 6.800781 -3.332031 6.3125 -2.65625 C 5.832031 -1.988281 5.421875 -1.40625 5.078125 -0.90625 C 4.734375 -0.40625 4.5 -0.0351562 4.375 0.203125 C 4.28125 0.378906 4.140625 0.46875 3.953125 0.46875 C 3.816406 0.46875 3.703125 0.421875 3.609375 0.328125 C 3.523438 0.242188 3.484375 0.132812 3.484375 0 C 3.484375 -0.09375 3.503906 -0.164062 3.546875 -0.21875 C 3.691406 -0.53125 3.992188 -1.019531 4.453125 -1.6875 C 4.921875 -2.351562 5.507812 -3.164062 6.21875 -4.125 C 5.300781 -3.675781 4.484375 -3.175781 3.765625 -2.625 C 3.046875 -2.070312 2.460938 -1.503906 2.015625 -0.921875 C 1.566406 -0.335938 1.296875 0.21875 1.203125 0.75 C 1.097656 1.351562 1.300781 1.820312 1.8125 2.15625 C 2.332031 2.488281 3.113281 2.65625 4.15625 2.65625 C 5.363281 2.65625 6.597656 2.476562 7.859375 2.125 C 9.117188 1.78125 10.375 1.285156 11.625 0.640625 C 12.882812 0.00390625 14.101562 -0.75 15.28125 -1.625 C 16.457031 -2.5 17.5625 -3.457031 18.59375 -4.5 C 19.632812 -5.539062 20.570312 -6.640625 21.40625 -7.796875 C 22.238281 -8.960938 22.9375 -10.160156 23.5 -11.390625 C 24.0625 -12.617188 24.453125 -13.84375 24.671875 -15.0625 C 24.890625 -16.363281 24.65625 -17.367188 23.96875 -18.078125 C 23.289062 -18.796875 22.207031 -19.15625 20.71875 -19.15625 C 19.539062 -19.15625 18.359375 -19 17.171875 -18.6875 C 15.992188 -18.382812 14.832031 -17.960938 13.6875 -17.421875 C 12.550781 -16.890625 11.457031 -16.28125 10.40625 -15.59375 C 9.363281 -14.90625 8.390625 -14.175781 7.484375 -13.40625 C 6.578125 -12.644531 5.765625 -11.875 5.046875 -11.09375 C 4.328125 -10.320312 3.726562 -9.582031 3.25 -8.875 C 3.144531 -8.726562 3.015625 -8.65625 2.859375 -8.65625 C 2.722656 -8.65625 2.609375 -8.703125 2.515625 -8.796875 C 2.421875 -8.890625 2.375 -9.003906 2.375 -9.140625 C 2.375 -9.234375 2.398438 -9.320312 2.453125 -9.40625 C 2.953125 -10.132812 3.570312 -10.898438 4.3125 -11.703125 C 5.0625 -12.503906 5.910156 -13.300781 6.859375 -14.09375 C 7.804688 -14.894531 8.828125 -15.65625 9.921875 -16.375 C 11.015625 -17.09375 12.160156 -17.726562 13.359375 -18.28125 C 14.554688 -18.84375 15.773438 -19.285156 17.015625 -19.609375 C 18.253906 -19.929688 19.488281 -20.09375 20.71875 -20.09375 Z M 20.71875 -20.09375 "/></g></g><g style="fill:#6e4c27;fill-opacity:1;"><g transform="translate(171.659688, 48.028476)"><path style="stroke:none" d="M 18.625 -5.3125 C 18.75 -5.3125 18.859375 -5.265625 18.953125 -5.171875 C 19.054688 -5.078125 19.109375 -4.96875 19.109375 -4.84375 C 19.109375 -4.675781 19.035156 -4.546875 18.890625 -4.453125 C 18.234375 -3.984375 17.503906 -3.519531 16.703125 -3.0625 C 15.898438 -2.601562 15.078125 -2.179688 14.234375 -1.796875 C 13.398438 -1.410156 12.582031 -1.066406 11.78125 -0.765625 C 10.976562 -0.472656 10.25 -0.242188 9.59375 -0.078125 C 8.945312 0.0859375 8.410156 0.171875 7.984375 0.171875 C 7.242188 0.171875 6.679688 0.0078125 6.296875 -0.3125 C 5.910156 -0.632812 5.71875 -1.101562 5.71875 -1.71875 C 5.71875 -2.207031 5.832031 -2.707031 6.0625 -3.21875 C 6.289062 -3.738281 6.554688 -4.234375 6.859375 -4.703125 C 6.929688 -4.816406 6.945312 -4.890625 6.90625 -4.921875 C 6.863281 -4.960938 6.789062 -4.945312 6.6875 -4.875 C 6.601562 -4.8125 6.515625 -4.742188 6.421875 -4.671875 C 6.335938 -4.609375 6.25 -4.539062 6.15625 -4.46875 C 5.65625 -4.113281 5.113281 -3.726562 4.53125 -3.3125 C 3.945312 -2.90625 3.359375 -2.5 2.765625 -2.09375 C 2.171875 -1.695312 1.585938 -1.332031 1.015625 -1 C 0.453125 -0.675781 -0.0664062 -0.414062 -0.546875 -0.21875 C -1.035156 -0.03125 -1.453125 0.0625 -1.796875 0.0625 C -2.148438 0.0625 -2.4375 -0.03125 -2.65625 -0.21875 C -2.875 -0.414062 -2.984375 -0.675781 -2.984375 -1 C -2.984375 -1.34375 -2.847656 -1.710938 -2.578125 -2.109375 C -2.304688 -2.515625 -1.945312 -2.921875 -1.5 -3.328125 C -1.050781 -3.742188 -0.550781 -4.140625 0 -4.515625 C 0.550781 -4.890625 1.109375 -5.222656 1.671875 -5.515625 C 2.234375 -5.816406 2.765625 -6.050781 3.265625 -6.21875 C 3.765625 -6.394531 4.1875 -6.484375 4.53125 -6.484375 C 4.945312 -6.484375 5.28125 -6.414062 5.53125 -6.28125 C 5.789062 -6.15625 6.007812 -5.953125 6.1875 -5.671875 C 6.6875 -6.023438 7.078125 -6.300781 7.359375 -6.5 C 7.640625 -6.695312 7.859375 -6.832031 8.015625 -6.90625 C 8.171875 -6.976562 8.300781 -7.015625 8.40625 -7.015625 C 8.5625 -7.015625 8.691406 -6.960938 8.796875 -6.859375 C 8.910156 -6.753906 8.96875 -6.625 8.96875 -6.46875 C 8.96875 -6.3125 8.90625 -6.128906 8.78125 -5.921875 C 8.65625 -5.722656 8.488281 -5.472656 8.28125 -5.171875 C 8.050781 -4.835938 7.8125 -4.472656 7.5625 -4.078125 C 7.3125 -3.679688 7.097656 -3.28125 6.921875 -2.875 C 6.742188 -2.46875 6.65625 -2.082031 6.65625 -1.71875 C 6.65625 -1.382812 6.757812 -1.140625 6.96875 -0.984375 C 7.175781 -0.835938 7.515625 -0.765625 7.984375 -0.765625 C 8.347656 -0.765625 8.832031 -0.835938 9.4375 -0.984375 C 10.039062 -1.140625 10.71875 -1.351562 11.46875 -1.625 C 12.21875 -1.894531 12.992188 -2.210938 13.796875 -2.578125 C 14.609375 -2.953125 15.40625 -3.359375 16.1875 -3.796875 C 16.96875 -4.242188 17.691406 -4.71875 18.359375 -5.21875 C 18.429688 -5.28125 18.519531 -5.3125 18.625 -5.3125 Z M 5.421875 -5.109375 C 5.316406 -5.285156 5.207031 -5.398438 5.09375 -5.453125 C 4.988281 -5.503906 4.800781 -5.53125 4.53125 -5.53125 C 4.207031 -5.53125 3.820312 -5.445312 3.375 -5.28125 C 2.925781 -5.125 2.453125 -4.910156 1.953125 -4.640625 C 1.460938 -4.378906 0.976562 -4.085938 0.5 -3.765625 C 0.03125 -3.441406 -0.390625 -3.113281 -0.765625 -2.78125 C -1.148438 -2.457031 -1.457031 -2.144531 -1.6875 -1.84375 C -1.925781 -1.550781 -2.046875 -1.300781 -2.046875 -1.09375 C -2.046875 -0.945312 -1.960938 -0.875 -1.796875 -0.875 C -1.378906 -0.875 -0.8125 -1.0625 -0.09375 -1.4375 C 0.613281 -1.8125 1.4375 -2.316406 2.375 -2.953125 C 3.3125 -3.597656 4.328125 -4.316406 5.421875 -5.109375 Z M 5.421875 -5.109375 "/></g></g><g style="fill:#6e4c27;fill-opacity:1;"><g transform="translate(188.954055, 48.028476)"><path style="stroke:none" d="M 17.734375 -5.25 C 17.847656 -5.25 17.953125 -5.195312 18.046875 -5.09375 C 18.148438 -5 18.203125 -4.894531 18.203125 -4.78125 C 18.203125 -4.613281 18.140625 -4.488281 18.015625 -4.40625 C 17.367188 -3.976562 16.597656 -3.460938 15.703125 -2.859375 C 14.804688 -2.265625 13.804688 -1.609375 12.703125 -0.890625 C 11.597656 -0.179688 10.410156 0.5625 9.140625 1.34375 C 7.878906 2.132812 6.5625 2.941406 5.1875 3.765625 C 4.800781 4.285156 4.394531 4.800781 3.96875 5.3125 C 3.539062 5.832031 3.097656 6.335938 2.640625 6.828125 C 1.546875 8.035156 0.398438 9.242188 -0.796875 10.453125 C -2.003906 11.660156 -3.238281 12.835938 -4.5 13.984375 C -5.757812 15.140625 -7.007812 16.234375 -8.25 17.265625 C -9.488281 18.296875 -10.695312 19.238281 -11.875 20.09375 C -13.050781 20.957031 -14.15625 21.707031 -15.1875 22.34375 C -16.21875 22.976562 -17.148438 23.46875 -17.984375 23.8125 C -18.828125 24.164062 -19.535156 24.34375 -20.109375 24.34375 C -20.566406 24.34375 -20.941406 24.207031 -21.234375 23.9375 C -21.523438 23.675781 -21.671875 23.328125 -21.671875 22.890625 C -21.671875 22.203125 -21.347656 21.414062 -20.703125 20.53125 C -20.054688 19.65625 -19.0625 18.648438 -17.71875 17.515625 C -16.375 16.378906 -14.648438 15.085938 -12.546875 13.640625 C -10.453125 12.191406 -7.945312 10.578125 -5.03125 8.796875 C -3.507812 7.859375 -1.972656 6.925781 -0.421875 6 C 1.128906 5.070312 2.648438 4.164062 4.140625 3.28125 L 4.546875 3.03125 C 4.921875 2.539062 5.328125 1.972656 5.765625 1.328125 C 6.203125 0.691406 6.632812 0.0351562 7.0625 -0.640625 C 7.5 -1.328125 7.898438 -2 8.265625 -2.65625 C 8.640625 -3.3125 8.957031 -3.910156 9.21875 -4.453125 C 9.476562 -4.992188 9.648438 -5.429688 9.734375 -5.765625 C 9.753906 -5.867188 9.738281 -5.921875 9.6875 -5.921875 C 9.632812 -5.929688 9.578125 -5.921875 9.515625 -5.890625 C 9.359375 -5.796875 9.066406 -5.59375 8.640625 -5.28125 C 8.222656 -4.96875 7.609375 -4.503906 6.796875 -3.890625 C 6.296875 -3.515625 5.769531 -3.125 5.21875 -2.71875 C 4.675781 -2.3125 4.128906 -1.914062 3.578125 -1.53125 C 3.035156 -1.15625 2.503906 -0.8125 1.984375 -0.5 C 1.472656 -0.195312 1 0.0390625 0.5625 0.21875 C 0.132812 0.394531 -0.226562 0.484375 -0.53125 0.484375 C -0.894531 0.484375 -1.1875 0.378906 -1.40625 0.171875 C -1.625 -0.0234375 -1.734375 -0.285156 -1.734375 -0.609375 C -1.734375 -0.816406 -1.65625 -1.09375 -1.5 -1.4375 C -1.34375 -1.78125 -1.132812 -2.15625 -0.875 -2.5625 C -0.613281 -2.96875 -0.320312 -3.382812 0 -3.8125 C 0.320312 -4.25 0.65625 -4.671875 1 -5.078125 C 1.351562 -5.492188 1.695312 -5.867188 2.03125 -6.203125 C 2.363281 -6.546875 2.660156 -6.832031 2.921875 -7.0625 C 3.003906 -7.132812 3.101562 -7.171875 3.21875 -7.171875 C 3.34375 -7.171875 3.453125 -7.117188 3.546875 -7.015625 C 3.640625 -6.921875 3.6875 -6.816406 3.6875 -6.703125 C 3.6875 -6.566406 3.632812 -6.445312 3.53125 -6.34375 C 3.1875 -6.0625 2.816406 -5.707031 2.421875 -5.28125 C 2.023438 -4.851562 1.640625 -4.40625 1.265625 -3.9375 C 0.890625 -3.476562 0.546875 -3.023438 0.234375 -2.578125 C -0.0664062 -2.140625 -0.3125 -1.753906 -0.5 -1.421875 C -0.6875 -1.085938 -0.78125 -0.84375 -0.78125 -0.6875 C -0.78125 -0.53125 -0.695312 -0.453125 -0.53125 -0.453125 C -0.289062 -0.453125 0.015625 -0.535156 0.390625 -0.703125 C 0.765625 -0.867188 1.1875 -1.09375 1.65625 -1.375 C 2.125 -1.664062 2.613281 -1.988281 3.125 -2.34375 C 3.644531 -2.707031 4.164062 -3.085938 4.6875 -3.484375 C 5.21875 -3.878906 5.734375 -4.265625 6.234375 -4.640625 C 6.867188 -5.117188 7.394531 -5.515625 7.8125 -5.828125 C 8.238281 -6.140625 8.585938 -6.378906 8.859375 -6.546875 C 9.128906 -6.710938 9.34375 -6.832031 9.5 -6.90625 C 9.664062 -6.976562 9.804688 -7.015625 9.921875 -7.015625 C 10.171875 -7.015625 10.363281 -6.929688 10.5 -6.765625 C 10.644531 -6.609375 10.71875 -6.390625 10.71875 -6.109375 C 10.71875 -5.867188 10.617188 -5.492188 10.421875 -4.984375 C 10.234375 -4.484375 9.957031 -3.878906 9.59375 -3.171875 C 9.226562 -2.460938 8.789062 -1.679688 8.28125 -0.828125 C 7.78125 0.0234375 7.210938 0.910156 6.578125 1.828125 C 8.921875 0.453125 10.984375 -0.816406 12.765625 -1.984375 C 14.554688 -3.148438 16.113281 -4.203125 17.4375 -5.140625 C 17.53125 -5.210938 17.628906 -5.25 17.734375 -5.25 Z M 1.96875 6.203125 C 2.125 6.023438 2.28125 5.84375 2.4375 5.65625 C 2.59375 5.476562 2.742188 5.300781 2.890625 5.125 C 1.660156 5.863281 0.421875 6.601562 -0.828125 7.34375 C -2.078125 8.09375 -3.316406 8.847656 -4.546875 9.609375 C -10.015625 12.960938 -14.078125 15.734375 -16.734375 17.921875 C -19.390625 20.109375 -20.71875 21.765625 -20.71875 22.890625 C -20.71875 23.222656 -20.515625 23.390625 -20.109375 23.390625 C -19.617188 23.390625 -19 23.234375 -18.25 22.921875 C -17.5 22.609375 -16.644531 22.160156 -15.6875 21.578125 C -14.738281 20.992188 -13.707031 20.289062 -12.59375 19.46875 C -11.476562 18.65625 -10.3125 17.75 -9.09375 16.75 C -7.882812 15.757812 -6.65625 14.695312 -5.40625 13.5625 C -4.15625 12.425781 -2.90625 11.238281 -1.65625 10 C -0.414062 8.757812 0.789062 7.492188 1.96875 6.203125 Z M 1.96875 6.203125 "/></g></g></g></svg>