<svg xmlns="http://www.w3.org/2000/svg" xmlns:xlink="http://www.w3.org/1999/xlink" width="500" zoomAndPan="magnify" viewBox="0 0 375 374.999991" height="500" preserveAspectRatio="xMidYMid meet" version="1.2"><defs/><g id="7d1dad0008"><g style="fill:#6e4c27;fill-opacity:1;"><g transform="translate(124.149499, 144.29809)"><path style="stroke:none" d="M 1.78125 1.21875 C 1.457031 1.21875 1.1875 1.101562 0.96875 0.875 C 0.75 0.644531 0.640625 0.351562 0.640625 0 C 0.640625 -0.6875 0.894531 -1.5625 1.40625 -2.625 C 1.914062 -3.6875 2.585938 -4.804688 3.421875 -5.984375 C 4.253906 -7.160156 5.144531 -8.265625 6.09375 -9.296875 C 7.039062 -10.335938 7.96875 -11.179688 8.875 -11.828125 C 9.789062 -12.472656 10.582031 -12.796875 11.25 -12.796875 C 11.394531 -12.796875 11.46875 -12.722656 11.46875 -12.578125 C 11.46875 -12.453125 11.394531 -12.390625 11.25 -12.390625 C 10.632812 -12.390625 9.890625 -12.070312 9.015625 -11.4375 C 8.140625 -10.800781 7.238281 -9.984375 6.3125 -8.984375 C 5.394531 -7.984375 4.535156 -6.910156 3.734375 -5.765625 C 2.941406 -4.628906 2.296875 -3.546875 1.796875 -2.515625 C 1.304688 -1.492188 1.0625 -0.65625 1.0625 0 C 1.0625 0.53125 1.300781 0.796875 1.78125 0.796875 C 2.4375 0.796875 3.300781 0.503906 4.375 -0.078125 C 5.457031 -0.660156 6.628906 -1.410156 7.890625 -2.328125 C 9.160156 -3.253906 10.378906 -4.222656 11.546875 -5.234375 C 11.597656 -5.234375 11.625 -5.257812 11.625 -5.3125 C 12.15625 -6.351562 12.75 -7.351562 13.40625 -8.3125 C 14.0625 -9.28125 14.71875 -10.066406 15.375 -10.671875 C 16.039062 -11.273438 16.601562 -11.578125 17.0625 -11.578125 C 17.28125 -11.578125 17.390625 -11.46875 17.390625 -11.25 C 17.390625 -10.9375 17.148438 -10.457031 16.671875 -9.8125 C 16.191406 -9.164062 15.546875 -8.4375 14.734375 -7.625 C 13.921875 -6.820312 13.023438 -5.988281 12.046875 -5.125 C 12.046875 -5.101562 12.035156 -5.09375 12.015625 -5.09375 C 12.003906 -5.09375 12 -5.078125 12 -5.046875 C 11.59375 -4.265625 11.269531 -3.503906 11.03125 -2.765625 C 10.789062 -2.035156 10.671875 -1.40625 10.671875 -0.875 C 10.671875 -0.414062 10.910156 -0.1875 11.390625 -0.1875 C 12.023438 -0.1875 12.726562 -0.4375 13.5 -0.9375 C 14.269531 -1.445312 15.046875 -2.101562 15.828125 -2.90625 C 16.617188 -3.707031 17.351562 -4.535156 18.03125 -5.390625 C 18.71875 -6.253906 19.273438 -7.046875 19.703125 -7.765625 C 20.140625 -8.484375 20.394531 -9.019531 20.46875 -9.375 C 20.519531 -9.507812 20.597656 -9.578125 20.703125 -9.578125 C 20.847656 -9.578125 20.921875 -9.5 20.921875 -9.34375 L 20.921875 -9.3125 C 20.847656 -8.925781 20.582031 -8.359375 20.125 -7.609375 C 19.675781 -6.867188 19.097656 -6.046875 18.390625 -5.140625 C 17.679688 -4.242188 16.914062 -3.390625 16.09375 -2.578125 C 15.269531 -1.773438 14.453125 -1.101562 13.640625 -0.5625 C 12.828125 -0.03125 12.078125 0.234375 11.390625 0.234375 C 10.628906 0.234375 10.25 -0.132812 10.25 -0.875 C 10.25 -1.332031 10.328125 -1.835938 10.484375 -2.390625 C 10.640625 -2.953125 10.816406 -3.484375 11.015625 -3.984375 C 11.117188 -4.210938 11.054688 -4.253906 10.828125 -4.109375 C 9.710938 -3.171875 8.570312 -2.296875 7.40625 -1.484375 C 6.238281 -0.671875 5.164062 -0.0195312 4.1875 0.46875 C 3.21875 0.96875 2.414062 1.21875 1.78125 1.21875 Z M 12.453125 -6.046875 C 13.191406 -6.703125 13.898438 -7.375 14.578125 -8.0625 C 15.265625 -8.757812 15.828125 -9.378906 16.265625 -9.921875 C 16.710938 -10.472656 16.9375 -10.835938 16.9375 -11.015625 C 16.9375 -11.066406 16.910156 -11.09375 16.859375 -11.09375 C 16.609375 -11.09375 16.21875 -10.835938 15.6875 -10.328125 C 15.15625 -9.828125 14.597656 -9.1875 14.015625 -8.40625 C 13.429688 -7.632812 12.910156 -6.847656 12.453125 -6.046875 Z M 12.453125 -6.046875 "/></g></g><g style="fill:#6e4c27;fill-opacity:1;"><g transform="translate(143.212806, 144.29809)"><path style="stroke:none" d="M 1.25 0.109375 C 0.695312 0.109375 0.265625 0.0078125 -0.046875 -0.1875 C -0.367188 -0.394531 -0.53125 -0.6875 -0.53125 -1.0625 C -0.53125 -1.488281 -0.351562 -1.941406 0 -2.421875 C 0.351562 -2.910156 0.773438 -3.332031 1.265625 -3.6875 C 1.765625 -4.039062 2.21875 -4.21875 2.625 -4.21875 C 3.070312 -4.21875 3.296875 -4.015625 3.296875 -3.609375 C 3.296875 -3.359375 3.125 -3.117188 2.78125 -2.890625 C 2.445312 -2.660156 2.101562 -2.546875 1.75 -2.546875 C 1.3125 -2.546875 0.992188 -2.597656 0.796875 -2.703125 C 0.546875 -2.441406 0.335938 -2.164062 0.171875 -1.875 C 0.00390625 -1.582031 -0.078125 -1.3125 -0.078125 -1.0625 C -0.078125 -0.582031 0.363281 -0.34375 1.25 -0.34375 C 1.632812 -0.34375 2.226562 -0.457031 3.03125 -0.6875 C 3.84375 -0.914062 4.75 -1.242188 5.75 -1.671875 C 6.75 -2.097656 7.679688 -2.628906 8.546875 -3.265625 C 8.566406 -3.285156 8.601562 -3.296875 8.65625 -3.296875 C 8.8125 -3.296875 8.890625 -3.234375 8.890625 -3.109375 C 8.890625 -3.035156 8.851562 -2.972656 8.78125 -2.921875 C 7.882812 -2.265625 6.929688 -1.707031 5.921875 -1.25 C 4.910156 -0.789062 3.976562 -0.445312 3.125 -0.21875 C 2.28125 0 1.65625 0.109375 1.25 0.109375 Z M 1.75 -2.96875 C 1.945312 -2.96875 2.1875 -3.046875 2.46875 -3.203125 C 2.75 -3.367188 2.890625 -3.503906 2.890625 -3.609375 C 2.890625 -3.710938 2.800781 -3.765625 2.625 -3.765625 C 2.394531 -3.765625 2.148438 -3.691406 1.890625 -3.546875 C 1.640625 -3.410156 1.390625 -3.238281 1.140625 -3.03125 C 1.210938 -3.007812 1.300781 -2.992188 1.40625 -2.984375 C 1.507812 -2.972656 1.625 -2.96875 1.75 -2.96875 Z M 1.75 -2.96875 "/></g></g><g style="fill:#6e4c27;fill-opacity:1;"><g transform="translate(150.99762, 144.29809)"><path style="stroke:none" d="M 3.84375 0.03125 C 2.925781 0.03125 2.46875 -0.34375 2.46875 -1.09375 C 2.46875 -1.425781 2.742188 -2.050781 3.296875 -2.96875 C 3.347656 -3.039062 3.359375 -3.085938 3.328125 -3.109375 C 3.304688 -3.140625 3.257812 -3.128906 3.1875 -3.078125 C 2.195312 -2.160156 1.359375 -1.421875 0.671875 -0.859375 C -0.00390625 -0.304688 -0.503906 -0.03125 -0.828125 -0.03125 C -1.160156 -0.03125 -1.328125 -0.207031 -1.328125 -0.5625 C -1.328125 -1.050781 -1.078125 -1.570312 -0.578125 -2.125 C -0.0859375 -2.6875 0.492188 -3.175781 1.171875 -3.59375 C 1.859375 -4.007812 2.476562 -4.21875 3.03125 -4.21875 C 3.3125 -4.21875 3.515625 -4.164062 3.640625 -4.0625 C 3.816406 -4.238281 3.992188 -4.398438 4.171875 -4.546875 C 4.347656 -4.703125 4.523438 -4.867188 4.703125 -5.046875 C 5.492188 -6.140625 6.398438 -7.335938 7.421875 -8.640625 C 8.453125 -9.941406 9.515625 -11.234375 10.609375 -12.515625 C 11.710938 -13.796875 12.757812 -14.960938 13.75 -16.015625 C 14.738281 -17.066406 15.59375 -17.90625 16.3125 -18.53125 C 17.03125 -19.164062 17.53125 -19.484375 17.8125 -19.484375 C 18.164062 -19.484375 18.34375 -19.316406 18.34375 -18.984375 C 18.34375 -18.785156 18.0625 -18.332031 17.5 -17.625 C 16.945312 -16.914062 16.195312 -16.046875 15.25 -15.015625 C 14.300781 -13.992188 13.242188 -12.875 12.078125 -11.65625 C 10.910156 -10.445312 9.707031 -9.234375 8.46875 -8.015625 C 7.226562 -6.796875 6.039062 -5.671875 4.90625 -4.640625 L 4.171875 -3.578125 C 4.253906 -3.421875 4.296875 -3.226562 4.296875 -3 C 4.242188 -2.875 4.164062 -2.8125 4.0625 -2.8125 C 3.914062 -2.8125 3.84375 -2.882812 3.84375 -3.03125 C 3.84375 -3.0625 3.84375 -3.078125 3.84375 -3.078125 C 3.5625 -2.597656 3.332031 -2.191406 3.15625 -1.859375 C 2.976562 -1.535156 2.890625 -1.28125 2.890625 -1.09375 C 2.890625 -0.644531 3.207031 -0.421875 3.84375 -0.421875 C 4.289062 -0.421875 4.921875 -0.539062 5.734375 -0.78125 C 6.546875 -1.019531 7.421875 -1.351562 8.359375 -1.78125 C 9.296875 -2.21875 10.179688 -2.722656 11.015625 -3.296875 C 11.035156 -3.296875 11.050781 -3.300781 11.0625 -3.3125 C 11.082031 -3.332031 11.101562 -3.34375 11.125 -3.34375 C 11.28125 -3.34375 11.359375 -3.265625 11.359375 -3.109375 C 11.359375 -3.035156 11.320312 -2.972656 11.25 -2.921875 C 10.382812 -2.335938 9.46875 -1.816406 8.5 -1.359375 C 7.539062 -0.910156 6.644531 -0.566406 5.8125 -0.328125 C 4.976562 -0.0859375 4.320312 0.03125 3.84375 0.03125 Z M 6.421875 -6.6875 C 7.734375 -7.945312 9.066406 -9.257812 10.421875 -10.625 C 11.773438 -12 13.015625 -13.285156 14.140625 -14.484375 C 15.273438 -15.691406 16.1875 -16.695312 16.875 -17.5 C 17.570312 -18.3125 17.921875 -18.804688 17.921875 -18.984375 C 17.921875 -19.035156 17.882812 -19.0625 17.8125 -19.0625 C 17.613281 -19.0625 17.222656 -18.804688 16.640625 -18.296875 C 16.054688 -17.796875 15.359375 -17.113281 14.546875 -16.25 C 13.734375 -15.394531 12.851562 -14.425781 11.90625 -13.34375 C 10.957031 -12.269531 10.007812 -11.15625 9.0625 -10 C 8.113281 -8.851562 7.234375 -7.75 6.421875 -6.6875 Z M -0.765625 -0.5 C -0.554688 -0.5 -0.09375 -0.796875 0.625 -1.390625 C 1.34375 -1.984375 2.234375 -2.773438 3.296875 -3.765625 L 3.03125 -3.765625 C 2.550781 -3.765625 2.007812 -3.578125 1.40625 -3.203125 C 0.800781 -2.835938 0.269531 -2.40625 -0.1875 -1.90625 C -0.644531 -1.414062 -0.875 -0.984375 -0.875 -0.609375 C -0.875 -0.535156 -0.835938 -0.5 -0.765625 -0.5 Z M -0.765625 -0.5 "/></g></g><g style="fill:#6e4c27;fill-opacity:1;"><g transform="translate(161.288767, 144.29809)"><path style="stroke:none" d="M 3.84375 0.03125 C 2.925781 0.03125 2.46875 -0.34375 2.46875 -1.09375 C 2.46875 -1.425781 2.742188 -2.050781 3.296875 -2.96875 C 3.347656 -3.039062 3.359375 -3.085938 3.328125 -3.109375 C 3.304688 -3.140625 3.257812 -3.128906 3.1875 -3.078125 C 2.195312 -2.160156 1.359375 -1.421875 0.671875 -0.859375 C -0.00390625 -0.304688 -0.503906 -0.03125 -0.828125 -0.03125 C -1.160156 -0.03125 -1.328125 -0.207031 -1.328125 -0.5625 C -1.328125 -1.050781 -1.078125 -1.570312 -0.578125 -2.125 C -0.0859375 -2.6875 0.492188 -3.175781 1.171875 -3.59375 C 1.859375 -4.007812 2.476562 -4.21875 3.03125 -4.21875 C 3.3125 -4.21875 3.515625 -4.164062 3.640625 -4.0625 C 3.816406 -4.238281 3.992188 -4.398438 4.171875 -4.546875 C 4.347656 -4.703125 4.523438 -4.867188 4.703125 -5.046875 C 5.492188 -6.140625 6.398438 -7.335938 7.421875 -8.640625 C 8.453125 -9.941406 9.515625 -11.234375 10.609375 -12.515625 C 11.710938 -13.796875 12.757812 -14.960938 13.75 -16.015625 C 14.738281 -17.066406 15.59375 -17.90625 16.3125 -18.53125 C 17.03125 -19.164062 17.53125 -19.484375 17.8125 -19.484375 C 18.164062 -19.484375 18.34375 -19.316406 18.34375 -18.984375 C 18.34375 -18.785156 18.0625 -18.332031 17.5 -17.625 C 16.945312 -16.914062 16.195312 -16.046875 15.25 -15.015625 C 14.300781 -13.992188 13.242188 -12.875 12.078125 -11.65625 C 10.910156 -10.445312 9.707031 -9.234375 8.46875 -8.015625 C 7.226562 -6.796875 6.039062 -5.671875 4.90625 -4.640625 L 4.171875 -3.578125 C 4.253906 -3.421875 4.296875 -3.226562 4.296875 -3 C 4.242188 -2.875 4.164062 -2.8125 4.0625 -2.8125 C 3.914062 -2.8125 3.84375 -2.882812 3.84375 -3.03125 C 3.84375 -3.0625 3.84375 -3.078125 3.84375 -3.078125 C 3.5625 -2.597656 3.332031 -2.191406 3.15625 -1.859375 C 2.976562 -1.535156 2.890625 -1.28125 2.890625 -1.09375 C 2.890625 -0.644531 3.207031 -0.421875 3.84375 -0.421875 C 4.289062 -0.421875 4.921875 -0.539062 5.734375 -0.78125 C 6.546875 -1.019531 7.421875 -1.351562 8.359375 -1.78125 C 9.296875 -2.21875 10.179688 -2.722656 11.015625 -3.296875 C 11.035156 -3.296875 11.050781 -3.300781 11.0625 -3.3125 C 11.082031 -3.332031 11.101562 -3.34375 11.125 -3.34375 C 11.28125 -3.34375 11.359375 -3.265625 11.359375 -3.109375 C 11.359375 -3.035156 11.320312 -2.972656 11.25 -2.921875 C 10.382812 -2.335938 9.46875 -1.816406 8.5 -1.359375 C 7.539062 -0.910156 6.644531 -0.566406 5.8125 -0.328125 C 4.976562 -0.0859375 4.320312 0.03125 3.84375 0.03125 Z M 6.421875 -6.6875 C 7.734375 -7.945312 9.066406 -9.257812 10.421875 -10.625 C 11.773438 -12 13.015625 -13.285156 14.140625 -14.484375 C 15.273438 -15.691406 16.1875 -16.695312 16.875 -17.5 C 17.570312 -18.3125 17.921875 -18.804688 17.921875 -18.984375 C 17.921875 -19.035156 17.882812 -19.0625 17.8125 -19.0625 C 17.613281 -19.0625 17.222656 -18.804688 16.640625 -18.296875 C 16.054688 -17.796875 15.359375 -17.113281 14.546875 -16.25 C 13.734375 -15.394531 12.851562 -14.425781 11.90625 -13.34375 C 10.957031 -12.269531 10.007812 -11.15625 9.0625 -10 C 8.113281 -8.851562 7.234375 -7.75 6.421875 -6.6875 Z M -0.765625 -0.5 C -0.554688 -0.5 -0.09375 -0.796875 0.625 -1.390625 C 1.34375 -1.984375 2.234375 -2.773438 3.296875 -3.765625 L 3.03125 -3.765625 C 2.550781 -3.765625 2.007812 -3.578125 1.40625 -3.203125 C 0.800781 -2.835938 0.269531 -2.40625 -0.1875 -1.90625 C -0.644531 -1.414062 -0.875 -0.984375 -0.875 -0.609375 C -0.875 -0.535156 -0.835938 -0.5 -0.765625 -0.5 Z M -0.765625 -0.5 "/></g></g><g style="fill:#6e4c27;fill-opacity:1;"><g transform="translate(171.579915, 144.29809)"><path style="stroke:none" d="M 2.734375 -4.90625 C 2.578125 -4.90625 2.5 -4.96875 2.5 -5.09375 C 2.5 -5.164062 2.515625 -5.210938 2.546875 -5.234375 L 2.703125 -5.390625 C 2.742188 -5.460938 2.800781 -5.550781 2.875 -5.65625 C 2.957031 -5.757812 3.007812 -5.835938 3.03125 -5.890625 C 3.082031 -5.941406 3.148438 -5.96875 3.234375 -5.96875 C 3.359375 -5.96875 3.421875 -5.890625 3.421875 -5.734375 C 3.421875 -5.660156 3.40625 -5.609375 3.375 -5.578125 C 3.28125 -5.484375 3.164062 -5.332031 3.03125 -5.125 L 2.890625 -4.96875 C 2.859375 -4.925781 2.804688 -4.90625 2.734375 -4.90625 Z M 0.296875 0.234375 C -0.378906 0.234375 -0.71875 -0.0976562 -0.71875 -0.765625 C -0.71875 -1.117188 -0.507812 -1.601562 -0.09375 -2.21875 C 0.320312 -2.84375 0.882812 -3.507812 1.59375 -4.21875 C 1.625 -4.238281 1.675781 -4.25 1.75 -4.25 C 1.894531 -4.25 1.96875 -4.1875 1.96875 -4.0625 C 1.96875 -4.007812 1.945312 -3.957031 1.90625 -3.90625 C 1.269531 -3.25 0.742188 -2.628906 0.328125 -2.046875 C -0.0859375 -1.460938 -0.296875 -1.035156 -0.296875 -0.765625 C -0.296875 -0.410156 -0.0976562 -0.234375 0.296875 -0.234375 C 0.609375 -0.234375 1.046875 -0.328125 1.609375 -0.515625 C 2.179688 -0.703125 2.820312 -0.953125 3.53125 -1.265625 C 4.238281 -1.585938 4.929688 -1.925781 5.609375 -2.28125 C 6.296875 -2.632812 6.882812 -2.972656 7.375 -3.296875 L 7.484375 -3.296875 C 7.628906 -3.296875 7.703125 -3.234375 7.703125 -3.109375 C 7.703125 -3.035156 7.679688 -2.972656 7.640625 -2.921875 C 7.128906 -2.597656 6.523438 -2.25 5.828125 -1.875 C 5.128906 -1.507812 4.410156 -1.164062 3.671875 -0.84375 C 2.941406 -0.53125 2.28125 -0.269531 1.6875 -0.0625 C 1.09375 0.132812 0.628906 0.234375 0.296875 0.234375 Z M 0.296875 0.234375 "/></g></g><g style="fill:#6e4c27;fill-opacity:1;"><g transform="translate(178.225494, 144.29809)"><path style="stroke:none" d="M -1.0625 0 C -1.3125 0 -1.414062 -0.140625 -1.375 -0.421875 C -1.34375 -0.546875 -1.179688 -0.816406 -0.890625 -1.234375 C -0.597656 -1.648438 -0.226562 -2.128906 0.21875 -2.671875 C 0.675781 -3.222656 1.175781 -3.78125 1.71875 -4.34375 C 2.269531 -4.914062 2.820312 -5.40625 3.375 -5.8125 C 3.40625 -5.832031 3.457031 -5.84375 3.53125 -5.84375 C 3.65625 -5.84375 3.71875 -5.78125 3.71875 -5.65625 C 3.71875 -5.582031 3.691406 -5.519531 3.640625 -5.46875 C 2.878906 -4.914062 2.128906 -4.21875 1.390625 -3.375 C 0.660156 -2.539062 0.0820312 -1.832031 -0.34375 -1.25 C -0.363281 -1.195312 -0.367188 -1.144531 -0.359375 -1.09375 C -0.347656 -1.050781 -0.289062 -1.050781 -0.1875 -1.09375 C 2.75 -3.226562 4.671875 -4.296875 5.578125 -4.296875 C 5.984375 -4.296875 6.1875 -4.117188 6.1875 -3.765625 C 6.1875 -3.585938 6.15625 -3.359375 6.09375 -3.078125 C 6.03125 -2.796875 5.972656 -2.515625 5.921875 -2.234375 C 5.773438 -1.753906 5.703125 -1.390625 5.703125 -1.140625 C 5.703125 -0.929688 5.835938 -0.828125 6.109375 -0.828125 C 6.742188 -0.828125 7.59375 -1.050781 8.65625 -1.5 C 9.71875 -1.945312 10.820312 -2.546875 11.96875 -3.296875 L 12.078125 -3.296875 C 12.234375 -3.296875 12.3125 -3.234375 12.3125 -3.109375 C 12.3125 -3.035156 12.269531 -2.972656 12.1875 -2.921875 C 11.03125 -2.160156 9.898438 -1.550781 8.796875 -1.09375 C 7.691406 -0.644531 6.796875 -0.421875 6.109375 -0.421875 C 5.523438 -0.421875 5.234375 -0.660156 5.234375 -1.140625 C 5.234375 -1.265625 5.257812 -1.429688 5.3125 -1.640625 C 5.363281 -1.859375 5.414062 -2.097656 5.46875 -2.359375 C 5.539062 -2.628906 5.609375 -2.890625 5.671875 -3.140625 C 5.742188 -3.398438 5.78125 -3.582031 5.78125 -3.6875 C 5.78125 -3.8125 5.710938 -3.875 5.578125 -3.875 C 5.171875 -3.875 4.613281 -3.675781 3.90625 -3.28125 C 3.195312 -2.894531 2.472656 -2.441406 1.734375 -1.921875 C 1.003906 -1.398438 0.390625 -0.960938 -0.109375 -0.609375 C -0.335938 -0.453125 -0.535156 -0.3125 -0.703125 -0.1875 C -0.867188 -0.0625 -0.988281 0 -1.0625 0 Z M -1.0625 0 "/></g></g><g style="fill:#6e4c27;fill-opacity:1;"><g transform="translate(189.428036, 144.29809)"><path style="stroke:none" d="M -14.515625 15.53125 C -15.117188 15.53125 -15.421875 15.238281 -15.421875 14.65625 C -15.421875 14.300781 -14.988281 13.738281 -14.125 12.96875 C -13.269531 12.195312 -11.894531 11.144531 -10 9.8125 C -8.113281 8.488281 -5.640625 6.828125 -2.578125 4.828125 C -1.015625 3.148438 0.207031 1.757812 1.09375 0.65625 C 1.988281 -0.4375 2.710938 -1.328125 3.265625 -2.015625 C 3.390625 -2.191406 3.425781 -2.289062 3.375 -2.3125 C 3.320312 -2.34375 3.144531 -2.253906 2.84375 -2.046875 C 0.644531 -0.703125 -0.742188 -0.03125 -1.328125 -0.03125 C -1.753906 -0.03125 -1.96875 -0.25 -1.96875 -0.6875 C -1.96875 -0.988281 -1.765625 -1.347656 -1.359375 -1.765625 C -0.960938 -2.179688 -0.457031 -2.578125 0.15625 -2.953125 C 0.78125 -3.335938 1.421875 -3.65625 2.078125 -3.90625 C 2.742188 -4.164062 3.332031 -4.296875 3.84375 -4.296875 C 4.113281 -4.296875 4.335938 -4.25 4.515625 -4.15625 C 4.691406 -4.070312 4.78125 -3.925781 4.78125 -3.71875 C 4.78125 -3.539062 4.703125 -3.328125 4.546875 -3.078125 C 4.398438 -2.828125 4.085938 -2.382812 3.609375 -1.75 C 3.128906 -1.132812 2.519531 -0.378906 1.78125 0.515625 C 1.050781 1.410156 0.09375 2.53125 -1.09375 3.875 L 2.546875 1.484375 C 4.242188 0.390625 5.726562 -0.570312 7 -1.40625 C 8.28125 -2.238281 9.148438 -2.832031 9.609375 -3.1875 C 9.628906 -3.21875 9.679688 -3.234375 9.765625 -3.234375 C 9.890625 -3.234375 9.953125 -3.164062 9.953125 -3.03125 C 9.953125 -2.9375 9.925781 -2.875 9.875 -2.84375 C 9.414062 -2.488281 8.546875 -1.882812 7.265625 -1.03125 C 5.992188 -0.1875 4.492188 0.773438 2.765625 1.859375 C 1.859375 2.441406 0.976562 3.007812 0.125 3.5625 C -0.71875 4.125 -1.519531 4.660156 -2.28125 5.171875 C -2.957031 5.898438 -3.710938 6.691406 -4.546875 7.546875 C -5.390625 8.410156 -6.304688 9.351562 -7.296875 10.375 C -10.710938 13.8125 -13.117188 15.53125 -14.515625 15.53125 Z M -1.328125 -0.453125 C -0.898438 -0.453125 0.414062 -1.113281 2.625 -2.4375 C 3 -2.65625 3.3125 -2.847656 3.5625 -3.015625 C 3.820312 -3.179688 4.023438 -3.316406 4.171875 -3.421875 L 4.296875 -3.53125 C 4.316406 -3.582031 4.328125 -3.644531 4.328125 -3.71875 C 4.328125 -3.800781 4.164062 -3.84375 3.84375 -3.84375 C 3.40625 -3.84375 2.890625 -3.726562 2.296875 -3.5 C 1.703125 -3.269531 1.113281 -2.976562 0.53125 -2.625 C -0.0507812 -2.269531 -0.535156 -1.914062 -0.921875 -1.5625 C -1.316406 -1.207031 -1.515625 -0.914062 -1.515625 -0.6875 C -1.515625 -0.53125 -1.453125 -0.453125 -1.328125 -0.453125 Z M -14.515625 15.078125 C -13.242188 15.078125 -10.9375 13.40625 -7.59375 10.0625 C -6.882812 9.332031 -6.21875 8.644531 -5.59375 8 C -4.976562 7.351562 -4.394531 6.738281 -3.84375 6.15625 C -7.738281 8.738281 -10.570312 10.707031 -12.34375 12.0625 C -14.113281 13.414062 -15 14.28125 -15 14.65625 C -15 14.9375 -14.835938 15.078125 -14.515625 15.078125 Z M -14.515625 15.078125 "/></g></g><g style="fill:#6e4c27;fill-opacity:1;"><g transform="translate(198.390072, 144.29809)"><path style="stroke:none" d=""/></g></g><g style="fill:#6e4c27;fill-opacity:1;"><g transform="translate(206.78249, 144.29809)"><path style="stroke:none" d="M 2.65625 2.234375 C 1.820312 2.234375 1.1875 2.0625 0.75 1.71875 C 0.320312 1.382812 0.160156 0.9375 0.265625 0.375 C 0.390625 -0.25 0.84375 -0.925781 1.625 -1.65625 C 2.414062 -2.394531 3.457031 -3.019531 4.75 -3.53125 C 5.351562 -4.3125 6.007812 -5.140625 6.71875 -6.015625 C 7.425781 -6.890625 8.132812 -7.722656 8.84375 -8.515625 C 9.550781 -9.316406 10.210938 -10 10.828125 -10.5625 C 10.878906 -10.613281 10.929688 -10.640625 10.984375 -10.640625 C 11.128906 -10.640625 11.203125 -10.5625 11.203125 -10.40625 C 11.203125 -10.351562 11.175781 -10.300781 11.125 -10.25 C 10.289062 -9.46875 9.367188 -8.472656 8.359375 -7.265625 C 7.347656 -6.066406 6.394531 -4.910156 5.5 -3.796875 C 6.113281 -4.003906 6.769531 -4.15625 7.46875 -4.25 C 8.164062 -4.351562 8.90625 -4.40625 9.6875 -4.40625 C 10.113281 -4.40625 10.535156 -4.390625 10.953125 -4.359375 C 11.367188 -4.335938 11.78125 -4.289062 12.1875 -4.21875 C 12.320312 -4.164062 12.390625 -4.085938 12.390625 -3.984375 C 12.390625 -3.835938 12.3125 -3.765625 12.15625 -3.765625 L 12.109375 -3.765625 C 11.328125 -3.910156 10.519531 -3.984375 9.6875 -3.984375 C 8.820312 -3.984375 8 -3.914062 7.21875 -3.78125 C 6.4375 -3.644531 5.710938 -3.445312 5.046875 -3.1875 C 4.460938 -2.425781 3.960938 -1.75 3.546875 -1.15625 C 3.128906 -0.5625 2.859375 -0.140625 2.734375 0.109375 C 2.660156 0.191406 2.597656 0.234375 2.546875 0.234375 C 2.390625 0.234375 2.3125 0.15625 2.3125 0 C 2.3125 -0.0507812 2.328125 -0.0859375 2.359375 -0.109375 C 2.484375 -0.316406 2.707031 -0.664062 3.03125 -1.15625 C 3.363281 -1.65625 3.769531 -2.21875 4.25 -2.84375 C 3.21875 -2.363281 2.390625 -1.816406 1.765625 -1.203125 C 1.140625 -0.597656 0.78125 -0.046875 0.6875 0.453125 C 0.53125 1.335938 1.1875 1.78125 2.65625 1.78125 C 4.019531 1.78125 5.425781 1.453125 6.875 0.796875 C 8.320312 0.140625 9.679688 -0.738281 10.953125 -1.84375 C 12.234375 -2.945312 13.316406 -4.175781 14.203125 -5.53125 C 15.085938 -6.882812 15.644531 -8.253906 15.875 -9.640625 C 16.050781 -10.503906 15.90625 -11.175781 15.4375 -11.65625 C 14.96875 -12.144531 14.253906 -12.390625 13.296875 -12.390625 C 12.148438 -12.390625 11.007812 -12.171875 9.875 -11.734375 C 8.738281 -11.304688 7.660156 -10.753906 6.640625 -10.078125 C 5.628906 -9.410156 4.71875 -8.691406 3.90625 -7.921875 C 3.101562 -7.148438 2.472656 -6.421875 2.015625 -5.734375 C 1.984375 -5.660156 1.921875 -5.625 1.828125 -5.625 C 1.671875 -5.625 1.59375 -5.695312 1.59375 -5.84375 C 1.59375 -5.875 1.597656 -5.898438 1.609375 -5.921875 C 1.628906 -5.953125 1.640625 -5.96875 1.640625 -5.96875 C 2.117188 -6.644531 2.769531 -7.378906 3.59375 -8.171875 C 4.414062 -8.972656 5.351562 -9.722656 6.40625 -10.421875 C 7.457031 -11.117188 8.578125 -11.6875 9.765625 -12.125 C 10.953125 -12.570312 12.128906 -12.796875 13.296875 -12.796875 C 14.410156 -12.796875 15.238281 -12.507812 15.78125 -11.9375 C 16.320312 -11.375 16.503906 -10.585938 16.328125 -9.578125 C 16.078125 -8.128906 15.492188 -6.707031 14.578125 -5.3125 C 13.671875 -3.925781 12.554688 -2.660156 11.234375 -1.515625 C 9.921875 -0.378906 8.515625 0.523438 7.015625 1.203125 C 5.523438 1.890625 4.070312 2.234375 2.65625 2.234375 Z M 2.65625 2.234375 "/></g></g><g style="fill:#6e4c27;fill-opacity:1;"><g transform="translate(222.579981, 144.29809)"><path style="stroke:none" d="M 5.125 0.03125 C 4.21875 0.03125 3.765625 -0.34375 3.765625 -1.09375 C 3.765625 -1.476562 3.863281 -1.875 4.0625 -2.28125 C 4.269531 -2.6875 4.484375 -3.050781 4.703125 -3.375 C 4.753906 -3.425781 4.765625 -3.460938 4.734375 -3.484375 C 4.710938 -3.515625 4.679688 -3.503906 4.640625 -3.453125 C 4.460938 -3.347656 4.207031 -3.171875 3.875 -2.921875 C 3.34375 -2.546875 2.753906 -2.132812 2.109375 -1.6875 C 1.460938 -1.25 0.847656 -0.863281 0.265625 -0.53125 C -0.316406 -0.195312 -0.785156 -0.03125 -1.140625 -0.03125 C -1.597656 -0.03125 -1.828125 -0.234375 -1.828125 -0.640625 C -1.828125 -0.972656 -1.648438 -1.332031 -1.296875 -1.71875 C -0.941406 -2.113281 -0.5 -2.488281 0.03125 -2.84375 C 0.5625 -3.195312 1.085938 -3.488281 1.609375 -3.71875 C 2.128906 -3.945312 2.554688 -4.0625 2.890625 -4.0625 C 3.390625 -4.0625 3.742188 -3.875 3.953125 -3.5 C 4.765625 -4.101562 5.242188 -4.40625 5.390625 -4.40625 C 5.566406 -4.40625 5.65625 -4.316406 5.65625 -4.140625 C 5.65625 -4.035156 5.515625 -3.78125 5.234375 -3.375 C 5.015625 -3.050781 4.78125 -2.679688 4.53125 -2.265625 C 4.289062 -1.847656 4.171875 -1.457031 4.171875 -1.09375 C 4.171875 -0.644531 4.488281 -0.421875 5.125 -0.421875 C 5.53125 -0.421875 6.125 -0.546875 6.90625 -0.796875 C 7.695312 -1.046875 8.535156 -1.382812 9.421875 -1.8125 C 10.304688 -2.25 11.101562 -2.734375 11.8125 -3.265625 C 11.832031 -3.285156 11.882812 -3.296875 11.96875 -3.296875 C 12.09375 -3.296875 12.15625 -3.234375 12.15625 -3.109375 C 12.15625 -3.035156 12.128906 -2.972656 12.078125 -2.921875 C 11.367188 -2.421875 10.554688 -1.941406 9.640625 -1.484375 C 8.734375 -1.023438 7.867188 -0.65625 7.046875 -0.375 C 6.222656 -0.101562 5.582031 0.03125 5.125 0.03125 Z M -1.140625 -0.5 C -0.835938 -0.5 -0.414062 -0.648438 0.125 -0.953125 C 0.675781 -1.253906 1.257812 -1.617188 1.875 -2.046875 C 2.5 -2.484375 3.066406 -2.890625 3.578125 -3.265625 C 3.441406 -3.515625 3.210938 -3.640625 2.890625 -3.640625 C 2.554688 -3.640625 2.148438 -3.53125 1.671875 -3.3125 C 1.191406 -3.101562 0.71875 -2.828125 0.25 -2.484375 C -0.21875 -2.140625 -0.609375 -1.800781 -0.921875 -1.46875 C -1.242188 -1.144531 -1.40625 -0.867188 -1.40625 -0.640625 C -1.40625 -0.546875 -1.316406 -0.5 -1.140625 -0.5 Z M -1.140625 -0.5 "/></g></g><g style="fill:#6e4c27;fill-opacity:1;"><g transform="translate(233.668598, 144.29809)"><path style="stroke:none" d="M -12.921875 15.53125 C -13.523438 15.53125 -13.828125 15.238281 -13.828125 14.65625 C -13.828125 13.800781 -12.960938 12.65625 -11.234375 11.21875 C -9.515625 9.789062 -6.832031 7.953125 -3.1875 5.703125 L 2.703125 2.171875 L 2.96875 2.015625 C 3.375 1.484375 3.820312 0.835938 4.3125 0.078125 C 4.800781 -0.679688 5.242188 -1.414062 5.640625 -2.125 C 6.035156 -2.832031 6.269531 -3.378906 6.34375 -3.765625 C 6.34375 -3.910156 6.28125 -3.945312 6.15625 -3.875 C 6 -3.800781 5.78125 -3.65625 5.5 -3.4375 C 5.226562 -3.21875 4.835938 -2.921875 4.328125 -2.546875 C 3.796875 -2.160156 3.222656 -1.753906 2.609375 -1.328125 C 2.003906 -0.898438 1.441406 -0.53125 0.921875 -0.21875 C 0.410156 0.0820312 -0.0078125 0.234375 -0.34375 0.234375 C -0.800781 0.234375 -1.03125 0.03125 -1.03125 -0.375 C -1.03125 -0.65625 -0.851562 -1.066406 -0.5 -1.609375 C -0.144531 -2.160156 0.265625 -2.707031 0.734375 -3.25 C 1.203125 -3.789062 1.601562 -4.203125 1.9375 -4.484375 C 1.957031 -4.484375 1.972656 -4.488281 1.984375 -4.5 C 2.003906 -4.507812 2.023438 -4.515625 2.046875 -4.515625 C 2.203125 -4.515625 2.28125 -4.441406 2.28125 -4.296875 C 2.28125 -4.242188 2.253906 -4.191406 2.203125 -4.140625 C 1.828125 -3.804688 1.421875 -3.378906 0.984375 -2.859375 C 0.554688 -2.347656 0.191406 -1.859375 -0.109375 -1.390625 C -0.410156 -0.921875 -0.5625 -0.582031 -0.5625 -0.375 C -0.5625 -0.28125 -0.488281 -0.234375 -0.34375 -0.234375 C -0.0625 -0.234375 0.316406 -0.367188 0.796875 -0.640625 C 1.273438 -0.921875 1.800781 -1.269531 2.375 -1.6875 C 2.945312 -2.101562 3.5 -2.515625 4.03125 -2.921875 C 4.8125 -3.503906 5.359375 -3.894531 5.671875 -4.09375 C 5.992188 -4.300781 6.21875 -4.40625 6.34375 -4.40625 C 6.644531 -4.40625 6.796875 -4.238281 6.796875 -3.90625 C 6.796875 -3.601562 6.535156 -2.945312 6.015625 -1.9375 C 5.492188 -0.925781 4.789062 0.195312 3.90625 1.4375 C 5.507812 0.5 6.910156 -0.351562 8.109375 -1.125 C 9.304688 -1.894531 10.351562 -2.597656 11.25 -3.234375 C 11.269531 -3.253906 11.304688 -3.265625 11.359375 -3.265625 C 11.503906 -3.265625 11.578125 -3.203125 11.578125 -3.078125 C 11.578125 -3.003906 11.554688 -2.941406 11.515625 -2.890625 C 10.671875 -2.328125 9.523438 -1.570312 8.078125 -0.625 C 6.640625 0.320312 5.035156 1.316406 3.265625 2.359375 C 3.015625 2.679688 2.75 3.007812 2.46875 3.34375 C 2.1875 3.675781 1.910156 4.003906 1.640625 4.328125 C 0.421875 5.671875 -0.894531 7.003906 -2.3125 8.328125 C -3.726562 9.660156 -5.125 10.867188 -6.5 11.953125 C -7.882812 13.046875 -9.140625 13.914062 -10.265625 14.5625 C -11.398438 15.207031 -12.285156 15.53125 -12.921875 15.53125 Z M -12.921875 15.078125 C -12.359375 15.078125 -11.550781 14.78125 -10.5 14.1875 C -9.445312 13.59375 -8.253906 12.773438 -6.921875 11.734375 C -5.597656 10.703125 -4.21875 9.523438 -2.78125 8.203125 C -1.351562 6.890625 0.015625 5.5 1.328125 4.03125 L 2.234375 2.96875 C 1.378906 3.46875 0.515625 3.976562 -0.359375 4.5 C -1.234375 5.019531 -2.101562 5.546875 -2.96875 6.078125 C -6.488281 8.253906 -9.101562 10.046875 -10.8125 11.453125 C -12.519531 12.859375 -13.375 13.925781 -13.375 14.65625 C -13.375 14.9375 -13.222656 15.078125 -12.921875 15.078125 Z M -12.921875 15.078125 "/></g></g><g style="fill:#ffffff;fill-opacity:1;"><g transform="translate(112.79795, 277.126182)"><path style="stroke:none" d="M 3.921875 0.046875 C 3.285156 0.046875 2.722656 -0.125 2.234375 -0.46875 C 1.742188 -0.820312 1.363281 -1.316406 1.09375 -1.953125 C 0.820312 -2.597656 0.6875 -3.347656 0.6875 -4.203125 C 0.6875 -5.046875 0.820312 -5.789062 1.09375 -6.4375 C 1.363281 -7.082031 1.742188 -7.578125 2.234375 -7.921875 C 2.722656 -8.273438 3.285156 -8.453125 3.921875 -8.453125 C 4.566406 -8.453125 5.128906 -8.273438 5.609375 -7.921875 C 6.097656 -7.578125 6.476562 -7.082031 6.75 -6.4375 C 7.019531 -5.789062 7.15625 -5.046875 7.15625 -4.203125 C 7.15625 -3.347656 7.019531 -2.597656 6.75 -1.953125 C 6.476562 -1.316406 6.097656 -0.820312 5.609375 -0.46875 C 5.128906 -0.125 4.566406 0.046875 3.921875 0.046875 Z M 3.921875 -0.328125 C 4.484375 -0.328125 4.976562 -0.484375 5.40625 -0.796875 C 5.84375 -1.109375 6.175781 -1.554688 6.40625 -2.140625 C 6.644531 -2.722656 6.765625 -3.410156 6.765625 -4.203125 C 6.765625 -4.992188 6.644531 -5.679688 6.40625 -6.265625 C 6.175781 -6.847656 5.84375 -7.296875 5.40625 -7.609375 C 4.976562 -7.921875 4.484375 -8.078125 3.921875 -8.078125 C 3.359375 -8.078125 2.863281 -7.921875 2.4375 -7.609375 C 2.007812 -7.296875 1.675781 -6.847656 1.4375 -6.265625 C 1.207031 -5.679688 1.09375 -4.992188 1.09375 -4.203125 C 1.09375 -3.410156 1.207031 -2.722656 1.4375 -2.140625 C 1.675781 -1.554688 2.007812 -1.109375 2.4375 -0.796875 C 2.863281 -0.484375 3.359375 -0.328125 3.921875 -0.328125 Z M 3.921875 -0.328125 "/></g></g><g style="fill:#ffffff;fill-opacity:1;"><g transform="translate(130.250166, 277.126182)"><path style="stroke:none" d="M 4.890625 -4.390625 C 5.523438 -4.253906 6.015625 -4 6.359375 -3.625 C 6.710938 -3.257812 6.890625 -2.8125 6.890625 -2.28125 C 6.890625 -1.5625 6.609375 -0.992188 6.046875 -0.578125 C 5.492188 -0.160156 4.726562 0.046875 3.75 0.046875 C 2.78125 0.046875 2.019531 -0.160156 1.46875 -0.578125 C 0.914062 -0.992188 0.640625 -1.5625 0.640625 -2.28125 C 0.640625 -2.820312 0.804688 -3.273438 1.140625 -3.640625 C 1.484375 -4.003906 1.972656 -4.253906 2.609375 -4.390625 C 2.078125 -4.515625 1.664062 -4.742188 1.375 -5.078125 C 1.082031 -5.421875 0.9375 -5.832031 0.9375 -6.3125 C 0.9375 -6.96875 1.1875 -7.488281 1.6875 -7.875 C 2.195312 -8.257812 2.882812 -8.453125 3.75 -8.453125 C 4.613281 -8.453125 5.300781 -8.257812 5.8125 -7.875 C 6.332031 -7.488281 6.59375 -6.96875 6.59375 -6.3125 C 6.59375 -5.832031 6.445312 -5.421875 6.15625 -5.078125 C 5.863281 -4.742188 5.441406 -4.515625 4.890625 -4.390625 Z M 1.34375 -6.3125 C 1.34375 -5.78125 1.550781 -5.351562 1.96875 -5.03125 C 2.394531 -4.71875 2.988281 -4.5625 3.75 -4.5625 C 4.507812 -4.5625 5.101562 -4.71875 5.53125 -5.03125 C 5.96875 -5.351562 6.1875 -5.78125 6.1875 -6.3125 C 6.1875 -6.851562 5.96875 -7.285156 5.53125 -7.609375 C 5.09375 -7.929688 4.5 -8.09375 3.75 -8.09375 C 3.007812 -8.09375 2.421875 -7.929688 1.984375 -7.609375 C 1.554688 -7.285156 1.34375 -6.851562 1.34375 -6.3125 Z M 3.75 -0.3125 C 4.613281 -0.3125 5.285156 -0.488281 5.765625 -0.84375 C 6.242188 -1.195312 6.484375 -1.671875 6.484375 -2.265625 C 6.484375 -2.867188 6.242188 -3.34375 5.765625 -3.6875 C 5.285156 -4.039062 4.613281 -4.21875 3.75 -4.21875 C 2.894531 -4.21875 2.226562 -4.039062 1.75 -3.6875 C 1.28125 -3.34375 1.046875 -2.867188 1.046875 -2.265625 C 1.046875 -1.660156 1.28125 -1.179688 1.75 -0.828125 C 2.226562 -0.484375 2.894531 -0.3125 3.75 -0.3125 Z M 3.75 -0.3125 "/></g></g><g style="fill:#ffffff;fill-opacity:1;"><g transform="translate(147.366715, 277.126182)"><path style="stroke:none" d="M 3.703125 -10.109375 L 4.078125 -10.109375 L 0.125 1.203125 L -0.25 1.203125 Z M 3.703125 -10.109375 "/></g></g><g style="fill:#ffffff;fill-opacity:1;"><g transform="translate(160.671008, 277.126182)"><path style="stroke:none" d="M 2.625 -8.40625 L 2.625 0 L 2.234375 0 L 2.234375 -8.03125 L 0.125 -8.03125 L 0.125 -8.40625 Z M 2.625 -8.40625 "/></g></g><g style="fill:#ffffff;fill-opacity:1;"><g transform="translate(174.430857, 277.126182)"><path style="stroke:none" d="M 6.34375 -8.40625 L 6.34375 -8.109375 L 2.640625 0 L 2.203125 0 L 5.875 -8.03125 L 0.8125 -8.03125 L 0.8125 -6.375 L 0.421875 -6.375 L 0.421875 -8.40625 Z M 6.34375 -8.40625 "/></g></g><g style="fill:#ffffff;fill-opacity:1;"><g transform="translate(190.924012, 277.126182)"><path style="stroke:none" d="M 3.703125 -10.109375 L 4.078125 -10.109375 L 0.125 1.203125 L -0.25 1.203125 Z M 3.703125 -10.109375 "/></g></g><g style="fill:#ffffff;fill-opacity:1;"><g transform="translate(204.228306, 277.126182)"><path style="stroke:none" d="M 6.1875 -0.375 L 6.1875 0 L 0.5 0 L 0.5 -0.28125 L 4.109375 -3.90625 C 4.597656 -4.394531 4.925781 -4.8125 5.09375 -5.15625 C 5.269531 -5.507812 5.359375 -5.867188 5.359375 -6.234375 C 5.359375 -6.804688 5.160156 -7.253906 4.765625 -7.578125 C 4.378906 -7.910156 3.828125 -8.078125 3.109375 -8.078125 C 2.546875 -8.078125 2.054688 -7.992188 1.640625 -7.828125 C 1.234375 -7.660156 0.882812 -7.40625 0.59375 -7.0625 L 0.3125 -7.328125 C 0.957031 -8.078125 1.894531 -8.453125 3.125 -8.453125 C 3.925781 -8.453125 4.5625 -8.253906 5.03125 -7.859375 C 5.507812 -7.460938 5.75 -6.929688 5.75 -6.265625 C 5.75 -5.835938 5.648438 -5.425781 5.453125 -5.03125 C 5.265625 -4.644531 4.910156 -4.191406 4.390625 -3.671875 L 1.109375 -0.375 Z M 6.1875 -0.375 "/></g></g><g style="fill:#ffffff;fill-opacity:1;"><g transform="translate(220.517665, 277.126182)"><path style="stroke:none" d="M 3.921875 0.046875 C 3.285156 0.046875 2.722656 -0.125 2.234375 -0.46875 C 1.742188 -0.820312 1.363281 -1.316406 1.09375 -1.953125 C 0.820312 -2.597656 0.6875 -3.347656 0.6875 -4.203125 C 0.6875 -5.046875 0.820312 -5.789062 1.09375 -6.4375 C 1.363281 -7.082031 1.742188 -7.578125 2.234375 -7.921875 C 2.722656 -8.273438 3.285156 -8.453125 3.921875 -8.453125 C 4.566406 -8.453125 5.128906 -8.273438 5.609375 -7.921875 C 6.097656 -7.578125 6.476562 -7.082031 6.75 -6.4375 C 7.019531 -5.789062 7.15625 -5.046875 7.15625 -4.203125 C 7.15625 -3.347656 7.019531 -2.597656 6.75 -1.953125 C 6.476562 -1.316406 6.097656 -0.820312 5.609375 -0.46875 C 5.128906 -0.125 4.566406 0.046875 3.921875 0.046875 Z M 3.921875 -0.328125 C 4.484375 -0.328125 4.976562 -0.484375 5.40625 -0.796875 C 5.84375 -1.109375 6.175781 -1.554688 6.40625 -2.140625 C 6.644531 -2.722656 6.765625 -3.410156 6.765625 -4.203125 C 6.765625 -4.992188 6.644531 -5.679688 6.40625 -6.265625 C 6.175781 -6.847656 5.84375 -7.296875 5.40625 -7.609375 C 4.976562 -7.921875 4.484375 -8.078125 3.921875 -8.078125 C 3.359375 -8.078125 2.863281 -7.921875 2.4375 -7.609375 C 2.007812 -7.296875 1.675781 -6.847656 1.4375 -6.265625 C 1.207031 -5.679688 1.09375 -4.992188 1.09375 -4.203125 C 1.09375 -3.410156 1.207031 -2.722656 1.4375 -2.140625 C 1.675781 -1.554688 2.007812 -1.109375 2.4375 -0.796875 C 2.863281 -0.484375 3.359375 -0.328125 3.921875 -0.328125 Z M 3.921875 -0.328125 "/></g></g><g style="fill:#ffffff;fill-opacity:1;"><g transform="translate(237.969881, 277.126182)"><path style="stroke:none" d="M 6.1875 -0.375 L 6.1875 0 L 0.5 0 L 0.5 -0.28125 L 4.109375 -3.90625 C 4.597656 -4.394531 4.925781 -4.8125 5.09375 -5.15625 C 5.269531 -5.507812 5.359375 -5.867188 5.359375 -6.234375 C 5.359375 -6.804688 5.160156 -7.253906 4.765625 -7.578125 C 4.378906 -7.910156 3.828125 -8.078125 3.109375 -8.078125 C 2.546875 -8.078125 2.054688 -7.992188 1.640625 -7.828125 C 1.234375 -7.660156 0.882812 -7.40625 0.59375 -7.0625 L 0.3125 -7.328125 C 0.957031 -8.078125 1.894531 -8.453125 3.125 -8.453125 C 3.925781 -8.453125 4.5625 -8.253906 5.03125 -7.859375 C 5.507812 -7.460938 5.75 -6.929688 5.75 -6.265625 C 5.75 -5.835938 5.648438 -5.425781 5.453125 -5.03125 C 5.265625 -4.644531 4.910156 -4.191406 4.390625 -3.671875 L 1.109375 -0.375 Z M 6.1875 -0.375 "/></g></g><g style="fill:#ffffff;fill-opacity:1;"><g transform="translate(254.25924, 277.126182)"><path style="stroke:none" d="M 2.609375 -4.8125 C 3.847656 -4.8125 4.738281 -4.597656 5.28125 -4.171875 C 5.832031 -3.753906 6.109375 -3.15625 6.109375 -2.375 C 6.109375 -1.914062 6 -1.5 5.78125 -1.125 C 5.5625 -0.757812 5.238281 -0.472656 4.8125 -0.265625 C 4.382812 -0.0546875 3.863281 0.046875 3.25 0.046875 C 2.644531 0.046875 2.078125 -0.0546875 1.546875 -0.265625 C 1.015625 -0.484375 0.613281 -0.765625 0.34375 -1.109375 L 0.578125 -1.40625 C 0.828125 -1.082031 1.191406 -0.820312 1.671875 -0.625 C 2.148438 -0.425781 2.675781 -0.328125 3.25 -0.328125 C 4.039062 -0.328125 4.644531 -0.515625 5.0625 -0.890625 C 5.488281 -1.265625 5.703125 -1.757812 5.703125 -2.375 C 5.703125 -3.050781 5.460938 -3.5625 4.984375 -3.90625 C 4.503906 -4.257812 3.6875 -4.4375 2.53125 -4.4375 L 0.90625 -4.4375 L 1.34375 -8.40625 L 5.671875 -8.40625 L 5.671875 -8.03125 L 1.6875 -8.03125 L 1.3125 -4.8125 Z M 2.609375 -4.8125 "/></g></g></g></svg>